<svg xmlns="http://www.w3.org/2000/svg" width="28.514" height="28.515" viewBox="0 0 28.514 28.515">
  <path id="Path_7975" data-name="Path 7975" d="M20.106,7.642V19.3c0,2.526-2.469,4.573-5.518,4.573S9.069,21.827,9.069,19.3V5.936a3.2,3.2,0,0,1,3.449-2.858,3.2,3.2,0,0,1,3.449,2.858V17.1a1.282,1.282,0,0,1-1.38,1.143,1.282,1.282,0,0,1-1.38-1.143v-7.6a1.048,1.048,0,1,0-2.069,0v8.081a3.2,3.2,0,0,0,3.449,2.858,3.2,3.2,0,0,0,3.449-2.858v-12C18.037,3.046,15.567,1,12.518,1S7,3.046,7,5.573v14.29c0,3.475,3.394,6.288,7.588,6.288s7.588-2.812,7.588-6.288V7.642A1.038,1.038,0,0,0,20.106,7.642Z" transform="translate(13.541 -5.657) rotate(45)" fill="#cdccd3"/>
</svg>
