<svg xmlns="http://www.w3.org/2000/svg" width="94.37" height="80.823" viewBox="0 0 94.37 80.823">
  <g id="cat_2" data-name="cat 2" transform="translate(-1060.815 -1543.177)">
    <path id="Path_8604" data-name="Path 8604" d="M46.467,13.963a10,10,0,0,1,17.066,0L100.7,74.785A10,10,0,0,1,92.169,90H17.831A10,10,0,0,1,9.3,74.785Z" transform="translate(1053 1534)" fill="#fceaed"/>
    <g id="icon_2" data-name="icon 2">
      <path id="Path_8599" data-name="Path 8599" d="M2,5.94A6.856,6.856,0,0,1,8.75-1h23.5A6.856,6.856,0,0,1,39,5.94V50.06C39,53.886,34.847,57,31.125,57H9.875C6.153,57,2,52.648,2,48.821Z" transform="translate(1075.935 1556.678)" fill="#e03852"/>
      <path id="Path_8601" data-name="Path 8601" d="M11.019,0H0" transform="translate(1085.795 1575.056) rotate(-90)" fill="none" stroke="#fff" stroke-linecap="round" stroke-width="3"/>
    </g>
  </g>
</svg>
