<svg xmlns="http://www.w3.org/2000/svg" width="97" height="82" viewBox="0 0 97 82">
  <g id="cat_3" data-name="cat 3" transform="translate(-1428 -1798)">
    <rect id="Rectangle_538" data-name="Rectangle 538" width="82" height="82" rx="14" transform="translate(1443 1798)" fill="#f0f4fe"/>
    <g id="icon_3" data-name="icon 3" transform="translate(-10 31.027)">
      <path id="climate" d="M70,108.8c0,10.309-8.072,18.7-17.994,18.7H14.325C6.426,127.5,0,120.824,0,112.617A14.648,14.648,0,0,1,13.929,97.74c-1.075-10.261,7.012-20.24,17.9-20.24A18.071,18.071,0,0,1,48.932,90.382C60,88.4,70,97.3,70,108.8Z" transform="translate(1438 1705.473)" fill="#7ba0ff"/>
      <path id="Path_8600" data-name="Path 8600" d="M1.214,6.745C11.055,6.745,12-.969,12-.969" transform="translate(1486.483 1818.945)" fill="none" stroke="#fff" stroke-linecap="round" stroke-width="3"/>
    </g>
  </g>
</svg>
