<svg xmlns="http://www.w3.org/2000/svg" xmlns:xlink="http://www.w3.org/1999/xlink" width="1783.179" height="1783.178" viewBox="0 0 1783.179 1783.178">
  <defs>
    <filter id="Rectangle_615" x="0" y="0" width="1783.179" height="1783.178" filterUnits="userSpaceOnUse">
      <feOffset dy="10" input="SourceAlpha"/>
      <feGaussianBlur stdDeviation="40" result="blur"/>
      <feFlood flood-color="#7699fc" flood-opacity="0.051"/>
      <feComposite operator="in" in2="blur"/>
      <feComposite in="SourceGraphic"/>
    </filter>
  </defs>
  <g id="Group_1443" data-name="Group 1443" transform="translate(9579.179 4387.729)">
    <g transform="matrix(1, 0, 0, 1, -9579.18, -4387.73)" filter="url(#Rectangle_615)">
      <rect id="Rectangle_615-2" data-name="Rectangle 615" width="1260" height="1260" rx="200" transform="translate(1663.18 436.11) rotate(105)" fill="#3f3d56"/>
    </g>
    <g id="dots_bg" data-name="dots bg" transform="translate(-8952 -5323)">
      <g id="dots_3" data-name="dots 3" transform="translate(-913 89)">
        <circle id="Ellipse_257" data-name="Ellipse 257" cx="6" cy="6" r="6" transform="translate(1561 2016)" fill="#edf1f8" opacity="0.1"/>
        <circle id="Ellipse_257-2" data-name="Ellipse 257" cx="6" cy="6" r="6" transform="translate(1585 2016)" fill="#edf1f8" opacity="0.1"/>
        <circle id="Ellipse_257-3" data-name="Ellipse 257" cx="6" cy="6" r="6" transform="translate(1609 2016)" fill="#edf1f8" opacity="0.1"/>
        <circle id="Ellipse_257-4" data-name="Ellipse 257" cx="6" cy="6" r="6" transform="translate(1633 2016)" fill="#edf1f8" opacity="0.1"/>
        <circle id="Ellipse_257-5" data-name="Ellipse 257" cx="6" cy="6" r="6" transform="translate(1657 2016)" fill="#edf1f8" opacity="0.1"/>
        <circle id="Ellipse_257-6" data-name="Ellipse 257" cx="6" cy="6" r="6" transform="translate(1681 2016)" fill="#edf1f8" opacity="0.1"/>
        <circle id="Ellipse_257-7" data-name="Ellipse 257" cx="6" cy="6" r="6" transform="translate(1705 2016)" fill="#edf1f8" opacity="0.1"/>
        <circle id="Ellipse_257-8" data-name="Ellipse 257" cx="6" cy="6" r="6" transform="translate(1729 2016)" fill="#edf1f8" opacity="0.1"/>
        <circle id="Ellipse_257-9" data-name="Ellipse 257" cx="6" cy="6" r="6" transform="translate(1561 2040)" fill="#edf1f8" opacity="0.1"/>
        <circle id="Ellipse_257-10" data-name="Ellipse 257" cx="6" cy="6" r="6" transform="translate(1585 2040)" fill="#edf1f8" opacity="0.1"/>
        <circle id="Ellipse_257-11" data-name="Ellipse 257" cx="6" cy="6" r="6" transform="translate(1609 2040)" fill="#edf1f8" opacity="0.1"/>
        <circle id="Ellipse_257-12" data-name="Ellipse 257" cx="6" cy="6" r="6" transform="translate(1633 2040)" fill="#edf1f8" opacity="0.1"/>
        <circle id="Ellipse_257-13" data-name="Ellipse 257" cx="6" cy="6" r="6" transform="translate(1657 2040)" fill="#edf1f8" opacity="0.1"/>
        <circle id="Ellipse_257-14" data-name="Ellipse 257" cx="6" cy="6" r="6" transform="translate(1681 2040)" fill="#edf1f8" opacity="0.1"/>
        <circle id="Ellipse_257-15" data-name="Ellipse 257" cx="6" cy="6" r="6" transform="translate(1705 2040)" fill="#edf1f8" opacity="0.1"/>
        <circle id="Ellipse_257-16" data-name="Ellipse 257" cx="6" cy="6" r="6" transform="translate(1729 2040)" fill="#edf1f8" opacity="0.1"/>
        <circle id="Ellipse_257-17" data-name="Ellipse 257" cx="6" cy="6" r="6" transform="translate(1561 2064)" fill="#edf1f8" opacity="0.1"/>
        <circle id="Ellipse_257-18" data-name="Ellipse 257" cx="6" cy="6" r="6" transform="translate(1585 2064)" fill="#edf1f8" opacity="0.1"/>
        <circle id="Ellipse_257-19" data-name="Ellipse 257" cx="6" cy="6" r="6" transform="translate(1609 2064)" fill="#edf1f8" opacity="0.1"/>
        <circle id="Ellipse_257-20" data-name="Ellipse 257" cx="6" cy="6" r="6" transform="translate(1633 2064)" fill="#edf1f8" opacity="0.1"/>
        <circle id="Ellipse_257-21" data-name="Ellipse 257" cx="6" cy="6" r="6" transform="translate(1657 2064)" fill="#edf1f8" opacity="0.1"/>
        <circle id="Ellipse_257-22" data-name="Ellipse 257" cx="6" cy="6" r="6" transform="translate(1681 2064)" fill="#edf1f8" opacity="0.1"/>
        <circle id="Ellipse_257-23" data-name="Ellipse 257" cx="6" cy="6" r="6" transform="translate(1705 2064)" fill="#edf1f8" opacity="0.1"/>
        <path id="Path_8772" data-name="Path 8772" d="M6,0A5.325,5.325,0,0,1,9.967,1.56L7.225,11.825A4.06,4.06,0,0,1,6,12,6,6,0,0,1,6,0Z" transform="translate(1729 2064)" fill="#edf1f8" opacity="0.1"/>
        <circle id="Ellipse_257-24" data-name="Ellipse 257" cx="6" cy="6" r="6" transform="translate(1561 2088)" fill="#edf1f8" opacity="0.1"/>
        <circle id="Ellipse_257-25" data-name="Ellipse 257" cx="6" cy="6" r="6" transform="translate(1585 2088)" fill="#edf1f8" opacity="0.1"/>
        <circle id="Ellipse_257-26" data-name="Ellipse 257" cx="6" cy="6" r="6" transform="translate(1609 2088)" fill="#edf1f8" opacity="0.1"/>
        <circle id="Ellipse_257-27" data-name="Ellipse 257" cx="6" cy="6" r="6" transform="translate(1633 2088)" fill="#edf1f8" opacity="0.1"/>
        <circle id="Ellipse_257-28" data-name="Ellipse 257" cx="6" cy="6" r="6" transform="translate(1657 2088)" fill="#edf1f8" opacity="0.1"/>
        <circle id="Ellipse_257-29" data-name="Ellipse 257" cx="6" cy="6" r="6" transform="translate(1681 2088)" fill="#edf1f8" opacity="0.1"/>
        <circle id="Ellipse_257-30" data-name="Ellipse 257" cx="6" cy="6" r="6" transform="translate(1705 2088)" fill="#edf1f8" opacity="0.1"/>
        <path id="Path_8773" data-name="Path 8773" d="M1.382,9.777A5.787,5.787,0,0,1,0,6,6.154,6.154,0,0,1,3.837.522Z" transform="translate(1729 2088)" fill="#edf1f8" opacity="0.1"/>
        <circle id="Ellipse_257-31" data-name="Ellipse 257" cx="6" cy="6" r="6" transform="translate(1561 2112)" fill="#edf1f8" opacity="0.1"/>
        <circle id="Ellipse_257-32" data-name="Ellipse 257" cx="6" cy="6" r="6" transform="translate(1585 2112)" fill="#edf1f8" opacity="0.1"/>
        <circle id="Ellipse_257-33" data-name="Ellipse 257" cx="6" cy="6" r="6" transform="translate(1609 2112)" fill="#edf1f8" opacity="0.1"/>
        <circle id="Ellipse_257-34" data-name="Ellipse 257" cx="6" cy="6" r="6" transform="translate(1633 2112)" fill="#edf1f8" opacity="0.1"/>
        <circle id="Ellipse_257-35" data-name="Ellipse 257" cx="6" cy="6" r="6" transform="translate(1657 2112)" fill="#edf1f8" opacity="0.1"/>
        <circle id="Ellipse_257-36" data-name="Ellipse 257" cx="6" cy="6" r="6" transform="translate(1681 2112)" fill="#edf1f8" opacity="0.1"/>
        <circle id="Ellipse_257-37" data-name="Ellipse 257" cx="6" cy="6" r="6" transform="translate(1705 2112)" fill="#edf1f8" opacity="0.1"/>
        <circle id="Ellipse_257-38" data-name="Ellipse 257" cx="6" cy="6" r="6" transform="translate(1561 2136)" fill="#edf1f8" opacity="0.1"/>
        <circle id="Ellipse_257-39" data-name="Ellipse 257" cx="6" cy="6" r="6" transform="translate(1585 2136)" fill="#edf1f8" opacity="0.1"/>
        <circle id="Ellipse_257-40" data-name="Ellipse 257" cx="6" cy="6" r="6" transform="translate(1609 2136)" fill="#edf1f8" opacity="0.1"/>
        <circle id="Ellipse_257-41" data-name="Ellipse 257" cx="6" cy="6" r="6" transform="translate(1633 2136)" fill="#edf1f8" opacity="0.1"/>
        <circle id="Ellipse_257-42" data-name="Ellipse 257" cx="6" cy="6" r="6" transform="translate(1657 2136)" fill="#edf1f8" opacity="0.1"/>
        <circle id="Ellipse_257-43" data-name="Ellipse 257" cx="6" cy="6" r="6" transform="translate(1681 2136)" fill="#edf1f8" opacity="0.1"/>
        <circle id="Ellipse_257-44" data-name="Ellipse 257" cx="6" cy="6" r="6" transform="translate(1705 2136)" fill="#edf1f8" opacity="0.1"/>
        <circle id="Ellipse_257-45" data-name="Ellipse 257" cx="6" cy="6" r="6" transform="translate(1561 2160)" fill="#edf1f8" opacity="0.1"/>
        <circle id="Ellipse_257-46" data-name="Ellipse 257" cx="6" cy="6" r="6" transform="translate(1585 2160)" fill="#edf1f8" opacity="0.1"/>
        <circle id="Ellipse_257-47" data-name="Ellipse 257" cx="6" cy="6" r="6" transform="translate(1609 2160)" fill="#edf1f8" opacity="0.1"/>
        <circle id="Ellipse_257-48" data-name="Ellipse 257" cx="6" cy="6" r="6" transform="translate(1633 2160)" fill="#edf1f8" opacity="0.1"/>
        <circle id="Ellipse_257-49" data-name="Ellipse 257" cx="6" cy="6" r="6" transform="translate(1657 2160)" fill="#edf1f8" opacity="0.1"/>
        <circle id="Ellipse_257-50" data-name="Ellipse 257" cx="6" cy="6" r="6" transform="translate(1681 2160)" fill="#edf1f8" opacity="0.1"/>
        <path id="Path_8774" data-name="Path 8774" d="M6,0A5.048,5.048,0,0,1,8.54.586L5.459,12.018A6.129,6.129,0,0,1,0,6,6,6,0,0,1,6,0Z" transform="translate(1705 2160)" fill="#edf1f8" opacity="0.1"/>
        <circle id="Ellipse_257-51" data-name="Ellipse 257" cx="6" cy="6" r="6" transform="translate(1561 2184)" fill="#edf1f8" opacity="0.1"/>
        <circle id="Ellipse_257-52" data-name="Ellipse 257" cx="6" cy="6" r="6" transform="translate(1585 2184)" fill="#edf1f8" opacity="0.1"/>
        <circle id="Ellipse_257-53" data-name="Ellipse 257" cx="6" cy="6" r="6" transform="translate(1609 2184)" fill="#edf1f8" opacity="0.1"/>
        <circle id="Ellipse_257-54" data-name="Ellipse 257" cx="6" cy="6" r="6" transform="translate(1633 2184)" fill="#edf1f8" opacity="0.1"/>
        <circle id="Ellipse_257-55" data-name="Ellipse 257" cx="6" cy="6" r="6" transform="translate(1657 2184)" fill="#edf1f8" opacity="0.1"/>
        <circle id="Ellipse_257-56" data-name="Ellipse 257" cx="6" cy="6" r="6" transform="translate(1681 2184)" fill="#edf1f8" opacity="0.1"/>
        <circle id="Ellipse_257-57" data-name="Ellipse 257" cx="6" cy="6" r="6" transform="translate(1561 2208)" fill="#edf1f8" opacity="0.1"/>
        <circle id="Ellipse_257-58" data-name="Ellipse 257" cx="6" cy="6" r="6" transform="translate(1585 2208)" fill="#edf1f8" opacity="0.1"/>
        <circle id="Ellipse_257-59" data-name="Ellipse 257" cx="6" cy="6" r="6" transform="translate(1609 2208)" fill="#edf1f8" opacity="0.1"/>
        <circle id="Ellipse_257-60" data-name="Ellipse 257" cx="6" cy="6" r="6" transform="translate(1633 2208)" fill="#edf1f8" opacity="0.1"/>
        <circle id="Ellipse_257-61" data-name="Ellipse 257" cx="6" cy="6" r="6" transform="translate(1657 2208)" fill="#edf1f8" opacity="0.1"/>
        <circle id="Ellipse_257-62" data-name="Ellipse 257" cx="6" cy="6" r="6" transform="translate(1681 2208)" fill="#edf1f8" opacity="0.1"/>
        <circle id="Ellipse_257-63" data-name="Ellipse 257" cx="6" cy="6" r="6" transform="translate(1561 2232)" fill="#edf1f8" opacity="0.1"/>
        <circle id="Ellipse_257-64" data-name="Ellipse 257" cx="6" cy="6" r="6" transform="translate(1585 2232)" fill="#edf1f8" opacity="0.1"/>
        <circle id="Ellipse_257-65" data-name="Ellipse 257" cx="6" cy="6" r="6" transform="translate(1609 2232)" fill="#edf1f8" opacity="0.1"/>
        <circle id="Ellipse_257-66" data-name="Ellipse 257" cx="6" cy="6" r="6" transform="translate(1633 2232)" fill="#edf1f8" opacity="0.1"/>
        <circle id="Ellipse_257-67" data-name="Ellipse 257" cx="6" cy="6" r="6" transform="translate(1657 2232)" fill="#edf1f8" opacity="0.1"/>
        <path id="Path_8775" data-name="Path 8775" d="M6,0a6.2,6.2,0,0,1,6.018,5.253c.018.053-1.236,4.561-1.236,4.561A6.161,6.161,0,0,1,6,12,6,6,0,0,1,6,0Z" transform="translate(1681 2232)" fill="#edf1f8" opacity="0.1"/>
        <circle id="Ellipse_257-68" data-name="Ellipse 257" cx="6" cy="6" r="6" transform="translate(1561 2256)" fill="#edf1f8" opacity="0.1"/>
        <circle id="Ellipse_257-69" data-name="Ellipse 257" cx="6" cy="6" r="6" transform="translate(1585 2256)" fill="#edf1f8" opacity="0.1"/>
        <circle id="Ellipse_257-70" data-name="Ellipse 257" cx="6" cy="6" r="6" transform="translate(1609 2256)" fill="#edf1f8" opacity="0.1"/>
        <circle id="Ellipse_257-71" data-name="Ellipse 257" cx="6" cy="6" r="6" transform="translate(1633 2256)" fill="#edf1f8" opacity="0.1"/>
        <circle id="Ellipse_257-72" data-name="Ellipse 257" cx="6" cy="6" r="6" transform="translate(1657 2256)" fill="#edf1f8" opacity="0.1"/>
        <path id="Path_8776" data-name="Path 8776" d="M6,0a3.055,3.055,0,0,1,.938.117l-3.09,11.5A5.693,5.693,0,0,1,0,6,6,6,0,0,1,6,0Z" transform="translate(1681 2256)" fill="#edf1f8" opacity="0.1"/>
        <circle id="Ellipse_257-73" data-name="Ellipse 257" cx="6" cy="6" r="6" transform="translate(1561 2280)" fill="#edf1f8" opacity="0.1"/>
        <circle id="Ellipse_257-74" data-name="Ellipse 257" cx="6" cy="6" r="6" transform="translate(1585 2280)" fill="#edf1f8" opacity="0.1"/>
        <circle id="Ellipse_257-75" data-name="Ellipse 257" cx="6" cy="6" r="6" transform="translate(1609 2280)" fill="#edf1f8" opacity="0.1"/>
        <circle id="Ellipse_257-76" data-name="Ellipse 257" cx="6" cy="6" r="6" transform="translate(1633 2280)" fill="#edf1f8" opacity="0.1"/>
        <circle id="Ellipse_257-77" data-name="Ellipse 257" cx="6" cy="6" r="6" transform="translate(1657 2280)" fill="#edf1f8" opacity="0.1"/>
        <circle id="Ellipse_257-78" data-name="Ellipse 257" cx="6" cy="6" r="6" transform="translate(1561 2304)" fill="#edf1f8" opacity="0.1"/>
        <circle id="Ellipse_257-79" data-name="Ellipse 257" cx="6" cy="6" r="6" transform="translate(1585 2304)" fill="#edf1f8" opacity="0.1"/>
        <circle id="Ellipse_257-80" data-name="Ellipse 257" cx="6" cy="6" r="6" transform="translate(1609 2304)" fill="#edf1f8" opacity="0.1"/>
        <circle id="Ellipse_257-81" data-name="Ellipse 257" cx="6" cy="6" r="6" transform="translate(1633 2304)" fill="#edf1f8" opacity="0.1"/>
        <circle id="Ellipse_257-82" data-name="Ellipse 257" cx="6" cy="6" r="6" transform="translate(1657 2304)" fill="#edf1f8" opacity="0.1"/>
        <circle id="Ellipse_257-83" data-name="Ellipse 257" cx="6" cy="6" r="6" transform="translate(1561 2328)" fill="#edf1f8" opacity="0.1"/>
        <circle id="Ellipse_257-84" data-name="Ellipse 257" cx="6" cy="6" r="6" transform="translate(1585 2328)" fill="#edf1f8" opacity="0.1"/>
        <circle id="Ellipse_257-85" data-name="Ellipse 257" cx="6" cy="6" r="6" transform="translate(1609 2328)" fill="#edf1f8" opacity="0.1"/>
        <circle id="Ellipse_257-86" data-name="Ellipse 257" cx="6" cy="6" r="6" transform="translate(1633 2328)" fill="#edf1f8" opacity="0.1"/>
        <path id="Path_8777" data-name="Path 8777" d="M6,0A6.357,6.357,0,0,1,9.677,1.306S8.584,4.048,7.4,6.738,4.925,12,4.925,12C2.347,11.837,0,9.175,0,6A6,6,0,0,1,6,0Z" transform="translate(1657 2328)" fill="#edf1f8" opacity="0.1"/>
        <circle id="Ellipse_257-87" data-name="Ellipse 257" cx="6" cy="6" r="6" transform="translate(1561 2352)" fill="#edf1f8" opacity="0.1"/>
        <circle id="Ellipse_257-88" data-name="Ellipse 257" cx="6" cy="6" r="6" transform="translate(1585 2352)" fill="#edf1f8" opacity="0.1"/>
        <circle id="Ellipse_257-89" data-name="Ellipse 257" cx="6" cy="6" r="6" transform="translate(1609 2352)" fill="#edf1f8" opacity="0.1"/>
        <circle id="Ellipse_257-90" data-name="Ellipse 257" cx="6" cy="6" r="6" transform="translate(1633 2352)" fill="#edf1f8" opacity="0.1"/>
        <circle id="Ellipse_257-91" data-name="Ellipse 257" cx="6" cy="6" r="6" transform="translate(1561 2376)" fill="#edf1f8" opacity="0.1"/>
        <circle id="Ellipse_257-92" data-name="Ellipse 257" cx="6" cy="6" r="6" transform="translate(1585 2376)" fill="#edf1f8" opacity="0.1"/>
        <circle id="Ellipse_257-93" data-name="Ellipse 257" cx="6" cy="6" r="6" transform="translate(1609 2376)" fill="#edf1f8" opacity="0.1"/>
        <path id="Path_8682" data-name="Path 8682" d="M6,0c.146,0,.269.037.723.078,0,0-1.436,1.839-3.041,3.792S.3,7.89.3,7.89A5.916,5.916,0,0,1,0,6,6,6,0,0,1,6,0Z" transform="translate(1633 2376)" fill="#edf1f8" opacity="0.1"/>
        <circle id="Ellipse_257-94" data-name="Ellipse 257" cx="6" cy="6" r="6" transform="translate(1561 2400)" fill="#edf1f8" opacity="0.1"/>
        <circle id="Ellipse_257-95" data-name="Ellipse 257" cx="6" cy="6" r="6" transform="translate(1585 2400)" fill="#edf1f8" opacity="0.1"/>
        <path id="Path_8778" data-name="Path 8778" d="M6,0A6.4,6.4,0,0,1,8.3.456S5.385,3.08,3.359,4.84.195,7.5.195,7.5A6.42,6.42,0,0,1,0,6,6,6,0,0,1,6,0Z" transform="translate(1609 2400)" fill="#edf1f8" opacity="0.1"/>
        <path id="Path_8779" data-name="Path 8779" d="M6,0a6,6,0,0,1,6,6,8.146,8.146,0,0,1-.167,1.458S8.846,8.985,6.787,9.985,3.595,11.46,3.595,11.46A5.694,5.694,0,0,1,0,6,6,6,0,0,1,6,0Z" transform="translate(1561 2424)" fill="#edf1f8" opacity="0.1"/>
      </g>
      <g id="dots_2" data-name="dots 2">
        <circle id="Ellipse_257-96" data-name="Ellipse 257" cx="6" cy="6" r="6" transform="translate(278 1173)" fill="#eef2f8" opacity="0.1"/>
        <circle id="Ellipse_257-97" data-name="Ellipse 257" cx="6" cy="6" r="6" transform="translate(302 1173)" fill="#eef2f8" opacity="0.1"/>
        <path id="Path_8767" data-name="Path 8767" d="M10.477,9.92A6.515,6.515,0,0,1,6,12C3.339,12,1.077,9.856.2,7.157Z" transform="translate(326 1173)" fill="#eef2f8" opacity="0.1"/>
        <circle id="Ellipse_257-98" data-name="Ellipse 257" cx="6" cy="6" r="6" transform="translate(278 1197)" fill="#eef2f8" opacity="0.1"/>
        <circle id="Ellipse_257-99" data-name="Ellipse 257" cx="6" cy="6" r="6" transform="translate(302 1197)" fill="#eef2f8" opacity="0.1"/>
        <circle id="Ellipse_257-100" data-name="Ellipse 257" cx="6" cy="6" r="6" transform="translate(326 1197)" fill="#eef2f8" opacity="0.1"/>
        <circle id="Ellipse_257-101" data-name="Ellipse 257" cx="6" cy="6" r="6" transform="translate(350 1197)" fill="#eef2f8" opacity="0.1"/>
        <circle id="Ellipse_257-102" data-name="Ellipse 257" cx="6" cy="6" r="6" transform="translate(374 1197)" fill="#eef2f8" opacity="0.1"/>
        <path id="Path_8768" data-name="Path 8768" d="M12.048,5.616A6.381,6.381,0,0,1,6,12,6,6,0,0,1,0,6,7.983,7.983,0,0,1,.96,2.631Z" transform="translate(398 1197)" fill="#eef2f8" opacity="0.1"/>
        <path id="Path_8769" data-name="Path 8769" d="M8.737,11.188A6.033,6.033,0,0,1,6,12,6.167,6.167,0,0,1,.773,9.012Z" transform="translate(422 1197)" fill="#eef2f8" opacity="0.1"/>
        <circle id="Ellipse_257-103" data-name="Ellipse 257" cx="6" cy="6" r="6" transform="translate(278 1221)" fill="#eef2f8" opacity="0.1"/>
        <circle id="Ellipse_257-104" data-name="Ellipse 257" cx="6" cy="6" r="6" transform="translate(302 1221)" fill="#eef2f8" opacity="0.1"/>
        <circle id="Ellipse_257-105" data-name="Ellipse 257" cx="6" cy="6" r="6" transform="translate(326 1221)" fill="#eef2f8" opacity="0.1"/>
        <circle id="Ellipse_257-106" data-name="Ellipse 257" cx="6" cy="6" r="6" transform="translate(350 1221)" fill="#eef2f8" opacity="0.1"/>
        <circle id="Ellipse_257-107" data-name="Ellipse 257" cx="6" cy="6" r="6" transform="translate(374 1221)" fill="#eef2f8" opacity="0.1"/>
        <circle id="Ellipse_257-108" data-name="Ellipse 257" cx="6" cy="6" r="6" transform="translate(398 1221)" fill="#eef2f8" opacity="0.1"/>
        <circle id="Ellipse_257-109" data-name="Ellipse 257" cx="6" cy="6" r="6" transform="translate(422 1221)" fill="#eef2f8" opacity="0.1"/>
        <circle id="Ellipse_257-110" data-name="Ellipse 257" cx="6" cy="6" r="6" transform="translate(446 1221)" fill="#eef2f8" opacity="0.1"/>
        <circle id="Ellipse_257-111" data-name="Ellipse 257" cx="6" cy="6" r="6" transform="translate(470 1221)" fill="#eef2f8" opacity="0.1"/>
        <path id="Path_8770" data-name="Path 8770" d="M11.851,7.334A5.918,5.918,0,0,1,6,12,6,6,0,0,1,0,6,8.653,8.653,0,0,1,.24,4.221Z" transform="translate(494 1221)" fill="#eef2f8" opacity="0.1"/>
        <circle id="Ellipse_257-112" data-name="Ellipse 257" cx="6" cy="6" r="6" transform="translate(278 1245)" fill="#eef2f8" opacity="0.1"/>
        <circle id="Ellipse_257-113" data-name="Ellipse 257" cx="6" cy="6" r="6" transform="translate(302 1245)" fill="#eef2f8" opacity="0.1"/>
        <circle id="Ellipse_257-114" data-name="Ellipse 257" cx="6" cy="6" r="6" transform="translate(326 1245)" fill="#eef2f8" opacity="0.1"/>
        <circle id="Ellipse_257-115" data-name="Ellipse 257" cx="6" cy="6" r="6" transform="translate(350 1245)" fill="#eef2f8" opacity="0.1"/>
        <circle id="Ellipse_257-116" data-name="Ellipse 257" cx="6" cy="6" r="6" transform="translate(374 1245)" fill="#eef2f8" opacity="0.1"/>
        <circle id="Ellipse_257-117" data-name="Ellipse 257" cx="6" cy="6" r="6" transform="translate(398 1245)" fill="#eef2f8" opacity="0.1"/>
        <circle id="Ellipse_257-118" data-name="Ellipse 257" cx="6" cy="6" r="6" transform="translate(422 1245)" fill="#eef2f8" opacity="0.1"/>
        <circle id="Ellipse_257-119" data-name="Ellipse 257" cx="6" cy="6" r="6" transform="translate(446 1245)" fill="#eef2f8" opacity="0.1"/>
        <circle id="Ellipse_257-120" data-name="Ellipse 257" cx="6" cy="6" r="6" transform="translate(470 1245)" fill="#eef2f8" opacity="0.1"/>
        <circle id="Ellipse_257-121" data-name="Ellipse 257" cx="6" cy="6" r="6" transform="translate(494 1245)" fill="#eef2f8" opacity="0.1"/>
        <circle id="Ellipse_257-122" data-name="Ellipse 257" cx="6" cy="6" r="6" transform="translate(518 1245)" fill="#eef2f8" opacity="0.1"/>
        <circle id="Ellipse_257-123" data-name="Ellipse 257" cx="6" cy="6" r="6" transform="translate(542 1245)" fill="#eef2f8" opacity="0.1"/>
        <circle id="Ellipse_257-124" data-name="Ellipse 257" cx="6" cy="6" r="6" transform="translate(278 1269)" fill="#eef2f8" opacity="0.1"/>
        <circle id="Ellipse_257-125" data-name="Ellipse 257" cx="6" cy="6" r="6" transform="translate(302 1269)" fill="#eef2f8" opacity="0.1"/>
        <circle id="Ellipse_257-126" data-name="Ellipse 257" cx="6" cy="6" r="6" transform="translate(326 1269)" fill="#eef2f8" opacity="0.1"/>
        <circle id="Ellipse_257-127" data-name="Ellipse 257" cx="6" cy="6" r="6" transform="translate(350 1269)" fill="#eef2f8" opacity="0.1"/>
        <circle id="Ellipse_257-128" data-name="Ellipse 257" cx="6" cy="6" r="6" transform="translate(374 1269)" fill="#eef2f8" opacity="0.1"/>
        <circle id="Ellipse_257-129" data-name="Ellipse 257" cx="6" cy="6" r="6" transform="translate(398 1269)" fill="#eef2f8" opacity="0.1"/>
        <circle id="Ellipse_257-130" data-name="Ellipse 257" cx="6" cy="6" r="6" transform="translate(422 1269)" fill="#eef2f8" opacity="0.1"/>
        <circle id="Ellipse_257-131" data-name="Ellipse 257" cx="6" cy="6" r="6" transform="translate(446 1269)" fill="#eef2f8" opacity="0.1"/>
        <circle id="Ellipse_257-132" data-name="Ellipse 257" cx="6" cy="6" r="6" transform="translate(470 1269)" fill="#eef2f8" opacity="0.1"/>
        <circle id="Ellipse_257-133" data-name="Ellipse 257" cx="6" cy="6" r="6" transform="translate(494 1269)" fill="#eef2f8" opacity="0.1"/>
        <circle id="Ellipse_257-134" data-name="Ellipse 257" cx="6" cy="6" r="6" transform="translate(518 1269)" fill="#eef2f8" opacity="0.1"/>
        <circle id="Ellipse_257-135" data-name="Ellipse 257" cx="6" cy="6" r="6" transform="translate(542 1269)" fill="#eef2f8" opacity="0.1"/>
        <circle id="Ellipse_257-136" data-name="Ellipse 257" cx="6" cy="6" r="6" transform="translate(278 1293)" fill="#eef2f8" opacity="0.1"/>
        <circle id="Ellipse_257-137" data-name="Ellipse 257" cx="6" cy="6" r="6" transform="translate(302 1293)" fill="#eef2f8" opacity="0.1"/>
        <circle id="Ellipse_257-138" data-name="Ellipse 257" cx="6" cy="6" r="6" transform="translate(326 1293)" fill="#eef2f8" opacity="0.1"/>
        <circle id="Ellipse_257-139" data-name="Ellipse 257" cx="6" cy="6" r="6" transform="translate(350 1293)" fill="#eef2f8" opacity="0.1"/>
        <circle id="Ellipse_257-140" data-name="Ellipse 257" cx="6" cy="6" r="6" transform="translate(374 1293)" fill="#eef2f8" opacity="0.1"/>
        <circle id="Ellipse_257-141" data-name="Ellipse 257" cx="6" cy="6" r="6" transform="translate(398 1293)" fill="#eef2f8" opacity="0.1"/>
        <circle id="Ellipse_257-142" data-name="Ellipse 257" cx="6" cy="6" r="6" transform="translate(422 1293)" fill="#eef2f8" opacity="0.1"/>
        <circle id="Ellipse_257-143" data-name="Ellipse 257" cx="6" cy="6" r="6" transform="translate(446 1293)" fill="#eef2f8" opacity="0.1"/>
        <circle id="Ellipse_257-144" data-name="Ellipse 257" cx="6" cy="6" r="6" transform="translate(470 1293)" fill="#eef2f8" opacity="0.1"/>
        <circle id="Ellipse_257-145" data-name="Ellipse 257" cx="6" cy="6" r="6" transform="translate(494 1293)" fill="#eef2f8" opacity="0.1"/>
        <circle id="Ellipse_257-146" data-name="Ellipse 257" cx="6" cy="6" r="6" transform="translate(518 1293)" fill="#eef2f8" opacity="0.1"/>
        <circle id="Ellipse_257-147" data-name="Ellipse 257" cx="6" cy="6" r="6" transform="translate(542 1293)" fill="#eef2f8" opacity="0.1"/>
      </g>
    </g>
  </g>
</svg>
