<svg xmlns="http://www.w3.org/2000/svg" xmlns:xlink="http://www.w3.org/1999/xlink" width="1783.179" height="1783.178" viewBox="0 0 1783.179 1783.178">
  <defs>
    <filter id="Rectangle_615" x="0" y="0" width="1783.179" height="1783.178" filterUnits="userSpaceOnUse">
      <feOffset dy="10" input="SourceAlpha"/>
      <feGaussianBlur stdDeviation="40" result="blur"/>
      <feFlood flood-color="#7699fc" flood-opacity="0.051"/>
      <feComposite operator="in" in2="blur"/>
      <feComposite in="SourceGraphic"/>
    </filter>
  </defs>
  <g id="Group_1449" data-name="Group 1449" transform="translate(-5910.821 3727.729)">
    <g transform="matrix(1, 0, 0, 1, 5910.82, -3727.73)" filter="url(#Rectangle_615)">
      <rect id="Rectangle_615-2" data-name="Rectangle 615" width="1260" height="1260" rx="200" transform="translate(1663.18 436.11) rotate(105)" fill="#3f3d56"/>
    </g>
    <g id="dots_bg" data-name="dots bg" transform="translate(6469 -8847)">
      <g id="dots_8" data-name="dots 8">
        <circle id="Ellipse_257" data-name="Ellipse 257" cx="6" cy="6" r="6" transform="translate(278 6411)" fill="#46445c"/>
        <circle id="Ellipse_257-2" data-name="Ellipse 257" cx="6" cy="6" r="6" transform="translate(302 6411)" fill="#46445c"/>
        <circle id="Ellipse_257-3" data-name="Ellipse 257" cx="6" cy="6" r="6" transform="translate(326 6411)" fill="#46445c"/>
        <circle id="Ellipse_257-4" data-name="Ellipse 257" cx="6" cy="6" r="6" transform="translate(350 6411)" fill="#46445c"/>
        <circle id="Ellipse_257-5" data-name="Ellipse 257" cx="6" cy="6" r="6" transform="translate(374 6411)" fill="#46445c"/>
        <circle id="Ellipse_257-6" data-name="Ellipse 257" cx="6" cy="6" r="6" transform="translate(398 6411)" fill="#46445c"/>
        <circle id="Ellipse_257-7" data-name="Ellipse 257" cx="6" cy="6" r="6" transform="translate(422 6411)" fill="#46445c"/>
        <circle id="Ellipse_257-8" data-name="Ellipse 257" cx="6" cy="6" r="6" transform="translate(446 6411)" fill="#46445c"/>
        <circle id="Ellipse_257-9" data-name="Ellipse 257" cx="6" cy="6" r="6" transform="translate(470 6411)" fill="#46445c"/>
        <circle id="Ellipse_257-10" data-name="Ellipse 257" cx="6" cy="6" r="6" transform="translate(494 6411)" fill="#46445c"/>
        <circle id="Ellipse_257-11" data-name="Ellipse 257" cx="6" cy="6" r="6" transform="translate(518 6411)" fill="#46445c"/>
        <circle id="Ellipse_257-12" data-name="Ellipse 257" cx="6" cy="6" r="6" transform="translate(542 6411)" fill="#46445c"/>
        <circle id="Ellipse_257-13" data-name="Ellipse 257" cx="6" cy="6" r="6" transform="translate(278 6435)" fill="#46445c"/>
        <circle id="Ellipse_257-14" data-name="Ellipse 257" cx="6" cy="6" r="6" transform="translate(302 6435)" fill="#46445c"/>
        <circle id="Ellipse_257-15" data-name="Ellipse 257" cx="6" cy="6" r="6" transform="translate(326 6435)" fill="#46445c"/>
        <circle id="Ellipse_257-16" data-name="Ellipse 257" cx="6" cy="6" r="6" transform="translate(350 6435)" fill="#46445c"/>
        <circle id="Ellipse_257-17" data-name="Ellipse 257" cx="6" cy="6" r="6" transform="translate(374 6435)" fill="#46445c"/>
        <circle id="Ellipse_257-18" data-name="Ellipse 257" cx="6" cy="6" r="6" transform="translate(398 6435)" fill="#46445c"/>
        <circle id="Ellipse_257-19" data-name="Ellipse 257" cx="6" cy="6" r="6" transform="translate(422 6435)" fill="#46445c"/>
        <circle id="Ellipse_257-20" data-name="Ellipse 257" cx="6" cy="6" r="6" transform="translate(446 6435)" fill="#46445c"/>
        <circle id="Ellipse_257-21" data-name="Ellipse 257" cx="6" cy="6" r="6" transform="translate(470 6435)" fill="#46445c"/>
        <circle id="Ellipse_257-22" data-name="Ellipse 257" cx="6" cy="6" r="6" transform="translate(494 6435)" fill="#46445c"/>
        <circle id="Ellipse_257-23" data-name="Ellipse 257" cx="6" cy="6" r="6" transform="translate(518 6435)" fill="#46445c"/>
        <circle id="Ellipse_257-24" data-name="Ellipse 257" cx="6" cy="6" r="6" transform="translate(542 6435)" fill="#46445c"/>
        <circle id="Ellipse_257-25" data-name="Ellipse 257" cx="6" cy="6" r="6" transform="translate(278 6459)" fill="#46445c"/>
        <circle id="Ellipse_257-26" data-name="Ellipse 257" cx="6" cy="6" r="6" transform="translate(302 6459)" fill="#46445c"/>
        <circle id="Ellipse_257-27" data-name="Ellipse 257" cx="6" cy="6" r="6" transform="translate(326 6459)" fill="#46445c"/>
        <circle id="Ellipse_257-28" data-name="Ellipse 257" cx="6" cy="6" r="6" transform="translate(350 6459)" fill="#46445c"/>
        <circle id="Ellipse_257-29" data-name="Ellipse 257" cx="6" cy="6" r="6" transform="translate(374 6459)" fill="#46445c"/>
        <circle id="Ellipse_257-30" data-name="Ellipse 257" cx="6" cy="6" r="6" transform="translate(398 6459)" fill="#46445c"/>
        <circle id="Ellipse_257-31" data-name="Ellipse 257" cx="6" cy="6" r="6" transform="translate(422 6459)" fill="#46445c"/>
        <circle id="Ellipse_257-32" data-name="Ellipse 257" cx="6" cy="6" r="6" transform="translate(446 6459)" fill="#46445c"/>
        <circle id="Ellipse_257-33" data-name="Ellipse 257" cx="6" cy="6" r="6" transform="translate(470 6459)" fill="#46445c"/>
        <circle id="Ellipse_257-34" data-name="Ellipse 257" cx="6" cy="6" r="6" transform="translate(494 6459)" fill="#46445c"/>
        <circle id="Ellipse_257-35" data-name="Ellipse 257" cx="6" cy="6" r="6" transform="translate(518 6459)" fill="#46445c"/>
        <circle id="Ellipse_257-36" data-name="Ellipse 257" cx="6" cy="6" r="6" transform="translate(542 6459)" fill="#46445c"/>
        <circle id="Ellipse_257-37" data-name="Ellipse 257" cx="6" cy="6" r="6" transform="translate(278 6483)" fill="#46445c"/>
        <circle id="Ellipse_257-38" data-name="Ellipse 257" cx="6" cy="6" r="6" transform="translate(302 6483)" fill="#46445c"/>
        <circle id="Ellipse_257-39" data-name="Ellipse 257" cx="6" cy="6" r="6" transform="translate(326 6483)" fill="#46445c"/>
        <circle id="Ellipse_257-40" data-name="Ellipse 257" cx="6" cy="6" r="6" transform="translate(350 6483)" fill="#46445c"/>
        <circle id="Ellipse_257-41" data-name="Ellipse 257" cx="6" cy="6" r="6" transform="translate(374 6483)" fill="#46445c"/>
        <circle id="Ellipse_257-42" data-name="Ellipse 257" cx="6" cy="6" r="6" transform="translate(398 6483)" fill="#46445c"/>
        <circle id="Ellipse_257-43" data-name="Ellipse 257" cx="6" cy="6" r="6" transform="translate(422 6483)" fill="#46445c"/>
        <circle id="Ellipse_257-44" data-name="Ellipse 257" cx="6" cy="6" r="6" transform="translate(446 6483)" fill="#46445c"/>
        <circle id="Ellipse_257-45" data-name="Ellipse 257" cx="6" cy="6" r="6" transform="translate(470 6483)" fill="#46445c"/>
        <circle id="Ellipse_257-46" data-name="Ellipse 257" cx="6" cy="6" r="6" transform="translate(494 6483)" fill="#46445c"/>
        <circle id="Ellipse_257-47" data-name="Ellipse 257" cx="6" cy="6" r="6" transform="translate(518 6483)" fill="#46445c"/>
        <circle id="Ellipse_257-48" data-name="Ellipse 257" cx="6" cy="6" r="6" transform="translate(542 6483)" fill="#46445c"/>
        <circle id="Ellipse_257-49" data-name="Ellipse 257" cx="6" cy="6" r="6" transform="translate(278 6507)" fill="#46445c"/>
        <circle id="Ellipse_257-50" data-name="Ellipse 257" cx="6" cy="6" r="6" transform="translate(302 6507)" fill="#46445c"/>
        <circle id="Ellipse_257-51" data-name="Ellipse 257" cx="6" cy="6" r="6" transform="translate(326 6507)" fill="#46445c"/>
        <circle id="Ellipse_257-52" data-name="Ellipse 257" cx="6" cy="6" r="6" transform="translate(350 6507)" fill="#46445c"/>
        <circle id="Ellipse_257-53" data-name="Ellipse 257" cx="6" cy="6" r="6" transform="translate(374 6507)" fill="#46445c"/>
        <circle id="Ellipse_257-54" data-name="Ellipse 257" cx="6" cy="6" r="6" transform="translate(398 6507)" fill="#46445c"/>
        <circle id="Ellipse_257-55" data-name="Ellipse 257" cx="6" cy="6" r="6" transform="translate(422 6507)" fill="#46445c"/>
        <circle id="Ellipse_257-56" data-name="Ellipse 257" cx="6" cy="6" r="6" transform="translate(446 6507)" fill="#46445c"/>
        <circle id="Ellipse_257-57" data-name="Ellipse 257" cx="6" cy="6" r="6" transform="translate(470 6507)" fill="#46445c"/>
        <circle id="Ellipse_257-58" data-name="Ellipse 257" cx="6" cy="6" r="6" transform="translate(494 6507)" fill="#46445c"/>
        <circle id="Ellipse_257-59" data-name="Ellipse 257" cx="6" cy="6" r="6" transform="translate(518 6507)" fill="#46445c"/>
        <circle id="Ellipse_257-60" data-name="Ellipse 257" cx="6" cy="6" r="6" transform="translate(542 6507)" fill="#46445c"/>
        <circle id="Ellipse_257-61" data-name="Ellipse 257" cx="6" cy="6" r="6" transform="translate(278 6531)" fill="#46445c"/>
        <circle id="Ellipse_257-62" data-name="Ellipse 257" cx="6" cy="6" r="6" transform="translate(302 6531)" fill="#46445c"/>
        <circle id="Ellipse_257-63" data-name="Ellipse 257" cx="6" cy="6" r="6" transform="translate(326 6531)" fill="#46445c"/>
        <circle id="Ellipse_257-64" data-name="Ellipse 257" cx="6" cy="6" r="6" transform="translate(350 6531)" fill="#46445c"/>
        <circle id="Ellipse_257-65" data-name="Ellipse 257" cx="6" cy="6" r="6" transform="translate(374 6531)" fill="#46445c"/>
        <circle id="Ellipse_257-66" data-name="Ellipse 257" cx="6" cy="6" r="6" transform="translate(398 6531)" fill="#46445c"/>
        <circle id="Ellipse_257-67" data-name="Ellipse 257" cx="6" cy="6" r="6" transform="translate(422 6531)" fill="#46445c"/>
        <circle id="Ellipse_257-68" data-name="Ellipse 257" cx="6" cy="6" r="6" transform="translate(446 6531)" fill="#46445c"/>
        <circle id="Ellipse_257-69" data-name="Ellipse 257" cx="6" cy="6" r="6" transform="translate(470 6531)" fill="#46445c"/>
        <circle id="Ellipse_257-70" data-name="Ellipse 257" cx="6" cy="6" r="6" transform="translate(494 6531)" fill="#46445c"/>
        <circle id="Ellipse_257-71" data-name="Ellipse 257" cx="6" cy="6" r="6" transform="translate(518 6531)" fill="#46445c"/>
        <circle id="Ellipse_257-72" data-name="Ellipse 257" cx="6" cy="6" r="6" transform="translate(542 6531)" fill="#46445c"/>
        <circle id="Ellipse_257-73" data-name="Ellipse 257" cx="6" cy="6" r="6" transform="translate(278 6555)" fill="#46445c"/>
        <circle id="Ellipse_257-74" data-name="Ellipse 257" cx="6" cy="6" r="6" transform="translate(302 6555)" fill="#46445c"/>
        <circle id="Ellipse_257-75" data-name="Ellipse 257" cx="6" cy="6" r="6" transform="translate(326 6555)" fill="#46445c"/>
        <circle id="Ellipse_257-76" data-name="Ellipse 257" cx="6" cy="6" r="6" transform="translate(350 6555)" fill="#46445c"/>
        <circle id="Ellipse_257-77" data-name="Ellipse 257" cx="6" cy="6" r="6" transform="translate(374 6555)" fill="#46445c"/>
        <circle id="Ellipse_257-78" data-name="Ellipse 257" cx="6" cy="6" r="6" transform="translate(398 6555)" fill="#46445c"/>
        <circle id="Ellipse_257-79" data-name="Ellipse 257" cx="6" cy="6" r="6" transform="translate(422 6555)" fill="#46445c"/>
        <circle id="Ellipse_257-80" data-name="Ellipse 257" cx="6" cy="6" r="6" transform="translate(446 6555)" fill="#46445c"/>
        <circle id="Ellipse_257-81" data-name="Ellipse 257" cx="6" cy="6" r="6" transform="translate(470 6555)" fill="#46445c"/>
        <circle id="Ellipse_257-82" data-name="Ellipse 257" cx="6" cy="6" r="6" transform="translate(494 6555)" fill="#46445c"/>
        <circle id="Ellipse_257-83" data-name="Ellipse 257" cx="6" cy="6" r="6" transform="translate(518 6555)" fill="#46445c"/>
        <circle id="Ellipse_257-84" data-name="Ellipse 257" cx="6" cy="6" r="6" transform="translate(542 6555)" fill="#46445c"/>
        <circle id="Ellipse_257-85" data-name="Ellipse 257" cx="6" cy="6" r="6" transform="translate(278 6579)" fill="#46445c"/>
        <circle id="Ellipse_257-86" data-name="Ellipse 257" cx="6" cy="6" r="6" transform="translate(302 6579)" fill="#46445c"/>
        <circle id="Ellipse_257-87" data-name="Ellipse 257" cx="6" cy="6" r="6" transform="translate(326 6579)" fill="#46445c"/>
        <circle id="Ellipse_257-88" data-name="Ellipse 257" cx="6" cy="6" r="6" transform="translate(350 6579)" fill="#46445c"/>
        <circle id="Ellipse_257-89" data-name="Ellipse 257" cx="6" cy="6" r="6" transform="translate(374 6579)" fill="#46445c"/>
        <circle id="Ellipse_257-90" data-name="Ellipse 257" cx="6" cy="6" r="6" transform="translate(398 6579)" fill="#46445c"/>
        <circle id="Ellipse_257-91" data-name="Ellipse 257" cx="6" cy="6" r="6" transform="translate(422 6579)" fill="#46445c"/>
        <circle id="Ellipse_257-92" data-name="Ellipse 257" cx="6" cy="6" r="6" transform="translate(446 6579)" fill="#46445c"/>
        <circle id="Ellipse_257-93" data-name="Ellipse 257" cx="6" cy="6" r="6" transform="translate(470 6579)" fill="#46445c"/>
        <circle id="Ellipse_257-94" data-name="Ellipse 257" cx="6" cy="6" r="6" transform="translate(494 6579)" fill="#46445c"/>
        <circle id="Ellipse_257-95" data-name="Ellipse 257" cx="6" cy="6" r="6" transform="translate(518 6579)" fill="#46445c"/>
        <circle id="Ellipse_257-96" data-name="Ellipse 257" cx="6" cy="6" r="6" transform="translate(542 6579)" fill="#46445c"/>
        <circle id="Ellipse_257-97" data-name="Ellipse 257" cx="6" cy="6" r="6" transform="translate(278 6603)" fill="#46445c"/>
        <circle id="Ellipse_257-98" data-name="Ellipse 257" cx="6" cy="6" r="6" transform="translate(302 6603)" fill="#46445c"/>
        <circle id="Ellipse_257-99" data-name="Ellipse 257" cx="6" cy="6" r="6" transform="translate(326 6603)" fill="#46445c"/>
        <circle id="Ellipse_257-100" data-name="Ellipse 257" cx="6" cy="6" r="6" transform="translate(350 6603)" fill="#46445c"/>
        <circle id="Ellipse_257-101" data-name="Ellipse 257" cx="6" cy="6" r="6" transform="translate(374 6603)" fill="#46445c"/>
        <circle id="Ellipse_257-102" data-name="Ellipse 257" cx="6" cy="6" r="6" transform="translate(398 6603)" fill="#46445c"/>
        <circle id="Ellipse_257-103" data-name="Ellipse 257" cx="6" cy="6" r="6" transform="translate(422 6603)" fill="#46445c"/>
        <circle id="Ellipse_257-104" data-name="Ellipse 257" cx="6" cy="6" r="6" transform="translate(446 6603)" fill="#46445c"/>
        <circle id="Ellipse_257-105" data-name="Ellipse 257" cx="6" cy="6" r="6" transform="translate(470 6603)" fill="#46445c"/>
        <circle id="Ellipse_257-106" data-name="Ellipse 257" cx="6" cy="6" r="6" transform="translate(494 6603)" fill="#46445c"/>
        <circle id="Ellipse_257-107" data-name="Ellipse 257" cx="6" cy="6" r="6" transform="translate(518 6603)" fill="#46445c"/>
        <circle id="Ellipse_257-108" data-name="Ellipse 257" cx="6" cy="6" r="6" transform="translate(542 6603)" fill="#46445c"/>
        <circle id="Ellipse_257-109" data-name="Ellipse 257" cx="6" cy="6" r="6" transform="translate(278 6627)" fill="#46445c"/>
        <circle id="Ellipse_257-110" data-name="Ellipse 257" cx="6" cy="6" r="6" transform="translate(302 6627)" fill="#46445c"/>
        <circle id="Ellipse_257-111" data-name="Ellipse 257" cx="6" cy="6" r="6" transform="translate(326 6627)" fill="#46445c"/>
        <circle id="Ellipse_257-112" data-name="Ellipse 257" cx="6" cy="6" r="6" transform="translate(350 6627)" fill="#46445c"/>
        <circle id="Ellipse_257-113" data-name="Ellipse 257" cx="6" cy="6" r="6" transform="translate(374 6627)" fill="#46445c"/>
        <circle id="Ellipse_257-114" data-name="Ellipse 257" cx="6" cy="6" r="6" transform="translate(398 6627)" fill="#46445c"/>
        <circle id="Ellipse_257-115" data-name="Ellipse 257" cx="6" cy="6" r="6" transform="translate(422 6627)" fill="#46445c"/>
        <circle id="Ellipse_257-116" data-name="Ellipse 257" cx="6" cy="6" r="6" transform="translate(446 6627)" fill="#46445c"/>
        <circle id="Ellipse_257-117" data-name="Ellipse 257" cx="6" cy="6" r="6" transform="translate(470 6627)" fill="#46445c"/>
        <circle id="Ellipse_257-118" data-name="Ellipse 257" cx="6" cy="6" r="6" transform="translate(494 6627)" fill="#46445c"/>
        <circle id="Ellipse_257-119" data-name="Ellipse 257" cx="6" cy="6" r="6" transform="translate(518 6627)" fill="#46445c"/>
        <circle id="Ellipse_257-120" data-name="Ellipse 257" cx="6" cy="6" r="6" transform="translate(542 6627)" fill="#46445c"/>
        <path id="Path_8807" data-name="Path 8807" d="M6,0a6,6,0,0,1,6,6,6.551,6.551,0,0,1-.852,3.058L-.011,6.066A6.067,6.067,0,0,1,6,0Z" transform="translate(350 6651)" fill="#46445c"/>
        <circle id="Ellipse_257-121" data-name="Ellipse 257" cx="6" cy="6" r="6" transform="translate(374 6651)" fill="#46445c"/>
        <circle id="Ellipse_257-122" data-name="Ellipse 257" cx="6" cy="6" r="6" transform="translate(398 6651)" fill="#46445c"/>
        <circle id="Ellipse_257-123" data-name="Ellipse 257" cx="6" cy="6" r="6" transform="translate(422 6651)" fill="#46445c"/>
        <circle id="Ellipse_257-124" data-name="Ellipse 257" cx="6" cy="6" r="6" transform="translate(446 6651)" fill="#46445c"/>
        <circle id="Ellipse_257-125" data-name="Ellipse 257" cx="6" cy="6" r="6" transform="translate(470 6651)" fill="#46445c"/>
        <circle id="Ellipse_257-126" data-name="Ellipse 257" cx="6" cy="6" r="6" transform="translate(494 6651)" fill="#46445c"/>
        <circle id="Ellipse_257-127" data-name="Ellipse 257" cx="6" cy="6" r="6" transform="translate(518 6651)" fill="#46445c"/>
        <circle id="Ellipse_257-128" data-name="Ellipse 257" cx="6" cy="6" r="6" transform="translate(542 6651)" fill="#46445c"/>
        <path id="Path_8808" data-name="Path 8808" d="M6,0a6.01,6.01,0,0,1,5.841,4.568L1.757,1.757A5.808,5.808,0,0,1,6,0Z" transform="translate(422 6675)" fill="#46445c"/>
        <path id="Path_8809" data-name="Path 8809" d="M6,0a6,6,0,0,1,6,6,6.93,6.93,0,0,1-1.948,4.465L.351,7.9A4.972,4.972,0,0,1,0,6,6,6,0,0,1,6,0Z" transform="translate(446 6675)" fill="#46445c"/>
        <circle id="Ellipse_257-129" data-name="Ellipse 257" cx="6" cy="6" r="6" transform="translate(470 6675)" fill="#46445c"/>
        <circle id="Ellipse_257-130" data-name="Ellipse 257" cx="6" cy="6" r="6" transform="translate(494 6675)" fill="#46445c"/>
        <circle id="Ellipse_257-131" data-name="Ellipse 257" cx="6" cy="6" r="6" transform="translate(518 6675)" fill="#46445c"/>
        <circle id="Ellipse_257-132" data-name="Ellipse 257" cx="6" cy="6" r="6" transform="translate(542 6675)" fill="#46445c"/>
        <path id="Path_8810" data-name="Path 8810" d="M6,0a6.332,6.332,0,0,1,6.047,6.332L.74,3.263A6.209,6.209,0,0,1,6,0Z" transform="translate(518 6699)" fill="#46445c"/>
        <path id="Path_8811" data-name="Path 8811" d="M6,0a6,6,0,0,1,6,6,6.394,6.394,0,0,1-3.782,5.692L1.294,9.849A6.137,6.137,0,0,1,0,6,6,6,0,0,1,6,0Z" transform="translate(542 6699)" fill="#46445c"/>
      </g>
      <g id="dots_7" data-name="dots 7" transform="translate(0 1)">
        <circle id="Ellipse_257-133" data-name="Ellipse 257" cx="6" cy="6" r="6" transform="translate(648 5447)" fill="#46445c"/>
        <circle id="Ellipse_257-134" data-name="Ellipse 257" cx="6" cy="6" r="6" transform="translate(672 5447)" fill="#46445c"/>
        <circle id="Ellipse_257-135" data-name="Ellipse 257" cx="6" cy="6" r="6" transform="translate(696 5447)" fill="#46445c"/>
        <path id="Path_8812" data-name="Path 8812" d="M11.655,7.9A6.4,6.4,0,0,1,6,12,6,6,0,0,1,0,6,4.944,4.944,0,0,1,.119,4.8Z" transform="translate(720 5447)" fill="#46445c"/>
        <circle id="Ellipse_257-136" data-name="Ellipse 257" cx="6" cy="6" r="6" transform="translate(648 5471)" fill="#46445c"/>
        <circle id="Ellipse_257-137" data-name="Ellipse 257" cx="6" cy="6" r="6" transform="translate(672 5471)" fill="#46445c"/>
        <circle id="Ellipse_257-138" data-name="Ellipse 257" cx="6" cy="6" r="6" transform="translate(696 5471)" fill="#46445c"/>
        <circle id="Ellipse_257-139" data-name="Ellipse 257" cx="6" cy="6" r="6" transform="translate(720 5471)" fill="#46445c"/>
        <circle id="Ellipse_257-140" data-name="Ellipse 257" cx="6" cy="6" r="6" transform="translate(744 5471)" fill="#46445c"/>
        <circle id="Ellipse_257-141" data-name="Ellipse 257" cx="6" cy="6" r="6" transform="translate(768 5471)" fill="#46445c"/>
        <path id="Path_8813" data-name="Path 8813" d="M11.361,3.1A6.507,6.507,0,0,1,12,6,6,6,0,1,1,2.938.846Z" transform="translate(792 5471)" fill="#46445c"/>
        <path id="Path_8814" data-name="Path 8814" d="M10.991,9.409A5.538,5.538,0,0,1,6,12,5.74,5.74,0,0,1,.06,6.489Z" transform="translate(816 5471)" fill="#46445c"/>
        <circle id="Ellipse_257-142" data-name="Ellipse 257" cx="6" cy="6" r="6" transform="translate(648 5495)" fill="#46445c"/>
        <circle id="Ellipse_257-143" data-name="Ellipse 257" cx="6" cy="6" r="6" transform="translate(672 5495)" fill="#46445c"/>
        <circle id="Ellipse_257-144" data-name="Ellipse 257" cx="6" cy="6" r="6" transform="translate(696 5495)" fill="#46445c"/>
        <circle id="Ellipse_257-145" data-name="Ellipse 257" cx="6" cy="6" r="6" transform="translate(720 5495)" fill="#46445c"/>
        <circle id="Ellipse_257-146" data-name="Ellipse 257" cx="6" cy="6" r="6" transform="translate(744 5495)" fill="#46445c"/>
        <circle id="Ellipse_257-147" data-name="Ellipse 257" cx="6" cy="6" r="6" transform="translate(768 5495)" fill="#46445c"/>
        <circle id="Ellipse_257-148" data-name="Ellipse 257" cx="6" cy="6" r="6" transform="translate(792 5495)" fill="#46445c"/>
        <circle id="Ellipse_257-149" data-name="Ellipse 257" cx="6" cy="6" r="6" transform="translate(816 5495)" fill="#46445c"/>
        <circle id="Ellipse_257-150" data-name="Ellipse 257" cx="6" cy="6" r="6" transform="translate(840 5495)" fill="#46445c"/>
        <circle id="Ellipse_257-151" data-name="Ellipse 257" cx="6" cy="6" r="6" transform="translate(864 5495)" fill="#46445c"/>
        <path id="Path_8815" data-name="Path 8815" d="M12,4.961V6A6,6,0,0,1,0,6,7,7,0,0,1,1.218,2.062Z" transform="translate(888 5495)" fill="#46445c"/>
        <path id="Path_8816" data-name="Path 8816" d="M9.3,10.968A6.009,6.009,0,0,1,6,12,5.981,5.981,0,0,1,.5,8.371S2.849,8.99,5.05,9.64,9.3,10.968,9.3,10.968Z" transform="translate(912 5495)" fill="#46445c"/>
        <circle id="Ellipse_257-152" data-name="Ellipse 257" cx="6" cy="6" r="6" transform="translate(648 5519)" fill="#46445c"/>
        <circle id="Ellipse_257-153" data-name="Ellipse 257" cx="6" cy="6" r="6" transform="translate(672 5519)" fill="#46445c"/>
        <circle id="Ellipse_257-154" data-name="Ellipse 257" cx="6" cy="6" r="6" transform="translate(696 5519)" fill="#46445c"/>
        <circle id="Ellipse_257-155" data-name="Ellipse 257" cx="6" cy="6" r="6" transform="translate(720 5519)" fill="#46445c"/>
        <circle id="Ellipse_257-156" data-name="Ellipse 257" cx="6" cy="6" r="6" transform="translate(744 5519)" fill="#46445c"/>
        <circle id="Ellipse_257-157" data-name="Ellipse 257" cx="6" cy="6" r="6" transform="translate(768 5519)" fill="#46445c"/>
        <circle id="Ellipse_257-158" data-name="Ellipse 257" cx="6" cy="6" r="6" transform="translate(792 5519)" fill="#46445c"/>
        <circle id="Ellipse_257-159" data-name="Ellipse 257" cx="6" cy="6" r="6" transform="translate(816 5519)" fill="#46445c"/>
        <circle id="Ellipse_257-160" data-name="Ellipse 257" cx="6" cy="6" r="6" transform="translate(840 5519)" fill="#46445c"/>
        <circle id="Ellipse_257-161" data-name="Ellipse 257" cx="6" cy="6" r="6" transform="translate(864 5519)" fill="#46445c"/>
        <circle id="Ellipse_257-162" data-name="Ellipse 257" cx="6" cy="6" r="6" transform="translate(888 5519)" fill="#46445c"/>
        <circle id="Ellipse_257-163" data-name="Ellipse 257" cx="6" cy="6" r="6" transform="translate(912 5519)" fill="#46445c"/>
        <circle id="Ellipse_257-164" data-name="Ellipse 257" cx="6" cy="6" r="6" transform="translate(648 5543)" fill="#46445c"/>
        <circle id="Ellipse_257-165" data-name="Ellipse 257" cx="6" cy="6" r="6" transform="translate(672 5543)" fill="#46445c"/>
        <circle id="Ellipse_257-166" data-name="Ellipse 257" cx="6" cy="6" r="6" transform="translate(696 5543)" fill="#46445c"/>
        <circle id="Ellipse_257-167" data-name="Ellipse 257" cx="6" cy="6" r="6" transform="translate(720 5543)" fill="#46445c"/>
        <circle id="Ellipse_257-168" data-name="Ellipse 257" cx="6" cy="6" r="6" transform="translate(744 5543)" fill="#46445c"/>
        <circle id="Ellipse_257-169" data-name="Ellipse 257" cx="6" cy="6" r="6" transform="translate(768 5543)" fill="#46445c"/>
        <circle id="Ellipse_257-170" data-name="Ellipse 257" cx="6" cy="6" r="6" transform="translate(792 5543)" fill="#46445c"/>
        <circle id="Ellipse_257-171" data-name="Ellipse 257" cx="6" cy="6" r="6" transform="translate(816 5543)" fill="#46445c"/>
        <circle id="Ellipse_257-172" data-name="Ellipse 257" cx="6" cy="6" r="6" transform="translate(840 5543)" fill="#46445c"/>
        <circle id="Ellipse_257-173" data-name="Ellipse 257" cx="6" cy="6" r="6" transform="translate(864 5543)" fill="#46445c"/>
        <circle id="Ellipse_257-174" data-name="Ellipse 257" cx="6" cy="6" r="6" transform="translate(888 5543)" fill="#46445c"/>
        <circle id="Ellipse_257-175" data-name="Ellipse 257" cx="6" cy="6" r="6" transform="translate(912 5543)" fill="#46445c"/>
        <circle id="Ellipse_257-176" data-name="Ellipse 257" cx="6" cy="6" r="6" transform="translate(648 5567)" fill="#46445c"/>
        <circle id="Ellipse_257-177" data-name="Ellipse 257" cx="6" cy="6" r="6" transform="translate(672 5567)" fill="#46445c"/>
        <circle id="Ellipse_257-178" data-name="Ellipse 257" cx="6" cy="6" r="6" transform="translate(696 5567)" fill="#46445c"/>
        <circle id="Ellipse_257-179" data-name="Ellipse 257" cx="6" cy="6" r="6" transform="translate(720 5567)" fill="#46445c"/>
        <circle id="Ellipse_257-180" data-name="Ellipse 257" cx="6" cy="6" r="6" transform="translate(744 5567)" fill="#46445c"/>
        <circle id="Ellipse_257-181" data-name="Ellipse 257" cx="6" cy="6" r="6" transform="translate(768 5567)" fill="#46445c"/>
        <circle id="Ellipse_257-182" data-name="Ellipse 257" cx="6" cy="6" r="6" transform="translate(792 5567)" fill="#46445c"/>
        <circle id="Ellipse_257-183" data-name="Ellipse 257" cx="6" cy="6" r="6" transform="translate(816 5567)" fill="#46445c"/>
        <circle id="Ellipse_257-184" data-name="Ellipse 257" cx="6" cy="6" r="6" transform="translate(840 5567)" fill="#46445c"/>
        <circle id="Ellipse_257-185" data-name="Ellipse 257" cx="6" cy="6" r="6" transform="translate(864 5567)" fill="#46445c"/>
        <circle id="Ellipse_257-186" data-name="Ellipse 257" cx="6" cy="6" r="6" transform="translate(888 5567)" fill="#46445c"/>
        <circle id="Ellipse_257-187" data-name="Ellipse 257" cx="6" cy="6" r="6" transform="translate(912 5567)" fill="#46445c"/>
        <circle id="Ellipse_257-188" data-name="Ellipse 257" cx="6" cy="6" r="6" transform="translate(648 5591)" fill="#46445c"/>
        <circle id="Ellipse_257-189" data-name="Ellipse 257" cx="6" cy="6" r="6" transform="translate(672 5591)" fill="#46445c"/>
        <circle id="Ellipse_257-190" data-name="Ellipse 257" cx="6" cy="6" r="6" transform="translate(696 5591)" fill="#46445c"/>
        <circle id="Ellipse_257-191" data-name="Ellipse 257" cx="6" cy="6" r="6" transform="translate(720 5591)" fill="#46445c"/>
        <circle id="Ellipse_257-192" data-name="Ellipse 257" cx="6" cy="6" r="6" transform="translate(744 5591)" fill="#46445c"/>
        <circle id="Ellipse_257-193" data-name="Ellipse 257" cx="6" cy="6" r="6" transform="translate(768 5591)" fill="#46445c"/>
        <circle id="Ellipse_257-194" data-name="Ellipse 257" cx="6" cy="6" r="6" transform="translate(792 5591)" fill="#46445c"/>
        <circle id="Ellipse_257-195" data-name="Ellipse 257" cx="6" cy="6" r="6" transform="translate(816 5591)" fill="#46445c"/>
        <circle id="Ellipse_257-196" data-name="Ellipse 257" cx="6" cy="6" r="6" transform="translate(840 5591)" fill="#46445c"/>
        <circle id="Ellipse_257-197" data-name="Ellipse 257" cx="6" cy="6" r="6" transform="translate(864 5591)" fill="#46445c"/>
        <circle id="Ellipse_257-198" data-name="Ellipse 257" cx="6" cy="6" r="6" transform="translate(888 5591)" fill="#46445c"/>
        <circle id="Ellipse_257-199" data-name="Ellipse 257" cx="6" cy="6" r="6" transform="translate(912 5591)" fill="#46445c"/>
        <circle id="Ellipse_257-200" data-name="Ellipse 257" cx="6" cy="6" r="6" transform="translate(648 5615)" fill="#46445c"/>
        <circle id="Ellipse_257-201" data-name="Ellipse 257" cx="6" cy="6" r="6" transform="translate(672 5615)" fill="#46445c"/>
        <circle id="Ellipse_257-202" data-name="Ellipse 257" cx="6" cy="6" r="6" transform="translate(696 5615)" fill="#46445c"/>
        <circle id="Ellipse_257-203" data-name="Ellipse 257" cx="6" cy="6" r="6" transform="translate(720 5615)" fill="#46445c"/>
        <circle id="Ellipse_257-204" data-name="Ellipse 257" cx="6" cy="6" r="6" transform="translate(744 5615)" fill="#46445c"/>
        <circle id="Ellipse_257-205" data-name="Ellipse 257" cx="6" cy="6" r="6" transform="translate(768 5615)" fill="#46445c"/>
        <circle id="Ellipse_257-206" data-name="Ellipse 257" cx="6" cy="6" r="6" transform="translate(792 5615)" fill="#46445c"/>
        <circle id="Ellipse_257-207" data-name="Ellipse 257" cx="6" cy="6" r="6" transform="translate(816 5615)" fill="#46445c"/>
        <circle id="Ellipse_257-208" data-name="Ellipse 257" cx="6" cy="6" r="6" transform="translate(840 5615)" fill="#46445c"/>
        <circle id="Ellipse_257-209" data-name="Ellipse 257" cx="6" cy="6" r="6" transform="translate(864 5615)" fill="#46445c"/>
        <circle id="Ellipse_257-210" data-name="Ellipse 257" cx="6" cy="6" r="6" transform="translate(888 5615)" fill="#46445c"/>
        <circle id="Ellipse_257-211" data-name="Ellipse 257" cx="6" cy="6" r="6" transform="translate(912 5615)" fill="#46445c"/>
        <circle id="Ellipse_257-212" data-name="Ellipse 257" cx="6" cy="6" r="6" transform="translate(648 5639)" fill="#46445c"/>
        <circle id="Ellipse_257-213" data-name="Ellipse 257" cx="6" cy="6" r="6" transform="translate(672 5639)" fill="#46445c"/>
        <circle id="Ellipse_257-214" data-name="Ellipse 257" cx="6" cy="6" r="6" transform="translate(696 5639)" fill="#46445c"/>
        <circle id="Ellipse_257-215" data-name="Ellipse 257" cx="6" cy="6" r="6" transform="translate(720 5639)" fill="#46445c"/>
        <circle id="Ellipse_257-216" data-name="Ellipse 257" cx="6" cy="6" r="6" transform="translate(744 5639)" fill="#46445c"/>
        <circle id="Ellipse_257-217" data-name="Ellipse 257" cx="6" cy="6" r="6" transform="translate(768 5639)" fill="#46445c"/>
        <circle id="Ellipse_257-218" data-name="Ellipse 257" cx="6" cy="6" r="6" transform="translate(792 5639)" fill="#46445c"/>
        <circle id="Ellipse_257-219" data-name="Ellipse 257" cx="6" cy="6" r="6" transform="translate(816 5639)" fill="#46445c"/>
        <circle id="Ellipse_257-220" data-name="Ellipse 257" cx="6" cy="6" r="6" transform="translate(840 5639)" fill="#46445c"/>
        <circle id="Ellipse_257-221" data-name="Ellipse 257" cx="6" cy="6" r="6" transform="translate(864 5639)" fill="#46445c"/>
        <circle id="Ellipse_257-222" data-name="Ellipse 257" cx="6" cy="6" r="6" transform="translate(888 5639)" fill="#46445c"/>
        <circle id="Ellipse_257-223" data-name="Ellipse 257" cx="6" cy="6" r="6" transform="translate(912 5639)" fill="#46445c"/>
        <circle id="Ellipse_257-224" data-name="Ellipse 257" cx="6" cy="6" r="6" transform="translate(648 5663)" fill="#46445c"/>
        <circle id="Ellipse_257-225" data-name="Ellipse 257" cx="6" cy="6" r="6" transform="translate(672 5663)" fill="#46445c"/>
        <circle id="Ellipse_257-226" data-name="Ellipse 257" cx="6" cy="6" r="6" transform="translate(696 5663)" fill="#46445c"/>
        <circle id="Ellipse_257-227" data-name="Ellipse 257" cx="6" cy="6" r="6" transform="translate(720 5663)" fill="#46445c"/>
        <circle id="Ellipse_257-228" data-name="Ellipse 257" cx="6" cy="6" r="6" transform="translate(744 5663)" fill="#46445c"/>
        <circle id="Ellipse_257-229" data-name="Ellipse 257" cx="6" cy="6" r="6" transform="translate(768 5663)" fill="#46445c"/>
        <circle id="Ellipse_257-230" data-name="Ellipse 257" cx="6" cy="6" r="6" transform="translate(792 5663)" fill="#46445c"/>
        <circle id="Ellipse_257-231" data-name="Ellipse 257" cx="6" cy="6" r="6" transform="translate(816 5663)" fill="#46445c"/>
        <circle id="Ellipse_257-232" data-name="Ellipse 257" cx="6" cy="6" r="6" transform="translate(840 5663)" fill="#46445c"/>
        <circle id="Ellipse_257-233" data-name="Ellipse 257" cx="6" cy="6" r="6" transform="translate(864 5663)" fill="#46445c"/>
        <circle id="Ellipse_257-234" data-name="Ellipse 257" cx="6" cy="6" r="6" transform="translate(888 5663)" fill="#46445c"/>
        <circle id="Ellipse_257-235" data-name="Ellipse 257" cx="6" cy="6" r="6" transform="translate(912 5663)" fill="#46445c"/>
        <circle id="Ellipse_257-236" data-name="Ellipse 257" cx="6" cy="6" r="6" transform="translate(648 5687)" fill="#46445c"/>
        <circle id="Ellipse_257-237" data-name="Ellipse 257" cx="6" cy="6" r="6" transform="translate(672 5687)" fill="#46445c"/>
        <circle id="Ellipse_257-238" data-name="Ellipse 257" cx="6" cy="6" r="6" transform="translate(696 5687)" fill="#46445c"/>
        <circle id="Ellipse_257-239" data-name="Ellipse 257" cx="6" cy="6" r="6" transform="translate(720 5687)" fill="#46445c"/>
        <circle id="Ellipse_257-240" data-name="Ellipse 257" cx="6" cy="6" r="6" transform="translate(744 5687)" fill="#46445c"/>
        <circle id="Ellipse_257-241" data-name="Ellipse 257" cx="6" cy="6" r="6" transform="translate(768 5687)" fill="#46445c"/>
        <circle id="Ellipse_257-242" data-name="Ellipse 257" cx="6" cy="6" r="6" transform="translate(792 5687)" fill="#46445c"/>
        <circle id="Ellipse_257-243" data-name="Ellipse 257" cx="6" cy="6" r="6" transform="translate(816 5687)" fill="#46445c"/>
        <circle id="Ellipse_257-244" data-name="Ellipse 257" cx="6" cy="6" r="6" transform="translate(840 5687)" fill="#46445c"/>
        <circle id="Ellipse_257-245" data-name="Ellipse 257" cx="6" cy="6" r="6" transform="translate(864 5687)" fill="#46445c"/>
        <circle id="Ellipse_257-246" data-name="Ellipse 257" cx="6" cy="6" r="6" transform="translate(888 5687)" fill="#46445c"/>
        <circle id="Ellipse_257-247" data-name="Ellipse 257" cx="6" cy="6" r="6" transform="translate(912 5687)" fill="#46445c"/>
      </g>
    </g>
    <path id="path_2" data-name="path 2" d="M8,0,195.289.019,182.688,48s-15.889,65.642-72.2,107.017S0,196,0,196V8A8,8,0,0,1,8,0Z" transform="translate(7117 -2316)" fill="#46445c"/>
    <path id="path_1" data-name="path 1" d="M279.945,141.364,280,306a8,8,0,0,1-8,8H8a8,8,0,0,1-8-8V66.373Z" transform="translate(6747 -3580)" fill="#46445c"/>
  </g>
</svg>
