<?xml version="1.0" encoding="utf-8"?>
<svg xmlns="http://www.w3.org/2000/svg">
	<symbol id="facebook" viewBox="0 0 13 22">
	  <path d="M34.587-1,31.469-1C27.966-1,25.7,1.226,25.7,4.672V7.24H22.567a.48.48,0,0,0-.49.47V11.5a.48.48,0,0,0,.49.47H25.7V20.53a.48.48,0,0,0,.49.47h4.09a.48.48,0,0,0,.49-.47V11.969h3.666a.48.48,0,0,0,.49-.47V7.71a.461.461,0,0,0-.144-.332.5.5,0,0,0-.347-.138H30.773V5.07c0-1.066.265-1.606,1.713-1.606h2.1a.48.48,0,0,0,.49-.47V-.525A.481.481,0,0,0,34.587-1Z" transform="translate(-22.077 1)" />
	</symbol>
	<symbol id="linkedin" viewBox="0 0 20 20">
	  <g transform="translate(-1622.348 -960.284)">
	    <path id="Path_944" data-name="Path 944" d="M2.5.183A2.5,2.5,0,1,0,5,2.685,2.507,2.507,0,0,0,2.5.183Z" transform="translate(1622.348 960.101)" />
	    <path id="Path_945" data-name="Path 945" d="M8.246,83.531H4.49a.324.324,0,0,0-.324.324V95.946a.324.324,0,0,0,.324.324H8.246a.324.324,0,0,0,.324-.324V83.855A.324.324,0,0,0,8.246,83.531Z" transform="translate(1618.483 884.014)" />
	    <path id="Path_946" data-name="Path 946" d="M96.506,81.557a4.934,4.934,0,0,0-3.32,1.1v-.635a.324.324,0,0,0-.324-.324h-3.6a.324.324,0,0,0-.324.324V94.115a.324.324,0,0,0,.324.324h3.753a.324.324,0,0,0,.324-.324V88.132c0-1.716.316-2.78,1.891-2.78,1.552,0,1.668,1.143,1.668,2.883v5.88a.324.324,0,0,0,.324.324h3.755a.324.324,0,0,0,.324-.324V87.482C101.3,84.723,100.753,81.557,96.506,81.557Z" transform="translate(1541.051 885.846)" />
	  </g>
	</symbol>
	<symbol id="twitter" viewBox="0 0 20 17.391">
	  <path d="M19.94,31.591a.27.27,0,0,0-.292-.428A8.74,8.74,0,0,1,18,31.527a4.41,4.41,0,0,0,1.615-1.7.27.27,0,0,0-.357-.368,8.7,8.7,0,0,1-2.11.708,4.363,4.363,0,0,0-7.553,3,4.4,4.4,0,0,0,.114,1,12.357,12.357,0,0,1-8.389-3.889A.6.6,0,0,0,.3,30.515a4.41,4.41,0,0,0-.186,1.272,4.314,4.314,0,0,0,1.847,3.655A5.732,5.732,0,0,1,.81,35.228.638.638,0,0,0,.024,36a4.527,4.527,0,0,0,3.462,3.249,4,4,0,0,1-1.1.154h0a.5.5,0,0,0-.436.747,4.388,4.388,0,0,0,3.729,2.225A8.717,8.717,0,0,1,.26,44.256h0a.253.253,0,0,0-.119.476,12.408,12.408,0,0,0,18.2-11.057c0-.191,0-.379-.012-.568A8.9,8.9,0,0,0,19.94,31.591Z" transform="translate(-0.002 -28.776)" />
	</symbol>
	<symbol id="close" viewBox="0 0 28.284 28.284">
	  <path id="Add_Icon" data-name="Add Icon" d="M18.888,11.112H11.112v7.776a1.112,1.112,0,0,1-2.224,0V11.112H1.112a1.112,1.112,0,0,1,0-2.224H8.888V1.112a1.112,1.112,0,0,1,2.224,0V8.888h7.776a1.112,1.112,0,0,1,0,2.224Z" transform="translate(14.142) rotate(45)" />
	</symbol>
	<symbol id="arrow" viewBox="0 0 21 9.414">
	  <path id="next" d="M13.991,120.955c0-.014,0-.029-.007-.043s-.006-.025-.009-.038-.006-.024-.009-.037-.008-.024-.013-.037-.008-.024-.013-.036-.01-.022-.016-.034-.011-.024-.017-.036-.012-.021-.019-.032-.013-.023-.021-.034-.017-.023-.025-.034l-.021-.027c-.017-.02-.034-.039-.052-.058l-3.937-3.922A.786.786,0,0,0,8.718,117.7l2.593,2.583H-6.212a.786.786,0,0,0-.788.785.786.786,0,0,0,.788.784H11.311l-2.593,2.583a.786.786,0,0,0,1.114,1.109l3.937-3.922a.771.771,0,0,0,.052-.058l.021-.027c.008-.011.017-.022.025-.034s.014-.023.021-.034.013-.021.019-.032.012-.024.017-.036.011-.022.016-.034.009-.024.013-.036.009-.024.013-.037.006-.024.009-.037.007-.025.009-.038,0-.029.007-.043,0-.022,0-.033a.791.791,0,0,0,0-.155C14,120.977,13.993,120.966,13.991,120.955Z" transform="translate(7 -116.358)"/>
	</symbol>
	<symbol id="telegram" viewBox="0 0 35 35">
		<g id="send" transform="translate(-1582.793 -8270.5)">
	    <path id="Path_8743" data-name="Path 8743" d="M34.278.722a2.447,2.447,0,0,0-2.3-.656l-.011,0L4.481,6.8A5.865,5.865,0,0,0,0,12.505v3.627a2.464,2.464,0,0,0,2.355,2.459l10.339,1.76a.684.684,0,0,0,.6-.191l1.578-1.578a1.094,1.094,0,0,1,1.547,1.547l-1.578,1.578a.684.684,0,0,0-.191.6l1.76,10.339A2.464,2.464,0,0,0,18.867,35h3.627a5.865,5.865,0,0,0,5.71-4.481L34.932,3.033l0-.011a2.446,2.446,0,0,0-.656-2.3Z" transform="translate(1582.793 8270.5)" fill="#fff"/>
	    <path id="Path_8746" data-name="Path 8746" d="M0,0H12.35" transform="translate(1595.668 8292.583) rotate(-45)" fill="none" stroke="#e03852" stroke-linecap="round" stroke-width="3"/>
	  </g>
	<symbol id="phone" viewBox="0 0 18 26">
	  <g transform="translate(-0.149)">
	    <rect id="Rectangle_560" data-name="Rectangle 560" width="26" height="18" rx="2" transform="translate(0.149 26) rotate(-90)" fill="#b2b1bb"/>
	    <path id="Path_8730" data-name="Path 8730" d="M12171.379,7022.614h-4.335" transform="translate(-12160.197 -7000.448)" fill="none" stroke="#3f3d56" stroke-linecap="round" stroke-linejoin="round" stroke-width="3"/>
	  </g>
	</symbol>
	<symbol id="email" viewBox="0 0 27 19">
	  <g transform="translate(0)">
	    <rect id="Rectangle_560" data-name="Rectangle 560" width="27" height="19" rx="2" transform="translate(0)" fill="#b2b1bb"/>
	    <path id="Path_8728" data-name="Path 8728" d="M12166.9,7032.953l3.936,1.954,3.812-1.954" transform="translate(-12156.97 -7024.995)" fill="none" stroke="#3f3d56" stroke-linecap="round" stroke-linejoin="round" stroke-width="3"/>
	  </g>
	</symbol>
	<symbol id="phone-light" viewBox="0 0 18 26">
	  <g transform="translate(-0.149)">
	    <rect id="Rectangle_560" data-name="Rectangle 560" width="26" height="18" rx="2" transform="translate(0.149 26) rotate(-90)" fill="#b2b1bb"/>
	    <path id="Path_8730" data-name="Path 8730" d="M12171.379,7022.614h-4.335" transform="translate(-12160.197 -7000.448)" fill="none" stroke="#fff" stroke-linecap="round" stroke-linejoin="round" stroke-width="3"/>
	  </g>
	</symbol>
	<symbol id="email-light" viewBox="0 0 27 19">
	  <g transform="translate(0)">
	    <rect id="Rectangle_560" data-name="Rectangle 560" width="27" height="19" rx="2" transform="translate(0)" fill="#b2b1bb"/>
	    <path id="Path_8728" data-name="Path 8728" d="M12166.9,7032.953l3.936,1.954,3.812-1.954" transform="translate(-12156.97 -7024.995)" fill="none" stroke="#fff" stroke-linecap="round" stroke-linejoin="round" stroke-width="3"/>
	  </g>
	</symbol>
	<symbol id="bug" viewBox="0 0 43.955 46.015">
	  <g id="icon_4" data-name="icon 4" transform="translate(6.521 5.9)">
	    <path id="Union_30" data-name="Union 30" d="M33.275,37.061l7.679,5.112Zm-25.6,0L0,42.173Zm32-23L32,19.169Zm-38.394,0,7.678,5.112ZM26.876,0,24.316,5.112Zm-12.8,0L15.9,3.76Z" transform="translate(-5.021 -4.4)" fill="none" stroke="#7ba0ff" stroke-linecap="round" stroke-linejoin="round" stroke-width="3"/>
	    <path id="Union_29" data-name="Union 29" d="M15.078,39.115a15.282,15.282,0,0,1-10.661-4.25,14.1,14.1,0,0,1-2.061-18.05,14.947,14.947,0,0,1,6.121-5.259l1.883-.884L8.709,9.428A4.8,4.8,0,0,1,6.556,5.677,4.875,4.875,0,0,1,8.9,1.788,10.775,10.775,0,0,1,15.078,0a10.78,10.78,0,0,1,6.179,1.788A4.875,4.875,0,0,1,23.6,5.677a4.8,4.8,0,0,1-2.152,3.751L19.8,10.671l1.883.884a14.944,14.944,0,0,1,6.12,5.259,14.1,14.1,0,0,1-2.061,18.051A15.28,15.28,0,0,1,15.078,39.115Z" transform="translate(0 0)" fill="#7ba0ff" stroke="#7ba0ff" stroke-linecap="round" stroke-linejoin="round" stroke-width="2"/>
	    <line id="Line_100" data-name="Line 100" y1="8.522" transform="translate(15.483 22.736)" fill="none" stroke="#fff" stroke-linecap="round" stroke-width="2"/>
	  </g>
	</symbol>
	<symbol id="cloud" viewBox="0 0 50.786 39.218">
	  <g id="icon_3" data-name="icon 3" transform="translate(1 1)">
	    <path id="climate" d="M48.786,100.8c0,7.673-5.766,13.916-12.852,13.916h-25.7C4.59,114.718,0,109.749,0,103.64c0-6.006,4.437-10.912,9.949-11.074C7.88,84.844,12.75,77.5,22.731,77.5c7.508,0,12.219,4.663,12.219,9.589C42.854,85.615,48.786,93.715,48.786,100.8Z" transform="translate(0 -77.5)" fill="#16afa9" stroke="#45afa9" stroke-linecap="round" stroke-linejoin="round" stroke-width="2"/>
	    <path id="Path_8663" data-name="Path 8663" d="M1.214,5.075c7.71,0,8.453-6.044,8.453-6.044" transform="translate(31.375 25.742)" fill="none" stroke="#fff" stroke-linecap="round" stroke-width="3"/>
	  </g>
	</symbol>
	<symbol id="palette" viewBox="0 0 44.486 44.486">
	  <g id="icon_2" data-name="icon 2" transform="translate(1 1)">
	    <path id="Path_8666" data-name="Path 8666" d="M21.243,0a21.243,21.243,0,1,0,0,42.486,3.63,3.63,0,0,0,3.541-3.541,3.03,3.03,0,0,0-.944-2.36,4.194,4.194,0,0,1-.944-2.36,3.63,3.63,0,0,1,3.541-3.541h4.249a11.687,11.687,0,0,0,11.8-11.8C42.486,8.5,33.045,0,21.243,0Z" fill="#c843c1" stroke="#c843c1" stroke-width="2"/>
	    <path id="Path_8667" data-name="Path 8667" d="M0,6.909S5.992,6.626,9.61,0" transform="translate(15.222 24.836) rotate(85)" fill="none" stroke="#fff" stroke-linecap="round" stroke-width="3"/>
	  </g>
	</symbol>
	<symbol id="pc" viewBox="0 0 35 44">
	  <g id="icon_1" data-name="icon 1" transform="translate(0.059 0.141)">
	    <rect id="Rectangle_560" data-name="Rectangle 560" width="35" height="44" rx="4" transform="translate(-0.059 -0.141)" fill="#df3851"/>
	    <line id="Line_104" data-name="Line 104" x1="12.117" transform="translate(8.088 26.899)" fill="none" stroke="#fff" stroke-linecap="round" stroke-width="3"/>
	  </g>
	</symbol>
	<symbol id="spaceship" viewBox="0 0 35.163 42.206">
	  <g id="Path_8659" data-name="Path 8659" fill="#90289a" stroke-linecap="round" stroke-linejoin="round">
	    <path d="M 24.14555549621582 41.01627731323242 L 11.35564613342285 41.01627731323242 C 11.29606533050537 41.01627731323242 11.2659158706665 41.00679016113281 11.26004600524902 41.00346755981445 C 11.26004981994629 41.00347137451172 11.26005268096924 41.00347518920898 11.26005458831787 41.00347518920898 C 11.26026821136475 41.00347518920898 11.23201560974121 40.97406005859375 11.23201560974121 40.97406005859375 L 11.17945575714111 40.78717803955078 L 9.707365989685059 37.00704956054688 L 9.253496170043945 35.84154891967773 L 8.216465950012207 36.54080963134766 L 1.670251965522766 40.95487976074219 L 1.040535807609558 33.3319206237793 L 1.030275821685791 33.20772933959961 L 1.001729488372803 33.12449645996094 C 0.9920133948326111 33.06193161010742 0.997417151927948 32.92094421386719 1.177625775337219 32.75153732299805 L 1.185025811195374 32.74457931518555 L 1.192285776138306 32.73748016357422 L 5.834125995635986 28.19279861450195 L 6.263145923614502 27.77274894714355 L 6.09406566619873 27.19662857055664 C 6.089095592498779 27.17958831787109 5.571115970611572 25.3830680847168 5.316926002502441 22.71587944030762 C 5.084455966949463 20.27660942077637 5.030945777893066 16.58441925048828 6.096235752105713 12.84709930419922 C 6.560795783996582 11.21726894378662 7.405605792999268 9.595369338989258 8.607175827026367 8.026458740234375 C 9.637246131896973 6.681478977203369 10.90255546569824 5.404698848724365 12.36795616149902 4.231568813323975 C 15.2038459777832 1.961279034614563 17.62795639038086 0.9999989867210388 18.11467552185059 0.9999989867210388 C 18.58064651489258 1.006718993186951 20.86525535583496 2.018528938293457 23.75212669372559 4.483179092407227 C 25.52369499206543 5.995648860931396 28.64544486999512 9.058399200439453 29.64849662780762 12.57740879058838 C 31.13472557067871 17.79151916503906 30.36176490783691 21.53938865661621 29.6142463684082 25.16385841369629 C 29.46262550354004 25.89901924133301 29.31941604614258 26.59341812133789 29.1936149597168 27.30390930175781 L 29.10257530212402 27.81812858581543 L 29.4725456237793 28.18669891357422 L 33.89148712158203 32.58889770507813 L 33.9620246887207 32.6591682434082 L 33.99408721923828 32.67901229858398 C 34.07022857666016 32.74641418457031 34.20996856689453 32.90760040283203 34.14368438720703 33.14012908935547 L 34.11808395385742 33.22995758056641 L 34.10955429077148 33.32297897338867 L 33.41825866699219 40.86539077758789 L 27.72534561157227 36.57155990600586 L 26.7427864074707 35.83046722412109 L 26.21846580505371 36.94389724731445 L 24.43839645385742 40.72402954101563 L 24.4140453338623 40.77573776245117 L 24.41260147094727 40.78151321411133 C 24.38712692260742 40.8323974609375 24.28535842895508 41.01627731323242 24.14555549621582 41.01627731323242 Z" stroke="none"/>
	    <path d="M 18.09571266174316 2.015163421630859 C 17.41064262390137 2.179359436035156 15.18263244628906 3.209583282470703 12.75189590454102 5.207740783691406 C 10.70334625244141 6.891727447509766 8.052606582641602 9.631610870361328 7.057926177978516 13.12122917175293 C 6.040485382080078 16.69065856933594 6.088436126708984 20.23100852966309 6.307825088500977 22.57245826721191 C 6.550016403198242 25.1573486328125 7.049505233764648 26.90090942382813 7.053585052490234 26.91501998901367 C 7.261726379394531 27.62416839599609 7.061805725097656 28.39029884338379 6.533716201782227 28.90733909606934 L 2.041736602783203 33.30529403686523 L 2.526332855224609 39.17153167724609 L 7.65739631652832 35.71168899536133 C 7.991569519042969 35.48635864257813 8.381591796875 35.36991882324219 8.775646209716797 35.36991882324219 C 8.975811004638672 35.36991882324219 9.177066802978516 35.39998245239258 9.372465133666992 35.46109008789063 C 9.952545166015625 35.64249038696289 10.41865539550781 36.07781982421875 10.63920593261719 36.64415740966797 L 11.95240592956543 40.01627731323242 L 23.66634750366211 40.01627731323242 L 25.31375503540039 36.51786804199219 C 25.57032585144043 35.97301864624023 26.05875587463379 35.57278823852539 26.6434154510498 35.42832946777344 C 26.80195999145508 35.38915252685547 26.96299362182617 35.36991500854492 27.12310981750488 35.36991500854492 C 27.55343818664551 35.36991500854492 27.97708129882813 35.50888061523438 28.32750511169434 35.77318954467773 L 32.58637237548828 38.98540496826172 L 33.11373519897461 33.23169708251953 C 33.11390686035156 33.22985076904297 33.11407852172852 33.22800445556641 33.11425018310547 33.22615432739258 L 28.76677513122559 28.89513778686523 C 28.30319595336914 28.43330764770508 28.09485626220703 27.7739086151123 28.20893478393555 27.12955856323242 C 28.33718490600586 26.40520858764648 28.48851585388184 25.67145919799805 28.63486480712891 24.96186828613281 C 29.35801696777344 21.45549964904785 30.10579681396484 17.82974815368652 28.68680572509766 12.85152816772461 C 28.02004623413086 10.51235961914063 26.12720489501953 7.888538360595703 23.35697555541992 5.463420867919922 C 22.26166534423828 4.504570007324219 21.05148696899414 3.607460021972656 19.94934463500977 2.937339782714844 C 18.95762252807617 2.334365844726563 18.34152793884277 2.087661743164063 18.09571266174316 2.015163421630859 M 18.11467552185059 0 C 20.02600479125977 0 28.75138473510742 5.782070159912109 30.61019515991211 12.30328941345215 C 32.4690055847168 18.82450866699219 30.92915534973145 23.23745918273926 30.17830657958984 27.47824859619141 L 34.59723663330078 31.88044929504395 C 34.59723663330078 31.88044929504395 35.37754440307617 32.45942687988281 35.10538482666016 33.41424942016602 L 34.36472702026367 41.4951171875 C 34.36472702026367 41.4951171875 34.20937728881836 42.18313980102539 33.50469589233398 42.18313980102539 L 27.12317657470703 37.36993026733398 L 25.34310531616211 41.15005874633789 C 25.34310531616211 41.15005874633789 25.00645446777344 42.01627731323242 24.14555549621582 42.01627731323242 L 11.35564613342285 42.01627731323242 C 10.40249633789063 42.01627731323242 10.24762535095215 41.15005874633789 10.24762535095215 41.15005874633789 L 8.775535583496094 37.36993026733398 L 1.603984832763672 42.20565795898438 C 0.7432441711425781 42.20565795898438 0.7299461364746094 41.71878814697266 0.7299461364746094 41.71878814697266 L 0.04392623901367188 33.41424942016602 C 0.04392623901367188 33.41424942016602 -0.2074928283691406 32.68113708496094 0.4926948547363281 32.02293014526367 L 5.13453483581543 27.47824859619141 C 5.13453483581543 27.47824859619141 2.97918701171875 20.13451957702637 5.13453483581543 12.57297897338867 C 7.289875030517578 5.011428833007813 16.2750358581543 0 18.11467552185059 0 Z" stroke="none" fill="#90289a"/>
	  </g>
	  <path id="Path_8672" data-name="Path 8672" d="M2.153,9.294S3.559,3.967.959.063" transform="translate(21.108 11.947)" fill="#90289a" stroke="#fff" stroke-linecap="round" stroke-width="3"/>
	</symbol>
	<symbol id="star" viewBox="0 0 46.67 44.885">
	  <g id="icon_6" data-name="icon 6" transform="translate(0.102 0.111)">
	    <path id="Path_8653" data-name="Path 8653" d="M42.716,19.947l-10.041-2.31L27.415,8.9l-.033-.05a4.824,4.824,0,0,0-8.289-.055l-5.305,8.842-10,2.315H3.741l-.111.033a4.819,4.819,0,0,0-2.454,7.825L7.93,35.586,7.023,45.893a1.1,1.1,0,0,0,0,.193A4.716,4.716,0,0,0,7.4,48.158l.005.013a4.808,4.808,0,0,0,6.3,2.557l9.5-4.029,9.118,3.868A4.9,4.9,0,0,0,35,51.12a4.846,4.846,0,0,0,4.421-5.2v-.044l-.906-10.3,6.631-7.621a4.83,4.83,0,0,0-2.431-8.013Z" transform="translate(0 -6.462)" fill="#f7b132" stroke="#f6a507" stroke-width="0.2"/>
	    <path id="Path_8668" data-name="Path 8668" d="M.878,0,0,7.726" transform="translate(32.176 36.126) rotate(168)" fill="none" stroke="#fff" stroke-linecap="round" stroke-linejoin="round" stroke-width="2"/>
	  </g>
	</symbol>
</svg>
