<svg xmlns="http://www.w3.org/2000/svg" xmlns:xlink="http://www.w3.org/1999/xlink" width="5367.05" height="2803.117" viewBox="0 0 5367.05 2803.117">
  <defs>
    <filter id="Path_8855" x="0" y="0" width="5367.05" height="2803.117" filterUnits="userSpaceOnUse">
      <feOffset dy="10" input="SourceAlpha"/>
      <feGaussianBlur stdDeviation="40" result="blur"/>
      <feFlood flood-color="#7699fc" flood-opacity="0.051"/>
      <feComposite operator="in" in2="blur"/>
      <feComposite in="SourceGraphic"/>
    </filter>
  </defs>
  <g id="Group_1457" data-name="Group 1457" transform="translate(5376.703 5947.569)">
    <g transform="matrix(1, 0, 0, 1, -5376.7, -5947.57)" filter="url(#Path_8855)">
      <path id="Path_8855-2" data-name="Path 8855" d="M980.548,0H2107.071c110.457,0,200,89.543,200,200V4952.472Z" transform="translate(5500.83 444.66) rotate(105)" fill="#fff"/>
    </g>
    <g id="dots_1" data-name="dots 1" transform="translate(-1862 -4555)">
      <circle id="Ellipse_257" data-name="Ellipse 257" cx="6" cy="6" r="6" transform="translate(963 835)" fill="#edf2f9"/>
      <circle id="Ellipse_257-2" data-name="Ellipse 257" cx="6" cy="6" r="6" transform="translate(987 835)" fill="#edf2f9"/>
      <circle id="Ellipse_257-3" data-name="Ellipse 257" cx="6" cy="6" r="6" transform="translate(1011 835)" fill="#edf2f9"/>
      <circle id="Ellipse_257-4" data-name="Ellipse 257" cx="6" cy="6" r="6" transform="translate(1035 835)" fill="#edf2f9"/>
      <circle id="Ellipse_257-5" data-name="Ellipse 257" cx="6" cy="6" r="6" transform="translate(1059 835)" fill="#edf2f9"/>
      <circle id="Ellipse_257-6" data-name="Ellipse 257" cx="6" cy="6" r="6" transform="translate(1083 835)" fill="#edf2f9"/>
      <circle id="Ellipse_257-7" data-name="Ellipse 257" cx="6" cy="6" r="6" transform="translate(1107 835)" fill="#edf2f9"/>
      <circle id="Ellipse_257-8" data-name="Ellipse 257" cx="6" cy="6" r="6" transform="translate(1131 835)" fill="#edf2f9"/>
      <circle id="Ellipse_257-9" data-name="Ellipse 257" cx="6" cy="6" r="6" transform="translate(1155 835)" fill="#edf2f9"/>
      <circle id="Ellipse_257-10" data-name="Ellipse 257" cx="6" cy="6" r="6" transform="translate(1179 835)" fill="#edf2f9"/>
      <circle id="Ellipse_257-11" data-name="Ellipse 257" cx="6" cy="6" r="6" transform="translate(1203 835)" fill="#edf2f9"/>
      <circle id="Ellipse_257-12" data-name="Ellipse 257" cx="6" cy="6" r="6" transform="translate(1227 835)" fill="#edf2f9"/>
      <circle id="Ellipse_257-13" data-name="Ellipse 257" cx="6" cy="6" r="6" transform="translate(1251 835)" fill="#edf2f9"/>
      <circle id="Ellipse_257-14" data-name="Ellipse 257" cx="6" cy="6" r="6" transform="translate(1275 835)" fill="#edf2f9"/>
      <circle id="Ellipse_257-15" data-name="Ellipse 257" cx="6" cy="6" r="6" transform="translate(1299 835)" fill="#edf2f9"/>
      <circle id="Ellipse_257-16" data-name="Ellipse 257" cx="6" cy="6" r="6" transform="translate(1323 835)" fill="#edf2f9"/>
      <circle id="Ellipse_257-17" data-name="Ellipse 257" cx="6" cy="6" r="6" transform="translate(1347 835)" fill="#edf2f9"/>
      <circle id="Ellipse_257-18" data-name="Ellipse 257" cx="6" cy="6" r="6" transform="translate(1371 835)" fill="#edf2f9"/>
      <circle id="Ellipse_257-19" data-name="Ellipse 257" cx="6" cy="6" r="6" transform="translate(1395 835)" fill="#edf2f9"/>
      <circle id="Ellipse_257-20" data-name="Ellipse 257" cx="6" cy="6" r="6" transform="translate(1419 835)" fill="#edf2f9"/>
      <circle id="Ellipse_257-21" data-name="Ellipse 257" cx="6" cy="6" r="6" transform="translate(1443 835)" fill="#edf2f9"/>
      <circle id="Ellipse_257-22" data-name="Ellipse 257" cx="6" cy="6" r="6" transform="translate(1467 835)" fill="#edf2f9"/>
      <circle id="Ellipse_257-23" data-name="Ellipse 257" cx="6" cy="6" r="6" transform="translate(1491 835)" fill="#edf2f9"/>
      <circle id="Ellipse_257-24" data-name="Ellipse 257" cx="6" cy="6" r="6" transform="translate(963 859)" fill="#edf2f9"/>
      <circle id="Ellipse_257-25" data-name="Ellipse 257" cx="6" cy="6" r="6" transform="translate(987 859)" fill="#edf2f9"/>
      <circle id="Ellipse_257-26" data-name="Ellipse 257" cx="6" cy="6" r="6" transform="translate(1011 859)" fill="#edf2f9"/>
      <circle id="Ellipse_257-27" data-name="Ellipse 257" cx="6" cy="6" r="6" transform="translate(1035 859)" fill="#edf2f9"/>
      <circle id="Ellipse_257-28" data-name="Ellipse 257" cx="6" cy="6" r="6" transform="translate(1059 859)" fill="#edf2f9"/>
      <circle id="Ellipse_257-29" data-name="Ellipse 257" cx="6" cy="6" r="6" transform="translate(1083 859)" fill="#edf2f9"/>
      <circle id="Ellipse_257-30" data-name="Ellipse 257" cx="6" cy="6" r="6" transform="translate(1107 859)" fill="#edf2f9"/>
      <circle id="Ellipse_257-31" data-name="Ellipse 257" cx="6" cy="6" r="6" transform="translate(1131 859)" fill="#edf2f9"/>
      <circle id="Ellipse_257-32" data-name="Ellipse 257" cx="6" cy="6" r="6" transform="translate(1155 859)" fill="#edf2f9"/>
      <circle id="Ellipse_257-33" data-name="Ellipse 257" cx="6" cy="6" r="6" transform="translate(1179 859)" fill="#edf2f9"/>
      <circle id="Ellipse_257-34" data-name="Ellipse 257" cx="6" cy="6" r="6" transform="translate(1203 859)" fill="#edf2f9"/>
      <circle id="Ellipse_257-35" data-name="Ellipse 257" cx="6" cy="6" r="6" transform="translate(1227 859)" fill="#edf2f9"/>
      <circle id="Ellipse_257-36" data-name="Ellipse 257" cx="6" cy="6" r="6" transform="translate(1251 859)" fill="#edf2f9"/>
      <circle id="Ellipse_257-37" data-name="Ellipse 257" cx="6" cy="6" r="6" transform="translate(1275 859)" fill="#edf2f9"/>
      <circle id="Ellipse_257-38" data-name="Ellipse 257" cx="6" cy="6" r="6" transform="translate(1299 859)" fill="#edf2f9"/>
      <circle id="Ellipse_257-39" data-name="Ellipse 257" cx="6" cy="6" r="6" transform="translate(1323 859)" fill="#edf2f9"/>
      <circle id="Ellipse_257-40" data-name="Ellipse 257" cx="6" cy="6" r="6" transform="translate(1347 859)" fill="#edf2f9"/>
      <circle id="Ellipse_257-41" data-name="Ellipse 257" cx="6" cy="6" r="6" transform="translate(1371 859)" fill="#edf2f9"/>
      <circle id="Ellipse_257-42" data-name="Ellipse 257" cx="6" cy="6" r="6" transform="translate(1395 859)" fill="#edf2f9"/>
      <circle id="Ellipse_257-43" data-name="Ellipse 257" cx="6" cy="6" r="6" transform="translate(1419 859)" fill="#edf2f9"/>
      <circle id="Ellipse_257-44" data-name="Ellipse 257" cx="6" cy="6" r="6" transform="translate(1443 859)" fill="#edf2f9"/>
      <circle id="Ellipse_257-45" data-name="Ellipse 257" cx="6" cy="6" r="6" transform="translate(1467 859)" fill="#edf2f9"/>
      <path id="Path_8632" data-name="Path 8632" d="M6,0a5.484,5.484,0,0,1,4.308,2.093L7.76,11.676A4.4,4.4,0,0,1,6,12,6,6,0,0,1,6,0Z" transform="translate(1491 859)" fill="#edf2f9"/>
      <circle id="Ellipse_257-46" data-name="Ellipse 257" cx="6" cy="6" r="6" transform="translate(963 883)" fill="#edf2f9"/>
      <circle id="Ellipse_257-47" data-name="Ellipse 257" cx="6" cy="6" r="6" transform="translate(987 883)" fill="#edf2f9"/>
      <circle id="Ellipse_257-48" data-name="Ellipse 257" cx="6" cy="6" r="6" transform="translate(1011 883)" fill="#edf2f9"/>
      <circle id="Ellipse_257-49" data-name="Ellipse 257" cx="6" cy="6" r="6" transform="translate(1035 883)" fill="#edf2f9"/>
      <circle id="Ellipse_257-50" data-name="Ellipse 257" cx="6" cy="6" r="6" transform="translate(1059 883)" fill="#edf2f9"/>
      <circle id="Ellipse_257-51" data-name="Ellipse 257" cx="6" cy="6" r="6" transform="translate(1083 883)" fill="#edf2f9"/>
      <circle id="Ellipse_257-52" data-name="Ellipse 257" cx="6" cy="6" r="6" transform="translate(1107 883)" fill="#edf2f9"/>
      <circle id="Ellipse_257-53" data-name="Ellipse 257" cx="6" cy="6" r="6" transform="translate(1131 883)" fill="#edf2f9"/>
      <circle id="Ellipse_257-54" data-name="Ellipse 257" cx="6" cy="6" r="6" transform="translate(1155 883)" fill="#edf2f9"/>
      <circle id="Ellipse_257-55" data-name="Ellipse 257" cx="6" cy="6" r="6" transform="translate(1179 883)" fill="#edf2f9"/>
      <circle id="Ellipse_257-56" data-name="Ellipse 257" cx="6" cy="6" r="6" transform="translate(1203 883)" fill="#edf2f9"/>
      <circle id="Ellipse_257-57" data-name="Ellipse 257" cx="6" cy="6" r="6" transform="translate(1227 883)" fill="#edf2f9"/>
      <circle id="Ellipse_257-58" data-name="Ellipse 257" cx="6" cy="6" r="6" transform="translate(1251 883)" fill="#edf2f9"/>
      <circle id="Ellipse_257-59" data-name="Ellipse 257" cx="6" cy="6" r="6" transform="translate(1275 883)" fill="#edf2f9"/>
      <circle id="Ellipse_257-60" data-name="Ellipse 257" cx="6" cy="6" r="6" transform="translate(1299 883)" fill="#edf2f9"/>
      <circle id="Ellipse_257-61" data-name="Ellipse 257" cx="6" cy="6" r="6" transform="translate(1323 883)" fill="#edf2f9"/>
      <circle id="Ellipse_257-62" data-name="Ellipse 257" cx="6" cy="6" r="6" transform="translate(1347 883)" fill="#edf2f9"/>
      <circle id="Ellipse_257-63" data-name="Ellipse 257" cx="6" cy="6" r="6" transform="translate(1371 883)" fill="#edf2f9"/>
      <circle id="Ellipse_257-64" data-name="Ellipse 257" cx="6" cy="6" r="6" transform="translate(1395 883)" fill="#edf2f9"/>
      <circle id="Ellipse_257-65" data-name="Ellipse 257" cx="6" cy="6" r="6" transform="translate(1419 883)" fill="#edf2f9"/>
      <circle id="Ellipse_257-66" data-name="Ellipse 257" cx="6" cy="6" r="6" transform="translate(1443 883)" fill="#edf2f9"/>
      <circle id="Ellipse_257-67" data-name="Ellipse 257" cx="6" cy="6" r="6" transform="translate(1467 883)" fill="#edf2f9"/>
      <circle id="Ellipse_257-68" data-name="Ellipse 257" cx="6" cy="6" r="6" transform="translate(963 907)" fill="#edf2f9"/>
      <circle id="Ellipse_257-69" data-name="Ellipse 257" cx="6" cy="6" r="6" transform="translate(987 907)" fill="#edf2f9"/>
      <circle id="Ellipse_257-70" data-name="Ellipse 257" cx="6" cy="6" r="6" transform="translate(1011 907)" fill="#edf2f9"/>
      <circle id="Ellipse_257-71" data-name="Ellipse 257" cx="6" cy="6" r="6" transform="translate(1035 907)" fill="#edf2f9"/>
      <circle id="Ellipse_257-72" data-name="Ellipse 257" cx="6" cy="6" r="6" transform="translate(1059 907)" fill="#edf2f9"/>
      <circle id="Ellipse_257-73" data-name="Ellipse 257" cx="6" cy="6" r="6" transform="translate(1083 907)" fill="#edf2f9"/>
      <circle id="Ellipse_257-74" data-name="Ellipse 257" cx="6" cy="6" r="6" transform="translate(1107 907)" fill="#edf2f9"/>
      <circle id="Ellipse_257-75" data-name="Ellipse 257" cx="6" cy="6" r="6" transform="translate(1131 907)" fill="#edf2f9"/>
      <circle id="Ellipse_257-76" data-name="Ellipse 257" cx="6" cy="6" r="6" transform="translate(1155 907)" fill="#edf2f9"/>
      <circle id="Ellipse_257-77" data-name="Ellipse 257" cx="6" cy="6" r="6" transform="translate(1179 907)" fill="#edf2f9"/>
      <circle id="Ellipse_257-78" data-name="Ellipse 257" cx="6" cy="6" r="6" transform="translate(1203 907)" fill="#edf2f9"/>
      <circle id="Ellipse_257-79" data-name="Ellipse 257" cx="6" cy="6" r="6" transform="translate(1227 907)" fill="#edf2f9"/>
      <circle id="Ellipse_257-80" data-name="Ellipse 257" cx="6" cy="6" r="6" transform="translate(1251 907)" fill="#edf2f9"/>
      <circle id="Ellipse_257-81" data-name="Ellipse 257" cx="6" cy="6" r="6" transform="translate(1275 907)" fill="#edf2f9"/>
      <circle id="Ellipse_257-82" data-name="Ellipse 257" cx="6" cy="6" r="6" transform="translate(1299 907)" fill="#edf2f9"/>
      <circle id="Ellipse_257-83" data-name="Ellipse 257" cx="6" cy="6" r="6" transform="translate(1323 907)" fill="#edf2f9"/>
      <circle id="Ellipse_257-84" data-name="Ellipse 257" cx="6" cy="6" r="6" transform="translate(1347 907)" fill="#edf2f9"/>
      <circle id="Ellipse_257-85" data-name="Ellipse 257" cx="6" cy="6" r="6" transform="translate(1371 907)" fill="#edf2f9"/>
      <circle id="Ellipse_257-86" data-name="Ellipse 257" cx="6" cy="6" r="6" transform="translate(1395 907)" fill="#edf2f9"/>
      <circle id="Ellipse_257-87" data-name="Ellipse 257" cx="6" cy="6" r="6" transform="translate(1419 907)" fill="#edf2f9"/>
      <circle id="Ellipse_257-88" data-name="Ellipse 257" cx="6" cy="6" r="6" transform="translate(1443 907)" fill="#edf2f9"/>
      <circle id="Ellipse_257-89" data-name="Ellipse 257" cx="6" cy="6" r="6" transform="translate(1467 907)" fill="#edf2f9"/>
      <circle id="Ellipse_257-90" data-name="Ellipse 257" cx="6" cy="6" r="6" transform="translate(963 931)" fill="#edf2f9"/>
      <circle id="Ellipse_257-91" data-name="Ellipse 257" cx="6" cy="6" r="6" transform="translate(987 931)" fill="#edf2f9"/>
      <circle id="Ellipse_257-92" data-name="Ellipse 257" cx="6" cy="6" r="6" transform="translate(1011 931)" fill="#edf2f9"/>
      <circle id="Ellipse_257-93" data-name="Ellipse 257" cx="6" cy="6" r="6" transform="translate(1035 931)" fill="#edf2f9"/>
      <circle id="Ellipse_257-94" data-name="Ellipse 257" cx="6" cy="6" r="6" transform="translate(1059 931)" fill="#edf2f9"/>
      <circle id="Ellipse_257-95" data-name="Ellipse 257" cx="6" cy="6" r="6" transform="translate(1083 931)" fill="#edf2f9"/>
      <circle id="Ellipse_257-96" data-name="Ellipse 257" cx="6" cy="6" r="6" transform="translate(1107 931)" fill="#edf2f9"/>
      <circle id="Ellipse_257-97" data-name="Ellipse 257" cx="6" cy="6" r="6" transform="translate(1131 931)" fill="#edf2f9"/>
      <circle id="Ellipse_257-98" data-name="Ellipse 257" cx="6" cy="6" r="6" transform="translate(1155 931)" fill="#edf2f9"/>
      <circle id="Ellipse_257-99" data-name="Ellipse 257" cx="6" cy="6" r="6" transform="translate(1179 931)" fill="#edf2f9"/>
      <circle id="Ellipse_257-100" data-name="Ellipse 257" cx="6" cy="6" r="6" transform="translate(1203 931)" fill="#edf2f9"/>
      <circle id="Ellipse_257-101" data-name="Ellipse 257" cx="6" cy="6" r="6" transform="translate(1227 931)" fill="#edf2f9"/>
      <circle id="Ellipse_257-102" data-name="Ellipse 257" cx="6" cy="6" r="6" transform="translate(1251 931)" fill="#edf2f9"/>
      <circle id="Ellipse_257-103" data-name="Ellipse 257" cx="6" cy="6" r="6" transform="translate(1275 931)" fill="#edf2f9"/>
      <circle id="Ellipse_257-104" data-name="Ellipse 257" cx="6" cy="6" r="6" transform="translate(1299 931)" fill="#edf2f9"/>
      <circle id="Ellipse_257-105" data-name="Ellipse 257" cx="6" cy="6" r="6" transform="translate(1323 931)" fill="#edf2f9"/>
      <circle id="Ellipse_257-106" data-name="Ellipse 257" cx="6" cy="6" r="6" transform="translate(1347 931)" fill="#edf2f9"/>
      <circle id="Ellipse_257-107" data-name="Ellipse 257" cx="6" cy="6" r="6" transform="translate(1371 931)" fill="#edf2f9"/>
      <circle id="Ellipse_257-108" data-name="Ellipse 257" cx="6" cy="6" r="6" transform="translate(1395 931)" fill="#edf2f9"/>
      <circle id="Ellipse_257-109" data-name="Ellipse 257" cx="6" cy="6" r="6" transform="translate(1419 931)" fill="#edf2f9"/>
      <circle id="Ellipse_257-110" data-name="Ellipse 257" cx="6" cy="6" r="6" transform="translate(1443 931)" fill="#edf2f9"/>
      <circle id="Ellipse_257-111" data-name="Ellipse 257" cx="6" cy="6" r="6" transform="translate(1467 931)" fill="#edf2f9"/>
      <circle id="Ellipse_257-112" data-name="Ellipse 257" cx="6" cy="6" r="6" transform="translate(963 955)" fill="#edf2f9"/>
      <circle id="Ellipse_257-113" data-name="Ellipse 257" cx="6" cy="6" r="6" transform="translate(987 955)" fill="#edf2f9"/>
      <circle id="Ellipse_257-114" data-name="Ellipse 257" cx="6" cy="6" r="6" transform="translate(1011 955)" fill="#edf2f9"/>
      <circle id="Ellipse_257-115" data-name="Ellipse 257" cx="6" cy="6" r="6" transform="translate(1035 955)" fill="#edf2f9"/>
      <circle id="Ellipse_257-116" data-name="Ellipse 257" cx="6" cy="6" r="6" transform="translate(1059 955)" fill="#edf2f9"/>
      <circle id="Ellipse_257-117" data-name="Ellipse 257" cx="6" cy="6" r="6" transform="translate(1083 955)" fill="#edf2f9"/>
      <circle id="Ellipse_257-118" data-name="Ellipse 257" cx="6" cy="6" r="6" transform="translate(1107 955)" fill="#edf2f9"/>
      <circle id="Ellipse_257-119" data-name="Ellipse 257" cx="6" cy="6" r="6" transform="translate(1131 955)" fill="#edf2f9"/>
      <circle id="Ellipse_257-120" data-name="Ellipse 257" cx="6" cy="6" r="6" transform="translate(1155 955)" fill="#edf2f9"/>
      <circle id="Ellipse_257-121" data-name="Ellipse 257" cx="6" cy="6" r="6" transform="translate(1179 955)" fill="#edf2f9"/>
      <circle id="Ellipse_257-122" data-name="Ellipse 257" cx="6" cy="6" r="6" transform="translate(1203 955)" fill="#edf2f9"/>
      <circle id="Ellipse_257-123" data-name="Ellipse 257" cx="6" cy="6" r="6" transform="translate(1227 955)" fill="#edf2f9"/>
      <circle id="Ellipse_257-124" data-name="Ellipse 257" cx="6" cy="6" r="6" transform="translate(1251 955)" fill="#edf2f9"/>
      <circle id="Ellipse_257-125" data-name="Ellipse 257" cx="6" cy="6" r="6" transform="translate(1275 955)" fill="#edf2f9"/>
      <circle id="Ellipse_257-126" data-name="Ellipse 257" cx="6" cy="6" r="6" transform="translate(1299 955)" fill="#edf2f9"/>
      <circle id="Ellipse_257-127" data-name="Ellipse 257" cx="6" cy="6" r="6" transform="translate(1323 955)" fill="#edf2f9"/>
      <circle id="Ellipse_257-128" data-name="Ellipse 257" cx="6" cy="6" r="6" transform="translate(1347 955)" fill="#edf2f9"/>
      <circle id="Ellipse_257-129" data-name="Ellipse 257" cx="6" cy="6" r="6" transform="translate(1371 955)" fill="#edf2f9"/>
      <circle id="Ellipse_257-130" data-name="Ellipse 257" cx="6" cy="6" r="6" transform="translate(1395 955)" fill="#edf2f9"/>
      <circle id="Ellipse_257-131" data-name="Ellipse 257" cx="6" cy="6" r="6" transform="translate(1419 955)" fill="#edf2f9"/>
      <circle id="Ellipse_257-132" data-name="Ellipse 257" cx="6" cy="6" r="6" transform="translate(1443 955)" fill="#edf2f9"/>
      <path id="Path_8631" data-name="Path 8631" d="M6,0A5.745,5.745,0,0,1,8.935.762L5.942,11.914A5.879,5.879,0,0,1,0,6,6,6,0,0,1,6,0Z" transform="translate(1467 955)" fill="#edf2f9"/>
      <circle id="Ellipse_257-133" data-name="Ellipse 257" cx="6" cy="6" r="6" transform="translate(963 979)" fill="#edf2f9"/>
      <circle id="Ellipse_257-134" data-name="Ellipse 257" cx="6" cy="6" r="6" transform="translate(987 979)" fill="#edf2f9"/>
      <circle id="Ellipse_257-135" data-name="Ellipse 257" cx="6" cy="6" r="6" transform="translate(1011 979)" fill="#edf2f9"/>
      <circle id="Ellipse_257-136" data-name="Ellipse 257" cx="6" cy="6" r="6" transform="translate(1035 979)" fill="#edf2f9"/>
      <circle id="Ellipse_257-137" data-name="Ellipse 257" cx="6" cy="6" r="6" transform="translate(1059 979)" fill="#edf2f9"/>
      <circle id="Ellipse_257-138" data-name="Ellipse 257" cx="6" cy="6" r="6" transform="translate(1083 979)" fill="#edf2f9"/>
      <circle id="Ellipse_257-139" data-name="Ellipse 257" cx="6" cy="6" r="6" transform="translate(1107 979)" fill="#edf2f9"/>
      <circle id="Ellipse_257-140" data-name="Ellipse 257" cx="6" cy="6" r="6" transform="translate(1131 979)" fill="#edf2f9"/>
      <circle id="Ellipse_257-141" data-name="Ellipse 257" cx="6" cy="6" r="6" transform="translate(1155 979)" fill="#edf2f9"/>
      <circle id="Ellipse_257-142" data-name="Ellipse 257" cx="6" cy="6" r="6" transform="translate(1179 979)" fill="#edf2f9"/>
      <circle id="Ellipse_257-143" data-name="Ellipse 257" cx="6" cy="6" r="6" transform="translate(1203 979)" fill="#edf2f9"/>
      <circle id="Ellipse_257-144" data-name="Ellipse 257" cx="6" cy="6" r="6" transform="translate(1227 979)" fill="#edf2f9"/>
      <circle id="Ellipse_257-145" data-name="Ellipse 257" cx="6" cy="6" r="6" transform="translate(1251 979)" fill="#edf2f9"/>
      <circle id="Ellipse_257-146" data-name="Ellipse 257" cx="6" cy="6" r="6" transform="translate(1275 979)" fill="#edf2f9"/>
      <circle id="Ellipse_257-147" data-name="Ellipse 257" cx="6" cy="6" r="6" transform="translate(1299 979)" fill="#edf2f9"/>
      <circle id="Ellipse_257-148" data-name="Ellipse 257" cx="6" cy="6" r="6" transform="translate(1323 979)" fill="#edf2f9"/>
      <circle id="Ellipse_257-149" data-name="Ellipse 257" cx="6" cy="6" r="6" transform="translate(1347 979)" fill="#edf2f9"/>
      <circle id="Ellipse_257-150" data-name="Ellipse 257" cx="6" cy="6" r="6" transform="translate(1371 979)" fill="#edf2f9"/>
      <circle id="Ellipse_257-151" data-name="Ellipse 257" cx="6" cy="6" r="6" transform="translate(1395 979)" fill="#edf2f9"/>
      <circle id="Ellipse_257-152" data-name="Ellipse 257" cx="6" cy="6" r="6" transform="translate(1419 979)" fill="#edf2f9"/>
      <circle id="Ellipse_257-153" data-name="Ellipse 257" cx="6" cy="6" r="6" transform="translate(1443 979)" fill="#edf2f9"/>
      <path id="Path_8645" data-name="Path 8645" d="M1.091,9.783A5.718,5.718,0,0,1,0,6,6,6,0,0,1,3.593.46Z" transform="translate(1466 979)" fill="#edf2f9"/>
      <circle id="Ellipse_257-154" data-name="Ellipse 257" cx="6" cy="6" r="6" transform="translate(963 1003)" fill="#edf2f9"/>
      <circle id="Ellipse_257-155" data-name="Ellipse 257" cx="6" cy="6" r="6" transform="translate(987 1003)" fill="#edf2f9"/>
      <circle id="Ellipse_257-156" data-name="Ellipse 257" cx="6" cy="6" r="6" transform="translate(1011 1003)" fill="#edf2f9"/>
      <circle id="Ellipse_257-157" data-name="Ellipse 257" cx="6" cy="6" r="6" transform="translate(1035 1003)" fill="#edf2f9"/>
      <circle id="Ellipse_257-158" data-name="Ellipse 257" cx="6" cy="6" r="6" transform="translate(1059 1003)" fill="#edf2f9"/>
      <circle id="Ellipse_257-159" data-name="Ellipse 257" cx="6" cy="6" r="6" transform="translate(1083 1003)" fill="#edf2f9"/>
      <circle id="Ellipse_257-160" data-name="Ellipse 257" cx="6" cy="6" r="6" transform="translate(1107 1003)" fill="#edf2f9"/>
      <circle id="Ellipse_257-161" data-name="Ellipse 257" cx="6" cy="6" r="6" transform="translate(1131 1003)" fill="#edf2f9"/>
      <circle id="Ellipse_257-162" data-name="Ellipse 257" cx="6" cy="6" r="6" transform="translate(1155 1003)" fill="#edf2f9"/>
      <circle id="Ellipse_257-163" data-name="Ellipse 257" cx="6" cy="6" r="6" transform="translate(1179 1003)" fill="#edf2f9"/>
      <circle id="Ellipse_257-164" data-name="Ellipse 257" cx="6" cy="6" r="6" transform="translate(1203 1003)" fill="#edf2f9"/>
      <circle id="Ellipse_257-165" data-name="Ellipse 257" cx="6" cy="6" r="6" transform="translate(1227 1003)" fill="#edf2f9"/>
      <circle id="Ellipse_257-166" data-name="Ellipse 257" cx="6" cy="6" r="6" transform="translate(1251 1003)" fill="#edf2f9"/>
      <circle id="Ellipse_257-167" data-name="Ellipse 257" cx="6" cy="6" r="6" transform="translate(1275 1003)" fill="#edf2f9"/>
      <circle id="Ellipse_257-168" data-name="Ellipse 257" cx="6" cy="6" r="6" transform="translate(1299 1003)" fill="#edf2f9"/>
      <circle id="Ellipse_257-169" data-name="Ellipse 257" cx="6" cy="6" r="6" transform="translate(1323 1003)" fill="#edf2f9"/>
      <circle id="Ellipse_257-170" data-name="Ellipse 257" cx="6" cy="6" r="6" transform="translate(1347 1003)" fill="#edf2f9"/>
      <circle id="Ellipse_257-171" data-name="Ellipse 257" cx="6" cy="6" r="6" transform="translate(1371 1003)" fill="#edf2f9"/>
      <circle id="Ellipse_257-172" data-name="Ellipse 257" cx="6" cy="6" r="6" transform="translate(1395 1003)" fill="#edf2f9"/>
      <circle id="Ellipse_257-173" data-name="Ellipse 257" cx="6" cy="6" r="6" transform="translate(1419 1003)" fill="#edf2f9"/>
      <circle id="Ellipse_257-174" data-name="Ellipse 257" cx="6" cy="6" r="6" transform="translate(1443 1003)" fill="#edf2f9"/>
      <circle id="Ellipse_257-175" data-name="Ellipse 257" cx="6" cy="6" r="6" transform="translate(963 1027)" fill="#edf2f9"/>
      <circle id="Ellipse_257-176" data-name="Ellipse 257" cx="6" cy="6" r="6" transform="translate(987 1027)" fill="#edf2f9"/>
      <circle id="Ellipse_257-177" data-name="Ellipse 257" cx="6" cy="6" r="6" transform="translate(1011 1027)" fill="#edf2f9"/>
      <circle id="Ellipse_257-178" data-name="Ellipse 257" cx="6" cy="6" r="6" transform="translate(1035 1027)" fill="#edf2f9"/>
      <circle id="Ellipse_257-179" data-name="Ellipse 257" cx="6" cy="6" r="6" transform="translate(1059 1027)" fill="#edf2f9"/>
      <circle id="Ellipse_257-180" data-name="Ellipse 257" cx="6" cy="6" r="6" transform="translate(1083 1027)" fill="#edf2f9"/>
      <circle id="Ellipse_257-181" data-name="Ellipse 257" cx="6" cy="6" r="6" transform="translate(1107 1027)" fill="#edf2f9"/>
      <circle id="Ellipse_257-182" data-name="Ellipse 257" cx="6" cy="6" r="6" transform="translate(1131 1027)" fill="#edf2f9"/>
      <circle id="Ellipse_257-183" data-name="Ellipse 257" cx="6" cy="6" r="6" transform="translate(1155 1027)" fill="#edf2f9"/>
      <circle id="Ellipse_257-184" data-name="Ellipse 257" cx="6" cy="6" r="6" transform="translate(1179 1027)" fill="#edf2f9"/>
      <circle id="Ellipse_257-185" data-name="Ellipse 257" cx="6" cy="6" r="6" transform="translate(1203 1027)" fill="#edf2f9"/>
      <circle id="Ellipse_257-186" data-name="Ellipse 257" cx="6" cy="6" r="6" transform="translate(1227 1027)" fill="#edf2f9"/>
      <circle id="Ellipse_257-187" data-name="Ellipse 257" cx="6" cy="6" r="6" transform="translate(1251 1027)" fill="#edf2f9"/>
      <circle id="Ellipse_257-188" data-name="Ellipse 257" cx="6" cy="6" r="6" transform="translate(1275 1027)" fill="#edf2f9"/>
      <circle id="Ellipse_257-189" data-name="Ellipse 257" cx="6" cy="6" r="6" transform="translate(1299 1027)" fill="#edf2f9"/>
      <circle id="Ellipse_257-190" data-name="Ellipse 257" cx="6" cy="6" r="6" transform="translate(1323 1027)" fill="#edf2f9"/>
      <circle id="Ellipse_257-191" data-name="Ellipse 257" cx="6" cy="6" r="6" transform="translate(1347 1027)" fill="#edf2f9"/>
      <circle id="Ellipse_257-192" data-name="Ellipse 257" cx="6" cy="6" r="6" transform="translate(1371 1027)" fill="#edf2f9"/>
      <circle id="Ellipse_257-193" data-name="Ellipse 257" cx="6" cy="6" r="6" transform="translate(1395 1027)" fill="#edf2f9"/>
      <circle id="Ellipse_257-194" data-name="Ellipse 257" cx="6" cy="6" r="6" transform="translate(1419 1027)" fill="#edf2f9"/>
      <circle id="Ellipse_257-195" data-name="Ellipse 257" cx="6" cy="6" r="6" transform="translate(1443 1027)" fill="#edf2f9"/>
      <circle id="Ellipse_257-196" data-name="Ellipse 257" cx="6" cy="6" r="6" transform="translate(963 1051)" fill="#edf2f9"/>
      <circle id="Ellipse_257-197" data-name="Ellipse 257" cx="6" cy="6" r="6" transform="translate(987 1051)" fill="#edf2f9"/>
      <circle id="Ellipse_257-198" data-name="Ellipse 257" cx="6" cy="6" r="6" transform="translate(1011 1051)" fill="#edf2f9"/>
      <circle id="Ellipse_257-199" data-name="Ellipse 257" cx="6" cy="6" r="6" transform="translate(1035 1051)" fill="#edf2f9"/>
      <circle id="Ellipse_257-200" data-name="Ellipse 257" cx="6" cy="6" r="6" transform="translate(1059 1051)" fill="#edf2f9"/>
      <circle id="Ellipse_257-201" data-name="Ellipse 257" cx="6" cy="6" r="6" transform="translate(1083 1051)" fill="#edf2f9"/>
      <circle id="Ellipse_257-202" data-name="Ellipse 257" cx="6" cy="6" r="6" transform="translate(1107 1051)" fill="#edf2f9"/>
      <circle id="Ellipse_257-203" data-name="Ellipse 257" cx="6" cy="6" r="6" transform="translate(1131 1051)" fill="#edf2f9"/>
      <circle id="Ellipse_257-204" data-name="Ellipse 257" cx="6" cy="6" r="6" transform="translate(1155 1051)" fill="#edf2f9"/>
      <circle id="Ellipse_257-205" data-name="Ellipse 257" cx="6" cy="6" r="6" transform="translate(1179 1051)" fill="#edf2f9"/>
      <circle id="Ellipse_257-206" data-name="Ellipse 257" cx="6" cy="6" r="6" transform="translate(1203 1051)" fill="#edf2f9"/>
      <circle id="Ellipse_257-207" data-name="Ellipse 257" cx="6" cy="6" r="6" transform="translate(1227 1051)" fill="#edf2f9"/>
      <circle id="Ellipse_257-208" data-name="Ellipse 257" cx="6" cy="6" r="6" transform="translate(1251 1051)" fill="#edf2f9"/>
      <circle id="Ellipse_257-209" data-name="Ellipse 257" cx="6" cy="6" r="6" transform="translate(1275 1051)" fill="#edf2f9"/>
      <circle id="Ellipse_257-210" data-name="Ellipse 257" cx="6" cy="6" r="6" transform="translate(1299 1051)" fill="#edf2f9"/>
      <circle id="Ellipse_257-211" data-name="Ellipse 257" cx="6" cy="6" r="6" transform="translate(1323 1051)" fill="#edf2f9"/>
      <circle id="Ellipse_257-212" data-name="Ellipse 257" cx="6" cy="6" r="6" transform="translate(1347 1051)" fill="#edf2f9"/>
      <circle id="Ellipse_257-213" data-name="Ellipse 257" cx="6" cy="6" r="6" transform="translate(1371 1051)" fill="#edf2f9"/>
      <circle id="Ellipse_257-214" data-name="Ellipse 257" cx="6" cy="6" r="6" transform="translate(1395 1051)" fill="#edf2f9"/>
      <circle id="Ellipse_257-215" data-name="Ellipse 257" cx="6" cy="6" r="6" transform="translate(1419 1051)" fill="#edf2f9"/>
      <path id="Path_8771" data-name="Path 8771" d="M6,0A7.738,7.738,0,0,1,7.4.166L4.274,11.7A6.219,6.219,0,0,1,0,6,6,6,0,0,1,6,0Z" transform="translate(1443 1051)" fill="#edf2f9"/>
      <circle id="Ellipse_257-216" data-name="Ellipse 257" cx="6" cy="6" r="6" transform="translate(963 1075)" fill="#edf2f9"/>
      <circle id="Ellipse_257-217" data-name="Ellipse 257" cx="6" cy="6" r="6" transform="translate(987 1075)" fill="#edf2f9"/>
      <circle id="Ellipse_257-218" data-name="Ellipse 257" cx="6" cy="6" r="6" transform="translate(1011 1075)" fill="#edf2f9"/>
      <circle id="Ellipse_257-219" data-name="Ellipse 257" cx="6" cy="6" r="6" transform="translate(1035 1075)" fill="#edf2f9"/>
      <circle id="Ellipse_257-220" data-name="Ellipse 257" cx="6" cy="6" r="6" transform="translate(1059 1075)" fill="#edf2f9"/>
      <circle id="Ellipse_257-221" data-name="Ellipse 257" cx="6" cy="6" r="6" transform="translate(1083 1075)" fill="#edf2f9"/>
      <circle id="Ellipse_257-222" data-name="Ellipse 257" cx="6" cy="6" r="6" transform="translate(1107 1075)" fill="#edf2f9"/>
      <circle id="Ellipse_257-223" data-name="Ellipse 257" cx="6" cy="6" r="6" transform="translate(1131 1075)" fill="#edf2f9"/>
      <circle id="Ellipse_257-224" data-name="Ellipse 257" cx="6" cy="6" r="6" transform="translate(1155 1075)" fill="#edf2f9"/>
      <circle id="Ellipse_257-225" data-name="Ellipse 257" cx="6" cy="6" r="6" transform="translate(1179 1075)" fill="#edf2f9"/>
      <circle id="Ellipse_257-226" data-name="Ellipse 257" cx="6" cy="6" r="6" transform="translate(1203 1075)" fill="#edf2f9"/>
      <circle id="Ellipse_257-227" data-name="Ellipse 257" cx="6" cy="6" r="6" transform="translate(1227 1075)" fill="#edf2f9"/>
      <circle id="Ellipse_257-228" data-name="Ellipse 257" cx="6" cy="6" r="6" transform="translate(1251 1075)" fill="#edf2f9"/>
      <circle id="Ellipse_257-229" data-name="Ellipse 257" cx="6" cy="6" r="6" transform="translate(1275 1075)" fill="#edf2f9"/>
      <circle id="Ellipse_257-230" data-name="Ellipse 257" cx="6" cy="6" r="6" transform="translate(1299 1075)" fill="#edf2f9"/>
      <circle id="Ellipse_257-231" data-name="Ellipse 257" cx="6" cy="6" r="6" transform="translate(1323 1075)" fill="#edf2f9"/>
      <circle id="Ellipse_257-232" data-name="Ellipse 257" cx="6" cy="6" r="6" transform="translate(1347 1075)" fill="#edf2f9"/>
      <circle id="Ellipse_257-233" data-name="Ellipse 257" cx="6" cy="6" r="6" transform="translate(1371 1075)" fill="#edf2f9"/>
      <circle id="Ellipse_257-234" data-name="Ellipse 257" cx="6" cy="6" r="6" transform="translate(1395 1075)" fill="#edf2f9"/>
      <circle id="Ellipse_257-235" data-name="Ellipse 257" cx="6" cy="6" r="6" transform="translate(1419 1075)" fill="#edf2f9"/>
      <circle id="Ellipse_257-236" data-name="Ellipse 257" cx="6" cy="6" r="6" transform="translate(963 1099)" fill="#edf2f9"/>
      <circle id="Ellipse_257-237" data-name="Ellipse 257" cx="6" cy="6" r="6" transform="translate(987 1099)" fill="#edf2f9"/>
      <circle id="Ellipse_257-238" data-name="Ellipse 257" cx="6" cy="6" r="6" transform="translate(1011 1099)" fill="#edf2f9"/>
      <circle id="Ellipse_257-239" data-name="Ellipse 257" cx="6" cy="6" r="6" transform="translate(1035 1099)" fill="#edf2f9"/>
      <circle id="Ellipse_257-240" data-name="Ellipse 257" cx="6" cy="6" r="6" transform="translate(1059 1099)" fill="#edf2f9"/>
      <circle id="Ellipse_257-241" data-name="Ellipse 257" cx="6" cy="6" r="6" transform="translate(1083 1099)" fill="#edf2f9"/>
      <circle id="Ellipse_257-242" data-name="Ellipse 257" cx="6" cy="6" r="6" transform="translate(1107 1099)" fill="#edf2f9"/>
      <circle id="Ellipse_257-243" data-name="Ellipse 257" cx="6" cy="6" r="6" transform="translate(1131 1099)" fill="#edf2f9"/>
      <circle id="Ellipse_257-244" data-name="Ellipse 257" cx="6" cy="6" r="6" transform="translate(1155 1099)" fill="#edf2f9"/>
      <circle id="Ellipse_257-245" data-name="Ellipse 257" cx="6" cy="6" r="6" transform="translate(1179 1099)" fill="#edf2f9"/>
      <circle id="Ellipse_257-246" data-name="Ellipse 257" cx="6" cy="6" r="6" transform="translate(1203 1099)" fill="#edf2f9"/>
      <circle id="Ellipse_257-247" data-name="Ellipse 257" cx="6" cy="6" r="6" transform="translate(1227 1099)" fill="#edf2f9"/>
      <circle id="Ellipse_257-248" data-name="Ellipse 257" cx="6" cy="6" r="6" transform="translate(1251 1099)" fill="#edf2f9"/>
      <circle id="Ellipse_257-249" data-name="Ellipse 257" cx="6" cy="6" r="6" transform="translate(1275 1099)" fill="#edf2f9"/>
      <circle id="Ellipse_257-250" data-name="Ellipse 257" cx="6" cy="6" r="6" transform="translate(1299 1099)" fill="#edf2f9"/>
      <circle id="Ellipse_257-251" data-name="Ellipse 257" cx="6" cy="6" r="6" transform="translate(1323 1099)" fill="#edf2f9"/>
      <circle id="Ellipse_257-252" data-name="Ellipse 257" cx="6" cy="6" r="6" transform="translate(1347 1099)" fill="#edf2f9"/>
      <circle id="Ellipse_257-253" data-name="Ellipse 257" cx="6" cy="6" r="6" transform="translate(1371 1099)" fill="#edf2f9"/>
      <circle id="Ellipse_257-254" data-name="Ellipse 257" cx="6" cy="6" r="6" transform="translate(1395 1099)" fill="#edf2f9"/>
      <circle id="Ellipse_257-255" data-name="Ellipse 257" cx="6" cy="6" r="6" transform="translate(1419 1099)" fill="#edf2f9"/>
      <circle id="Ellipse_257-256" data-name="Ellipse 257" cx="6" cy="6" r="6" transform="translate(963 1123)" fill="#edf2f9"/>
      <circle id="Ellipse_257-257" data-name="Ellipse 257" cx="6" cy="6" r="6" transform="translate(987 1123)" fill="#edf2f9"/>
      <circle id="Ellipse_257-258" data-name="Ellipse 257" cx="6" cy="6" r="6" transform="translate(1011 1123)" fill="#edf2f9"/>
      <circle id="Ellipse_257-259" data-name="Ellipse 257" cx="6" cy="6" r="6" transform="translate(1035 1123)" fill="#edf2f9"/>
      <circle id="Ellipse_257-260" data-name="Ellipse 257" cx="6" cy="6" r="6" transform="translate(1059 1123)" fill="#edf2f9"/>
      <circle id="Ellipse_257-261" data-name="Ellipse 257" cx="6" cy="6" r="6" transform="translate(1083 1123)" fill="#edf2f9"/>
      <circle id="Ellipse_257-262" data-name="Ellipse 257" cx="6" cy="6" r="6" transform="translate(1107 1123)" fill="#edf2f9"/>
      <circle id="Ellipse_257-263" data-name="Ellipse 257" cx="6" cy="6" r="6" transform="translate(1131 1123)" fill="#edf2f9"/>
      <circle id="Ellipse_257-264" data-name="Ellipse 257" cx="6" cy="6" r="6" transform="translate(1155 1123)" fill="#edf2f9"/>
      <circle id="Ellipse_257-265" data-name="Ellipse 257" cx="6" cy="6" r="6" transform="translate(1179 1123)" fill="#edf2f9"/>
      <circle id="Ellipse_257-266" data-name="Ellipse 257" cx="6" cy="6" r="6" transform="translate(1203 1123)" fill="#edf2f9"/>
      <circle id="Ellipse_257-267" data-name="Ellipse 257" cx="6" cy="6" r="6" transform="translate(1227 1123)" fill="#edf2f9"/>
      <circle id="Ellipse_257-268" data-name="Ellipse 257" cx="6" cy="6" r="6" transform="translate(1251 1123)" fill="#edf2f9"/>
      <circle id="Ellipse_257-269" data-name="Ellipse 257" cx="6" cy="6" r="6" transform="translate(1275 1123)" fill="#edf2f9"/>
      <circle id="Ellipse_257-270" data-name="Ellipse 257" cx="6" cy="6" r="6" transform="translate(1299 1123)" fill="#edf2f9"/>
      <circle id="Ellipse_257-271" data-name="Ellipse 257" cx="6" cy="6" r="6" transform="translate(1323 1123)" fill="#edf2f9"/>
      <circle id="Ellipse_257-272" data-name="Ellipse 257" cx="6" cy="6" r="6" transform="translate(1347 1123)" fill="#edf2f9"/>
      <circle id="Ellipse_257-273" data-name="Ellipse 257" cx="6" cy="6" r="6" transform="translate(1371 1123)" fill="#edf2f9"/>
      <circle id="Ellipse_257-274" data-name="Ellipse 257" cx="6" cy="6" r="6" transform="translate(1395 1123)" fill="#edf2f9"/>
      <path id="Path_8634" data-name="Path 8634" d="M6,0A6.015,6.015,0,0,1,8.249.413S6.506,3.954,5.12,6.6s-2.424,4.4-2.424,4.4A5.691,5.691,0,0,1,0,6,6,6,0,0,1,6,0Z" transform="translate(1419 1123)" fill="#edf2f9"/>
      <circle id="Ellipse_257-275" data-name="Ellipse 257" cx="6" cy="6" r="6" transform="translate(963 1147)" fill="#edf2f9"/>
      <circle id="Ellipse_257-276" data-name="Ellipse 257" cx="6" cy="6" r="6" transform="translate(987 1147)" fill="#edf2f9"/>
      <circle id="Ellipse_257-277" data-name="Ellipse 257" cx="6" cy="6" r="6" transform="translate(1011 1147)" fill="#edf2f9"/>
      <circle id="Ellipse_257-278" data-name="Ellipse 257" cx="6" cy="6" r="6" transform="translate(1035 1147)" fill="#edf2f9"/>
      <circle id="Ellipse_257-279" data-name="Ellipse 257" cx="6" cy="6" r="6" transform="translate(1059 1147)" fill="#edf2f9"/>
      <circle id="Ellipse_257-280" data-name="Ellipse 257" cx="6" cy="6" r="6" transform="translate(1083 1147)" fill="#edf2f9"/>
      <circle id="Ellipse_257-281" data-name="Ellipse 257" cx="6" cy="6" r="6" transform="translate(1107 1147)" fill="#edf2f9"/>
      <circle id="Ellipse_257-282" data-name="Ellipse 257" cx="6" cy="6" r="6" transform="translate(1131 1147)" fill="#edf2f9"/>
      <circle id="Ellipse_257-283" data-name="Ellipse 257" cx="6" cy="6" r="6" transform="translate(1155 1147)" fill="#edf2f9"/>
      <circle id="Ellipse_257-284" data-name="Ellipse 257" cx="6" cy="6" r="6" transform="translate(1179 1147)" fill="#edf2f9"/>
      <circle id="Ellipse_257-285" data-name="Ellipse 257" cx="6" cy="6" r="6" transform="translate(1203 1147)" fill="#edf2f9"/>
      <circle id="Ellipse_257-286" data-name="Ellipse 257" cx="6" cy="6" r="6" transform="translate(1227 1147)" fill="#edf2f9"/>
      <circle id="Ellipse_257-287" data-name="Ellipse 257" cx="6" cy="6" r="6" transform="translate(1251 1147)" fill="#edf2f9"/>
      <circle id="Ellipse_257-288" data-name="Ellipse 257" cx="6" cy="6" r="6" transform="translate(1275 1147)" fill="#edf2f9"/>
      <circle id="Ellipse_257-289" data-name="Ellipse 257" cx="6" cy="6" r="6" transform="translate(1299 1147)" fill="#edf2f9"/>
      <circle id="Ellipse_257-290" data-name="Ellipse 257" cx="6" cy="6" r="6" transform="translate(1323 1147)" fill="#edf2f9"/>
      <circle id="Ellipse_257-291" data-name="Ellipse 257" cx="6" cy="6" r="6" transform="translate(1347 1147)" fill="#edf2f9"/>
      <circle id="Ellipse_257-292" data-name="Ellipse 257" cx="6" cy="6" r="6" transform="translate(1371 1147)" fill="#edf2f9"/>
      <circle id="Ellipse_257-293" data-name="Ellipse 257" cx="6" cy="6" r="6" transform="translate(1395 1147)" fill="#edf2f9"/>
      <path id="Path_8650" data-name="Path 8650" d="M6,0a5.8,5.8,0,0,1,5.764,5.2C11.775,5.214,1.08,2.314,1.08,2.314A6.152,6.152,0,0,1,6,0Z" transform="translate(987 1171)" fill="#edf2f9"/>
      <path id="Path_8649" data-name="Path 8649" d="M6,0a6,6,0,0,1,6,6,7.2,7.2,0,0,1-2.573,4.993l-9-2.409A7.276,7.276,0,0,1,0,6,6,6,0,0,1,6,0Z" transform="translate(1011 1171)" fill="#edf2f9"/>
      <circle id="Ellipse_257-294" data-name="Ellipse 257" cx="6" cy="6" r="6" transform="translate(1035 1171)" fill="#edf2f9"/>
      <circle id="Ellipse_257-295" data-name="Ellipse 257" cx="6" cy="6" r="6" transform="translate(1059 1171)" fill="#edf2f9"/>
      <circle id="Ellipse_257-296" data-name="Ellipse 257" cx="6" cy="6" r="6" transform="translate(1083 1171)" fill="#edf2f9"/>
      <circle id="Ellipse_257-297" data-name="Ellipse 257" cx="6" cy="6" r="6" transform="translate(1107 1171)" fill="#edf2f9"/>
      <circle id="Ellipse_257-298" data-name="Ellipse 257" cx="6" cy="6" r="6" transform="translate(1131 1171)" fill="#edf2f9"/>
      <circle id="Ellipse_257-299" data-name="Ellipse 257" cx="6" cy="6" r="6" transform="translate(1155 1171)" fill="#edf2f9"/>
      <circle id="Ellipse_257-300" data-name="Ellipse 257" cx="6" cy="6" r="6" transform="translate(1179 1171)" fill="#edf2f9"/>
      <circle id="Ellipse_257-301" data-name="Ellipse 257" cx="6" cy="6" r="6" transform="translate(1203 1171)" fill="#edf2f9"/>
      <circle id="Ellipse_257-302" data-name="Ellipse 257" cx="6" cy="6" r="6" transform="translate(1227 1171)" fill="#edf2f9"/>
      <circle id="Ellipse_257-303" data-name="Ellipse 257" cx="6" cy="6" r="6" transform="translate(1251 1171)" fill="#edf2f9"/>
      <circle id="Ellipse_257-304" data-name="Ellipse 257" cx="6" cy="6" r="6" transform="translate(1275 1171)" fill="#edf2f9"/>
      <circle id="Ellipse_257-305" data-name="Ellipse 257" cx="6" cy="6" r="6" transform="translate(1299 1171)" fill="#edf2f9"/>
      <circle id="Ellipse_257-306" data-name="Ellipse 257" cx="6" cy="6" r="6" transform="translate(1323 1171)" fill="#edf2f9"/>
      <circle id="Ellipse_257-307" data-name="Ellipse 257" cx="6" cy="6" r="6" transform="translate(1347 1171)" fill="#edf2f9"/>
      <circle id="Ellipse_257-308" data-name="Ellipse 257" cx="6" cy="6" r="6" transform="translate(1371 1171)" fill="#edf2f9"/>
      <path id="Path_8647" data-name="Path 8647" d="M6,0a6,6,0,0,1,6,6c0,.123-.109.518-.143.949L.364,3.85A6.151,6.151,0,0,1,6,0Z" transform="translate(1083 1195)" fill="#edf2f9"/>
      <path id="Path_8648" data-name="Path 8648" d="M6,0a6,6,0,0,1,6,6,6.54,6.54,0,0,1-5.014,6.072L2.425,10.853A6.094,6.094,0,0,1,0,6,6,6,0,0,1,6,0Z" transform="translate(1107 1195)" fill="#edf2f9"/>
      <circle id="Ellipse_257-309" data-name="Ellipse 257" cx="6" cy="6" r="6" transform="translate(1131 1195)" fill="#edf2f9"/>
      <circle id="Ellipse_257-310" data-name="Ellipse 257" cx="6" cy="6" r="6" transform="translate(1155 1195)" fill="#edf2f9"/>
      <circle id="Ellipse_257-311" data-name="Ellipse 257" cx="6" cy="6" r="6" transform="translate(1179 1195)" fill="#edf2f9"/>
      <path id="Path_8644" data-name="Path 8644" d="M6,0a6,6,0,0,1,6,6,7.662,7.662,0,0,1-.6,2.539L-.01,5.509A6.255,6.255,0,0,1,6,0Z" transform="translate(1179 1219)" fill="#edf2f9"/>
      <circle id="Ellipse_257-312" data-name="Ellipse 257" cx="6" cy="6" r="6" transform="translate(1203 1195)" fill="#edf2f9"/>
      <circle id="Ellipse_267" data-name="Ellipse 267" cx="6" cy="6" r="6" transform="translate(1203 1219)" fill="#edf2f9"/>
      <circle id="Ellipse_257-313" data-name="Ellipse 257" cx="6" cy="6" r="6" transform="translate(1227 1195)" fill="#edf2f9"/>
      <circle id="Ellipse_266" data-name="Ellipse 266" cx="6" cy="6" r="6" transform="translate(1227 1219)" fill="#edf2f9"/>
      <circle id="Ellipse_257-314" data-name="Ellipse 257" cx="6" cy="6" r="6" transform="translate(1251 1195)" fill="#edf2f9"/>
      <circle id="Ellipse_265" data-name="Ellipse 265" cx="6" cy="6" r="6" transform="translate(1251 1219)" fill="#edf2f9"/>
      <circle id="Ellipse_257-315" data-name="Ellipse 257" cx="6" cy="6" r="6" transform="translate(1275 1195)" fill="#edf2f9"/>
      <circle id="Ellipse_271" data-name="Ellipse 271" cx="6" cy="6" r="6" transform="translate(1275 1219)" fill="#edf2f9"/>
      <circle id="Ellipse_257-316" data-name="Ellipse 257" cx="6" cy="6" r="6" transform="translate(1299 1195)" fill="#edf2f9"/>
      <path id="Path_8643" data-name="Path 8643" d="M6,0a6,6,0,0,1,6,6v.432S8.918,7.473,6.213,8.291,1.228,9.72,1.228,9.72A5.975,5.975,0,0,1,0,6,6,6,0,0,1,6,0Z" transform="translate(1299 1219)" fill="#edf2f9"/>
      <circle id="Ellipse_257-317" data-name="Ellipse 257" cx="6" cy="6" r="6" transform="translate(1323 1195)" fill="#edf2f9"/>
      <path id="Path_8848" data-name="Path 8848" d="M6,0a6,6,0,0,1,6,6,7.577,7.577,0,0,1-.053.8s-2.7,1.78-4.614,3.014-3.042,1.922-3.042,1.922A6.224,6.224,0,0,1,0,6,6,6,0,0,1,6,0Z" transform="translate(1347 1195)" fill="#edf2f9"/>
    </g>
  </g>
</svg>
