<svg xmlns="http://www.w3.org/2000/svg" xmlns:xlink="http://www.w3.org/1999/xlink" width="1783.179" height="1783.178" viewBox="0 0 1783.179 1783.178">
  <defs>
    <filter id="Rectangle_618" x="0" y="0" width="1783.179" height="1783.178" filterUnits="userSpaceOnUse">
      <feOffset dy="10" input="SourceAlpha"/>
      <feGaussianBlur stdDeviation="40" result="blur"/>
      <feFlood flood-color="#7699fc" flood-opacity="0.051"/>
      <feComposite operator="in" in2="blur"/>
      <feComposite in="SourceGraphic"/>
    </filter>
  </defs>
  <g id="Group_1452" data-name="Group 1452" transform="translate(-7790.821 3921.729)">
    <g id="Group_1450" data-name="Group 1450">
      <g id="Group_1451" data-name="Group 1451" transform="translate(20403 616)">
        <g transform="matrix(1, 0, 0, 1, -12612.18, -4537.73)" filter="url(#Rectangle_618)">
          <rect id="Rectangle_618-2" data-name="Rectangle 618" width="1260" height="1260" rx="200" transform="translate(1663.18 436.11) rotate(105)" fill="#fff"/>
        </g>
      </g>
      <g id="dots_9" data-name="dots 9" transform="translate(7180 -10269)">
        <circle id="Ellipse_257" data-name="Ellipse 257" cx="6" cy="6" r="6" transform="translate(1400 7700)" fill="#edf2f9"/>
        <circle id="Ellipse_257-2" data-name="Ellipse 257" cx="6" cy="6" r="6" transform="translate(1424 7700)" fill="#edf2f9"/>
        <circle id="Ellipse_257-3" data-name="Ellipse 257" cx="6" cy="6" r="6" transform="translate(1448 7700)" fill="#edf2f9"/>
        <circle id="Ellipse_257-4" data-name="Ellipse 257" cx="6" cy="6" r="6" transform="translate(1472 7700)" fill="#edf2f9"/>
        <circle id="Ellipse_257-5" data-name="Ellipse 257" cx="6" cy="6" r="6" transform="translate(1496 7700)" fill="#edf2f9"/>
        <circle id="Ellipse_257-6" data-name="Ellipse 257" cx="6" cy="6" r="6" transform="translate(1520 7700)" fill="#edf2f9"/>
        <circle id="Ellipse_257-7" data-name="Ellipse 257" cx="6" cy="6" r="6" transform="translate(1544 7700)" fill="#edf2f9"/>
        <circle id="Ellipse_257-8" data-name="Ellipse 257" cx="6" cy="6" r="6" transform="translate(1568 7700)" fill="#edf2f9"/>
        <circle id="Ellipse_257-9" data-name="Ellipse 257" cx="6" cy="6" r="6" transform="translate(1592 7700)" fill="#edf2f9"/>
        <circle id="Ellipse_257-10" data-name="Ellipse 257" cx="6" cy="6" r="6" transform="translate(1616 7700)" fill="#edf2f9"/>
        <circle id="Ellipse_257-11" data-name="Ellipse 257" cx="6" cy="6" r="6" transform="translate(1640 7700)" fill="#edf2f9"/>
        <circle id="Ellipse_257-12" data-name="Ellipse 257" cx="6" cy="6" r="6" transform="translate(1664 7700)" fill="#edf2f9"/>
        <circle id="Ellipse_257-13" data-name="Ellipse 257" cx="6" cy="6" r="6" transform="translate(1688 7700)" fill="#edf2f9"/>
        <circle id="Ellipse_257-14" data-name="Ellipse 257" cx="6" cy="6" r="6" transform="translate(1712 7700)" fill="#edf2f9"/>
        <circle id="Ellipse_257-15" data-name="Ellipse 257" cx="6" cy="6" r="6" transform="translate(1736 7700)" fill="#edf2f9"/>
        <circle id="Ellipse_257-16" data-name="Ellipse 257" cx="6" cy="6" r="6" transform="translate(1760 7700)" fill="#edf2f9"/>
        <circle id="Ellipse_257-17" data-name="Ellipse 257" cx="6" cy="6" r="6" transform="translate(1784 7700)" fill="#edf2f9"/>
        <circle id="Ellipse_257-18" data-name="Ellipse 257" cx="6" cy="6" r="6" transform="translate(1808 7700)" fill="#edf2f9"/>
        <circle id="Ellipse_257-19" data-name="Ellipse 257" cx="6" cy="6" r="6" transform="translate(1832 7700)" fill="#edf2f9"/>
        <circle id="Ellipse_257-20" data-name="Ellipse 257" cx="6" cy="6" r="6" transform="translate(1856 7700)" fill="#edf2f9"/>
        <circle id="Ellipse_257-21" data-name="Ellipse 257" cx="6" cy="6" r="6" transform="translate(1880 7700)" fill="#edf2f9"/>
        <circle id="Ellipse_257-22" data-name="Ellipse 257" cx="6" cy="6" r="6" transform="translate(1904 7700)" fill="#edf2f9"/>
        <circle id="Ellipse_257-23" data-name="Ellipse 257" cx="6" cy="6" r="6" transform="translate(1400 7724)" fill="#edf2f9"/>
        <circle id="Ellipse_257-24" data-name="Ellipse 257" cx="6" cy="6" r="6" transform="translate(1424 7724)" fill="#edf2f9"/>
        <circle id="Ellipse_257-25" data-name="Ellipse 257" cx="6" cy="6" r="6" transform="translate(1448 7724)" fill="#edf2f9"/>
        <circle id="Ellipse_257-26" data-name="Ellipse 257" cx="6" cy="6" r="6" transform="translate(1472 7724)" fill="#edf2f9"/>
        <circle id="Ellipse_257-27" data-name="Ellipse 257" cx="6" cy="6" r="6" transform="translate(1496 7724)" fill="#edf2f9"/>
        <circle id="Ellipse_257-28" data-name="Ellipse 257" cx="6" cy="6" r="6" transform="translate(1520 7724)" fill="#edf2f9"/>
        <circle id="Ellipse_257-29" data-name="Ellipse 257" cx="6" cy="6" r="6" transform="translate(1544 7724)" fill="#edf2f9"/>
        <circle id="Ellipse_257-30" data-name="Ellipse 257" cx="6" cy="6" r="6" transform="translate(1568 7724)" fill="#edf2f9"/>
        <circle id="Ellipse_257-31" data-name="Ellipse 257" cx="6" cy="6" r="6" transform="translate(1592 7724)" fill="#edf2f9"/>
        <circle id="Ellipse_257-32" data-name="Ellipse 257" cx="6" cy="6" r="6" transform="translate(1616 7724)" fill="#edf2f9"/>
        <circle id="Ellipse_257-33" data-name="Ellipse 257" cx="6" cy="6" r="6" transform="translate(1640 7724)" fill="#edf2f9"/>
        <circle id="Ellipse_257-34" data-name="Ellipse 257" cx="6" cy="6" r="6" transform="translate(1664 7724)" fill="#edf2f9"/>
        <circle id="Ellipse_257-35" data-name="Ellipse 257" cx="6" cy="6" r="6" transform="translate(1688 7724)" fill="#edf2f9"/>
        <circle id="Ellipse_257-36" data-name="Ellipse 257" cx="6" cy="6" r="6" transform="translate(1712 7724)" fill="#edf2f9"/>
        <circle id="Ellipse_257-37" data-name="Ellipse 257" cx="6" cy="6" r="6" transform="translate(1736 7724)" fill="#edf2f9"/>
        <circle id="Ellipse_257-38" data-name="Ellipse 257" cx="6" cy="6" r="6" transform="translate(1760 7724)" fill="#edf2f9"/>
        <circle id="Ellipse_257-39" data-name="Ellipse 257" cx="6" cy="6" r="6" transform="translate(1784 7724)" fill="#edf2f9"/>
        <circle id="Ellipse_257-40" data-name="Ellipse 257" cx="6" cy="6" r="6" transform="translate(1808 7724)" fill="#edf2f9"/>
        <circle id="Ellipse_257-41" data-name="Ellipse 257" cx="6" cy="6" r="6" transform="translate(1832 7724)" fill="#edf2f9"/>
        <circle id="Ellipse_257-42" data-name="Ellipse 257" cx="6" cy="6" r="6" transform="translate(1856 7724)" fill="#edf2f9"/>
        <circle id="Ellipse_257-43" data-name="Ellipse 257" cx="6" cy="6" r="6" transform="translate(1880 7724)" fill="#edf2f9"/>
        <circle id="Ellipse_257-44" data-name="Ellipse 257" cx="6" cy="6" r="6" transform="translate(1904 7724)" fill="#edf2f9"/>
        <circle id="Ellipse_257-45" data-name="Ellipse 257" cx="6" cy="6" r="6" transform="translate(1400 7748)" fill="#edf2f9"/>
        <circle id="Ellipse_257-46" data-name="Ellipse 257" cx="6" cy="6" r="6" transform="translate(1424 7748)" fill="#edf2f9"/>
        <circle id="Ellipse_257-47" data-name="Ellipse 257" cx="6" cy="6" r="6" transform="translate(1448 7748)" fill="#edf2f9"/>
        <circle id="Ellipse_257-48" data-name="Ellipse 257" cx="6" cy="6" r="6" transform="translate(1472 7748)" fill="#edf2f9"/>
        <circle id="Ellipse_257-49" data-name="Ellipse 257" cx="6" cy="6" r="6" transform="translate(1496 7748)" fill="#edf2f9"/>
        <circle id="Ellipse_257-50" data-name="Ellipse 257" cx="6" cy="6" r="6" transform="translate(1520 7748)" fill="#edf2f9"/>
        <circle id="Ellipse_257-51" data-name="Ellipse 257" cx="6" cy="6" r="6" transform="translate(1544 7748)" fill="#edf2f9"/>
        <circle id="Ellipse_257-52" data-name="Ellipse 257" cx="6" cy="6" r="6" transform="translate(1568 7748)" fill="#edf2f9"/>
        <circle id="Ellipse_257-53" data-name="Ellipse 257" cx="6" cy="6" r="6" transform="translate(1592 7748)" fill="#edf2f9"/>
        <circle id="Ellipse_257-54" data-name="Ellipse 257" cx="6" cy="6" r="6" transform="translate(1616 7748)" fill="#edf2f9"/>
        <circle id="Ellipse_257-55" data-name="Ellipse 257" cx="6" cy="6" r="6" transform="translate(1640 7748)" fill="#edf2f9"/>
        <circle id="Ellipse_257-56" data-name="Ellipse 257" cx="6" cy="6" r="6" transform="translate(1664 7748)" fill="#edf2f9"/>
        <circle id="Ellipse_257-57" data-name="Ellipse 257" cx="6" cy="6" r="6" transform="translate(1688 7748)" fill="#edf2f9"/>
        <circle id="Ellipse_257-58" data-name="Ellipse 257" cx="6" cy="6" r="6" transform="translate(1712 7748)" fill="#edf2f9"/>
        <circle id="Ellipse_257-59" data-name="Ellipse 257" cx="6" cy="6" r="6" transform="translate(1736 7748)" fill="#edf2f9"/>
        <circle id="Ellipse_257-60" data-name="Ellipse 257" cx="6" cy="6" r="6" transform="translate(1760 7748)" fill="#edf2f9"/>
        <circle id="Ellipse_257-61" data-name="Ellipse 257" cx="6" cy="6" r="6" transform="translate(1784 7748)" fill="#edf2f9"/>
        <circle id="Ellipse_257-62" data-name="Ellipse 257" cx="6" cy="6" r="6" transform="translate(1808 7748)" fill="#edf2f9"/>
        <circle id="Ellipse_257-63" data-name="Ellipse 257" cx="6" cy="6" r="6" transform="translate(1832 7748)" fill="#edf2f9"/>
        <circle id="Ellipse_257-64" data-name="Ellipse 257" cx="6" cy="6" r="6" transform="translate(1856 7748)" fill="#edf2f9"/>
        <circle id="Ellipse_257-65" data-name="Ellipse 257" cx="6" cy="6" r="6" transform="translate(1880 7748)" fill="#edf2f9"/>
        <circle id="Ellipse_257-66" data-name="Ellipse 257" cx="6" cy="6" r="6" transform="translate(1904 7748)" fill="#edf2f9"/>
        <circle id="Ellipse_257-67" data-name="Ellipse 257" cx="6" cy="6" r="6" transform="translate(1400 7772)" fill="#edf2f9"/>
        <circle id="Ellipse_257-68" data-name="Ellipse 257" cx="6" cy="6" r="6" transform="translate(1424 7772)" fill="#edf2f9"/>
        <circle id="Ellipse_257-69" data-name="Ellipse 257" cx="6" cy="6" r="6" transform="translate(1448 7772)" fill="#edf2f9"/>
        <circle id="Ellipse_257-70" data-name="Ellipse 257" cx="6" cy="6" r="6" transform="translate(1472 7772)" fill="#edf2f9"/>
        <circle id="Ellipse_257-71" data-name="Ellipse 257" cx="6" cy="6" r="6" transform="translate(1496 7772)" fill="#edf2f9"/>
        <circle id="Ellipse_257-72" data-name="Ellipse 257" cx="6" cy="6" r="6" transform="translate(1520 7772)" fill="#edf2f9"/>
        <circle id="Ellipse_257-73" data-name="Ellipse 257" cx="6" cy="6" r="6" transform="translate(1544 7772)" fill="#edf2f9"/>
        <circle id="Ellipse_257-74" data-name="Ellipse 257" cx="6" cy="6" r="6" transform="translate(1568 7772)" fill="#edf2f9"/>
        <circle id="Ellipse_257-75" data-name="Ellipse 257" cx="6" cy="6" r="6" transform="translate(1592 7772)" fill="#edf2f9"/>
        <circle id="Ellipse_257-76" data-name="Ellipse 257" cx="6" cy="6" r="6" transform="translate(1616 7772)" fill="#edf2f9"/>
        <circle id="Ellipse_257-77" data-name="Ellipse 257" cx="6" cy="6" r="6" transform="translate(1640 7772)" fill="#edf2f9"/>
        <circle id="Ellipse_257-78" data-name="Ellipse 257" cx="6" cy="6" r="6" transform="translate(1664 7772)" fill="#edf2f9"/>
        <circle id="Ellipse_257-79" data-name="Ellipse 257" cx="6" cy="6" r="6" transform="translate(1688 7772)" fill="#edf2f9"/>
        <circle id="Ellipse_257-80" data-name="Ellipse 257" cx="6" cy="6" r="6" transform="translate(1712 7772)" fill="#edf2f9"/>
        <circle id="Ellipse_257-81" data-name="Ellipse 257" cx="6" cy="6" r="6" transform="translate(1736 7772)" fill="#edf2f9"/>
        <circle id="Ellipse_257-82" data-name="Ellipse 257" cx="6" cy="6" r="6" transform="translate(1760 7772)" fill="#edf2f9"/>
        <circle id="Ellipse_257-83" data-name="Ellipse 257" cx="6" cy="6" r="6" transform="translate(1784 7772)" fill="#edf2f9"/>
        <circle id="Ellipse_257-84" data-name="Ellipse 257" cx="6" cy="6" r="6" transform="translate(1808 7772)" fill="#edf2f9"/>
        <circle id="Ellipse_257-85" data-name="Ellipse 257" cx="6" cy="6" r="6" transform="translate(1832 7772)" fill="#edf2f9"/>
        <circle id="Ellipse_257-86" data-name="Ellipse 257" cx="6" cy="6" r="6" transform="translate(1856 7772)" fill="#edf2f9"/>
        <circle id="Ellipse_257-87" data-name="Ellipse 257" cx="6" cy="6" r="6" transform="translate(1880 7772)" fill="#edf2f9"/>
        <circle id="Ellipse_257-88" data-name="Ellipse 257" cx="6" cy="6" r="6" transform="translate(1904 7772)" fill="#edf2f9"/>
        <circle id="Ellipse_257-89" data-name="Ellipse 257" cx="6" cy="6" r="6" transform="translate(1400 7796)" fill="#edf2f9"/>
        <circle id="Ellipse_257-90" data-name="Ellipse 257" cx="6" cy="6" r="6" transform="translate(1424 7796)" fill="#edf2f9"/>
        <circle id="Ellipse_257-91" data-name="Ellipse 257" cx="6" cy="6" r="6" transform="translate(1448 7796)" fill="#edf2f9"/>
        <circle id="Ellipse_257-92" data-name="Ellipse 257" cx="6" cy="6" r="6" transform="translate(1472 7796)" fill="#edf2f9"/>
        <circle id="Ellipse_257-93" data-name="Ellipse 257" cx="6" cy="6" r="6" transform="translate(1496 7796)" fill="#edf2f9"/>
        <circle id="Ellipse_257-94" data-name="Ellipse 257" cx="6" cy="6" r="6" transform="translate(1520 7796)" fill="#edf2f9"/>
        <circle id="Ellipse_257-95" data-name="Ellipse 257" cx="6" cy="6" r="6" transform="translate(1544 7796)" fill="#edf2f9"/>
        <circle id="Ellipse_257-96" data-name="Ellipse 257" cx="6" cy="6" r="6" transform="translate(1568 7796)" fill="#edf2f9"/>
        <circle id="Ellipse_257-97" data-name="Ellipse 257" cx="6" cy="6" r="6" transform="translate(1592 7796)" fill="#edf2f9"/>
        <circle id="Ellipse_257-98" data-name="Ellipse 257" cx="6" cy="6" r="6" transform="translate(1616 7796)" fill="#edf2f9"/>
        <circle id="Ellipse_257-99" data-name="Ellipse 257" cx="6" cy="6" r="6" transform="translate(1640 7796)" fill="#edf2f9"/>
        <circle id="Ellipse_257-100" data-name="Ellipse 257" cx="6" cy="6" r="6" transform="translate(1664 7796)" fill="#edf2f9"/>
        <circle id="Ellipse_257-101" data-name="Ellipse 257" cx="6" cy="6" r="6" transform="translate(1688 7796)" fill="#edf2f9"/>
        <circle id="Ellipse_257-102" data-name="Ellipse 257" cx="6" cy="6" r="6" transform="translate(1712 7796)" fill="#edf2f9"/>
        <circle id="Ellipse_257-103" data-name="Ellipse 257" cx="6" cy="6" r="6" transform="translate(1736 7796)" fill="#edf2f9"/>
        <circle id="Ellipse_257-104" data-name="Ellipse 257" cx="6" cy="6" r="6" transform="translate(1760 7796)" fill="#edf2f9"/>
        <circle id="Ellipse_257-105" data-name="Ellipse 257" cx="6" cy="6" r="6" transform="translate(1784 7796)" fill="#edf2f9"/>
        <circle id="Ellipse_257-106" data-name="Ellipse 257" cx="6" cy="6" r="6" transform="translate(1808 7796)" fill="#edf2f9"/>
        <circle id="Ellipse_257-107" data-name="Ellipse 257" cx="6" cy="6" r="6" transform="translate(1832 7796)" fill="#edf2f9"/>
        <circle id="Ellipse_257-108" data-name="Ellipse 257" cx="6" cy="6" r="6" transform="translate(1856 7796)" fill="#edf2f9"/>
        <circle id="Ellipse_257-109" data-name="Ellipse 257" cx="6" cy="6" r="6" transform="translate(1880 7796)" fill="#edf2f9"/>
        <circle id="Ellipse_257-110" data-name="Ellipse 257" cx="6" cy="6" r="6" transform="translate(1904 7796)" fill="#edf2f9"/>
        <circle id="Ellipse_257-111" data-name="Ellipse 257" cx="6" cy="6" r="6" transform="translate(1400 7820)" fill="#edf2f9"/>
        <circle id="Ellipse_257-112" data-name="Ellipse 257" cx="6" cy="6" r="6" transform="translate(1424 7820)" fill="#edf2f9"/>
        <circle id="Ellipse_257-113" data-name="Ellipse 257" cx="6" cy="6" r="6" transform="translate(1448 7820)" fill="#edf2f9"/>
        <circle id="Ellipse_257-114" data-name="Ellipse 257" cx="6" cy="6" r="6" transform="translate(1472 7820)" fill="#edf2f9"/>
        <circle id="Ellipse_257-115" data-name="Ellipse 257" cx="6" cy="6" r="6" transform="translate(1496 7820)" fill="#edf2f9"/>
        <circle id="Ellipse_257-116" data-name="Ellipse 257" cx="6" cy="6" r="6" transform="translate(1520 7820)" fill="#edf2f9"/>
        <circle id="Ellipse_257-117" data-name="Ellipse 257" cx="6" cy="6" r="6" transform="translate(1544 7820)" fill="#edf2f9"/>
        <circle id="Ellipse_257-118" data-name="Ellipse 257" cx="6" cy="6" r="6" transform="translate(1568 7820)" fill="#edf2f9"/>
        <circle id="Ellipse_257-119" data-name="Ellipse 257" cx="6" cy="6" r="6" transform="translate(1592 7820)" fill="#edf2f9"/>
        <circle id="Ellipse_257-120" data-name="Ellipse 257" cx="6" cy="6" r="6" transform="translate(1616 7820)" fill="#edf2f9"/>
        <circle id="Ellipse_257-121" data-name="Ellipse 257" cx="6" cy="6" r="6" transform="translate(1640 7820)" fill="#edf2f9"/>
        <circle id="Ellipse_257-122" data-name="Ellipse 257" cx="6" cy="6" r="6" transform="translate(1664 7820)" fill="#edf2f9"/>
        <circle id="Ellipse_257-123" data-name="Ellipse 257" cx="6" cy="6" r="6" transform="translate(1688 7820)" fill="#edf2f9"/>
        <circle id="Ellipse_257-124" data-name="Ellipse 257" cx="6" cy="6" r="6" transform="translate(1712 7820)" fill="#edf2f9"/>
        <circle id="Ellipse_257-125" data-name="Ellipse 257" cx="6" cy="6" r="6" transform="translate(1736 7820)" fill="#edf2f9"/>
        <circle id="Ellipse_257-126" data-name="Ellipse 257" cx="6" cy="6" r="6" transform="translate(1760 7820)" fill="#edf2f9"/>
        <circle id="Ellipse_257-127" data-name="Ellipse 257" cx="6" cy="6" r="6" transform="translate(1784 7820)" fill="#edf2f9"/>
        <circle id="Ellipse_257-128" data-name="Ellipse 257" cx="6" cy="6" r="6" transform="translate(1808 7820)" fill="#edf2f9"/>
        <circle id="Ellipse_257-129" data-name="Ellipse 257" cx="6" cy="6" r="6" transform="translate(1832 7820)" fill="#edf2f9"/>
        <circle id="Ellipse_257-130" data-name="Ellipse 257" cx="6" cy="6" r="6" transform="translate(1856 7820)" fill="#edf2f9"/>
        <circle id="Ellipse_257-131" data-name="Ellipse 257" cx="6" cy="6" r="6" transform="translate(1880 7820)" fill="#edf2f9"/>
        <circle id="Ellipse_257-132" data-name="Ellipse 257" cx="6" cy="6" r="6" transform="translate(1904 7820)" fill="#edf2f9"/>
        <path id="Path_8825" data-name="Path 8825" d="M6,0a6,6,0,0,1,6,6,6.1,6.1,0,0,1-3.982,5.652L1.242,9.778A6.133,6.133,0,0,1,0,6,6,6,0,0,1,6,0Z" transform="translate(1400 7844)" fill="#edf2f9"/>
        <circle id="Ellipse_257-133" data-name="Ellipse 257" cx="6" cy="6" r="6" transform="translate(1424 7844)" fill="#edf2f9"/>
        <circle id="Ellipse_257-134" data-name="Ellipse 257" cx="6" cy="6" r="6" transform="translate(1448 7844)" fill="#edf2f9"/>
        <circle id="Ellipse_257-135" data-name="Ellipse 257" cx="6" cy="6" r="6" transform="translate(1472 7844)" fill="#edf2f9"/>
        <circle id="Ellipse_257-136" data-name="Ellipse 257" cx="6" cy="6" r="6" transform="translate(1496 7844)" fill="#edf2f9"/>
        <circle id="Ellipse_257-137" data-name="Ellipse 257" cx="6" cy="6" r="6" transform="translate(1520 7844)" fill="#edf2f9"/>
        <circle id="Ellipse_257-138" data-name="Ellipse 257" cx="6" cy="6" r="6" transform="translate(1544 7844)" fill="#edf2f9"/>
        <circle id="Ellipse_257-139" data-name="Ellipse 257" cx="6" cy="6" r="6" transform="translate(1568 7844)" fill="#edf2f9"/>
        <circle id="Ellipse_257-140" data-name="Ellipse 257" cx="6" cy="6" r="6" transform="translate(1592 7844)" fill="#edf2f9"/>
        <circle id="Ellipse_257-141" data-name="Ellipse 257" cx="6" cy="6" r="6" transform="translate(1616 7844)" fill="#edf2f9"/>
        <circle id="Ellipse_257-142" data-name="Ellipse 257" cx="6" cy="6" r="6" transform="translate(1640 7844)" fill="#edf2f9"/>
        <circle id="Ellipse_257-143" data-name="Ellipse 257" cx="6" cy="6" r="6" transform="translate(1664 7844)" fill="#edf2f9"/>
        <circle id="Ellipse_257-144" data-name="Ellipse 257" cx="6" cy="6" r="6" transform="translate(1688 7844)" fill="#edf2f9"/>
        <circle id="Ellipse_257-145" data-name="Ellipse 257" cx="6" cy="6" r="6" transform="translate(1712 7844)" fill="#edf2f9"/>
        <circle id="Ellipse_257-146" data-name="Ellipse 257" cx="6" cy="6" r="6" transform="translate(1736 7844)" fill="#edf2f9"/>
        <circle id="Ellipse_257-147" data-name="Ellipse 257" cx="6" cy="6" r="6" transform="translate(1760 7844)" fill="#edf2f9"/>
        <circle id="Ellipse_257-148" data-name="Ellipse 257" cx="6" cy="6" r="6" transform="translate(1784 7844)" fill="#edf2f9"/>
        <circle id="Ellipse_257-149" data-name="Ellipse 257" cx="6" cy="6" r="6" transform="translate(1808 7844)" fill="#edf2f9"/>
        <circle id="Ellipse_257-150" data-name="Ellipse 257" cx="6" cy="6" r="6" transform="translate(1832 7844)" fill="#edf2f9"/>
        <circle id="Ellipse_257-151" data-name="Ellipse 257" cx="6" cy="6" r="6" transform="translate(1856 7844)" fill="#edf2f9"/>
        <circle id="Ellipse_257-152" data-name="Ellipse 257" cx="6" cy="6" r="6" transform="translate(1880 7844)" fill="#edf2f9"/>
        <circle id="Ellipse_257-153" data-name="Ellipse 257" cx="6" cy="6" r="6" transform="translate(1904 7844)" fill="#edf2f9"/>
        <path id="Path_8824" data-name="Path 8824" d="M6,0a6,6,0,0,1,6,6,5.68,5.68,0,0,1-.263,1.888L.159,4.831A6.32,6.32,0,0,1,6,0Z" transform="translate(1472 7868)" fill="#edf2f9"/>
        <circle id="Ellipse_257-154" data-name="Ellipse 257" cx="6" cy="6" r="6" transform="translate(1496 7868)" fill="#edf2f9"/>
        <circle id="Ellipse_257-155" data-name="Ellipse 257" cx="6" cy="6" r="6" transform="translate(1520 7868)" fill="#edf2f9"/>
        <circle id="Ellipse_257-156" data-name="Ellipse 257" cx="6" cy="6" r="6" transform="translate(1544 7868)" fill="#edf2f9"/>
        <circle id="Ellipse_257-157" data-name="Ellipse 257" cx="6" cy="6" r="6" transform="translate(1568 7868)" fill="#edf2f9"/>
        <circle id="Ellipse_257-158" data-name="Ellipse 257" cx="6" cy="6" r="6" transform="translate(1592 7868)" fill="#edf2f9"/>
        <circle id="Ellipse_257-159" data-name="Ellipse 257" cx="6" cy="6" r="6" transform="translate(1616 7868)" fill="#edf2f9"/>
        <circle id="Ellipse_257-160" data-name="Ellipse 257" cx="6" cy="6" r="6" transform="translate(1640 7868)" fill="#edf2f9"/>
        <circle id="Ellipse_257-161" data-name="Ellipse 257" cx="6" cy="6" r="6" transform="translate(1664 7868)" fill="#edf2f9"/>
        <circle id="Ellipse_257-162" data-name="Ellipse 257" cx="6" cy="6" r="6" transform="translate(1688 7868)" fill="#edf2f9"/>
        <circle id="Ellipse_257-163" data-name="Ellipse 257" cx="6" cy="6" r="6" transform="translate(1712 7868)" fill="#edf2f9"/>
        <circle id="Ellipse_257-164" data-name="Ellipse 257" cx="6" cy="6" r="6" transform="translate(1736 7868)" fill="#edf2f9"/>
        <circle id="Ellipse_257-165" data-name="Ellipse 257" cx="6" cy="6" r="6" transform="translate(1760 7868)" fill="#edf2f9"/>
        <circle id="Ellipse_257-166" data-name="Ellipse 257" cx="6" cy="6" r="6" transform="translate(1784 7868)" fill="#edf2f9"/>
        <circle id="Ellipse_257-167" data-name="Ellipse 257" cx="6" cy="6" r="6" transform="translate(1808 7868)" fill="#edf2f9"/>
        <circle id="Ellipse_257-168" data-name="Ellipse 257" cx="6" cy="6" r="6" transform="translate(1832 7868)" fill="#edf2f9"/>
        <circle id="Ellipse_257-169" data-name="Ellipse 257" cx="6" cy="6" r="6" transform="translate(1856 7868)" fill="#edf2f9"/>
        <circle id="Ellipse_257-170" data-name="Ellipse 257" cx="6" cy="6" r="6" transform="translate(1880 7868)" fill="#edf2f9"/>
        <circle id="Ellipse_257-171" data-name="Ellipse 257" cx="6" cy="6" r="6" transform="translate(1904 7868)" fill="#edf2f9"/>
        <path id="Path_8823" data-name="Path 8823" d="M6,0a6.187,6.187,0,0,1,4.988,2.985L3.024.891A5.583,5.583,0,0,1,6,0Z" transform="translate(1544 7892)" fill="#edf2f9"/>
        <path id="Path_8822" data-name="Path 8822" d="M6,0a6,6,0,0,1,6,6,7.456,7.456,0,0,1-.986,3.448L0,6.515V6A6,6,0,0,1,6,0Z" transform="translate(1568 7892)" fill="#edf2f9"/>
        <circle id="Ellipse_257-172" data-name="Ellipse 257" cx="6" cy="6" r="6" transform="translate(1592 7892)" fill="#edf2f9"/>
        <circle id="Ellipse_257-173" data-name="Ellipse 257" cx="6" cy="6" r="6" transform="translate(1616 7892)" fill="#edf2f9"/>
        <circle id="Ellipse_257-174" data-name="Ellipse 257" cx="6" cy="6" r="6" transform="translate(1640 7892)" fill="#edf2f9"/>
        <circle id="Ellipse_257-175" data-name="Ellipse 257" cx="6" cy="6" r="6" transform="translate(1664 7892)" fill="#edf2f9"/>
        <circle id="Ellipse_257-176" data-name="Ellipse 257" cx="6" cy="6" r="6" transform="translate(1688 7892)" fill="#edf2f9"/>
        <circle id="Ellipse_257-177" data-name="Ellipse 257" cx="6" cy="6" r="6" transform="translate(1712 7892)" fill="#edf2f9"/>
        <circle id="Ellipse_257-178" data-name="Ellipse 257" cx="6" cy="6" r="6" transform="translate(1736 7892)" fill="#edf2f9"/>
        <circle id="Ellipse_257-179" data-name="Ellipse 257" cx="6" cy="6" r="6" transform="translate(1760 7892)" fill="#edf2f9"/>
        <circle id="Ellipse_257-180" data-name="Ellipse 257" cx="6" cy="6" r="6" transform="translate(1784 7892)" fill="#edf2f9"/>
        <circle id="Ellipse_257-181" data-name="Ellipse 257" cx="6" cy="6" r="6" transform="translate(1808 7892)" fill="#edf2f9"/>
        <circle id="Ellipse_257-182" data-name="Ellipse 257" cx="6" cy="6" r="6" transform="translate(1832 7892)" fill="#edf2f9"/>
        <circle id="Ellipse_257-183" data-name="Ellipse 257" cx="6" cy="6" r="6" transform="translate(1856 7892)" fill="#edf2f9"/>
        <circle id="Ellipse_257-184" data-name="Ellipse 257" cx="6" cy="6" r="6" transform="translate(1880 7892)" fill="#edf2f9"/>
        <circle id="Ellipse_257-185" data-name="Ellipse 257" cx="6" cy="6" r="6" transform="translate(1904 7892)" fill="#edf2f9"/>
        <path id="Path_8821" data-name="Path 8821" d="M6,0c2.661,0,4.816,2.239,5.691,4.938L1.251,2.1A5.888,5.888,0,0,1,6,0Z" transform="translate(1640 7916)" fill="#edf2f9"/>
        <path id="Path_8850" data-name="Path 8850" d="M6,0a6,6,0,0,1,6,6,6.616,6.616,0,0,1-2.523,4.739L.456,8.3A5.613,5.613,0,0,1,0,6,6,6,0,0,1,6,0Z" transform="translate(1664 7916)" fill="#edf2f9"/>
        <circle id="Ellipse_257-186" data-name="Ellipse 257" cx="6" cy="6" r="6" transform="translate(1688 7916)" fill="#edf2f9"/>
        <circle id="Ellipse_257-187" data-name="Ellipse 257" cx="6" cy="6" r="6" transform="translate(1712 7916)" fill="#edf2f9"/>
        <circle id="Ellipse_257-188" data-name="Ellipse 257" cx="6" cy="6" r="6" transform="translate(1736 7916)" fill="#edf2f9"/>
        <circle id="Ellipse_257-189" data-name="Ellipse 257" cx="6" cy="6" r="6" transform="translate(1760 7916)" fill="#edf2f9"/>
        <circle id="Ellipse_257-190" data-name="Ellipse 257" cx="6" cy="6" r="6" transform="translate(1784 7916)" fill="#edf2f9"/>
        <circle id="Ellipse_257-191" data-name="Ellipse 257" cx="6" cy="6" r="6" transform="translate(1808 7916)" fill="#edf2f9"/>
        <circle id="Ellipse_257-192" data-name="Ellipse 257" cx="6" cy="6" r="6" transform="translate(1832 7916)" fill="#edf2f9"/>
        <circle id="Ellipse_257-193" data-name="Ellipse 257" cx="6" cy="6" r="6" transform="translate(1856 7916)" fill="#edf2f9"/>
        <circle id="Ellipse_257-194" data-name="Ellipse 257" cx="6" cy="6" r="6" transform="translate(1880 7916)" fill="#edf2f9"/>
        <path id="Path_8817" data-name="Path 8817" d="M6,0a5.843,5.843,0,0,1,6.078,5.73S10.2,6.972,7.95,8.38,3.1,11.36,3.1,11.36A6.239,6.239,0,0,1,0,6,6,6,0,0,1,6,0Z" transform="translate(1904 7916)" fill="#edf2f9"/>
        <path id="Path_8819" data-name="Path 8819" d="M6,0a6,6,0,0,1,6,6c0,.215.016.405,0,.735L.556,3.663A3.353,3.353,0,0,1,.805,3,5.878,5.878,0,0,1,6,0Z" transform="translate(1736 7940)" fill="#edf2f9"/>
        <path id="Path_8820" data-name="Path 8820" d="M6,0a6,6,0,0,1,6,6,6.541,6.541,0,0,1-3.527,5.6s-1.86-.339-3.539-.679-3.176-.679-3.176-.679A5.808,5.808,0,0,1,0,6,6,6,0,0,1,6,0Z" transform="translate(1760 7940)" fill="#edf2f9"/>
        <circle id="Ellipse_257-195" data-name="Ellipse 257" cx="6" cy="6" r="6" transform="translate(1784 7940)" fill="#edf2f9"/>
        <circle id="Ellipse_257-196" data-name="Ellipse 257" cx="6" cy="6" r="6" transform="translate(1808 7940)" fill="#edf2f9"/>
        <circle id="Ellipse_257-197" data-name="Ellipse 257" cx="6" cy="6" r="6" transform="translate(1832 7940)" fill="#edf2f9"/>
        <path id="Path_8818" data-name="Path 8818" d="M6,0a5.877,5.877,0,0,1,5.933,5.1S8.671,6.176,5.83,7.009.567,8.434.567,8.434A6.166,6.166,0,0,1,0,6,6,6,0,0,1,6,0Z" transform="translate(1856 7940)" fill="#edf2f9"/>
      </g>
    </g>
  </g>
</svg>
