<svg xmlns="http://www.w3.org/2000/svg" width="394.551" height="581.026" viewBox="0 0 394.551 581.026">
  <g id="lamp" transform="translate(-1008.973 -3602.356)">
    <rect id="Rectangle_576" data-name="Rectangle 576" width="123.302" height="27.833" rx="13.917" transform="translate(1152.905 4155.548)" fill="#455a64"/>
    <rect id="Rectangle_575" data-name="Rectangle 575" width="179.223" height="27.833" rx="13.917" transform="translate(1124.935 4122.759)" fill="#455a64"/>
    <rect id="Rectangle_574" data-name="Rectangle 574" width="179.223" height="27.833" rx="13.917" transform="translate(1124.935 4089.99)" fill="#455a64"/>
    <path id="Path_8687" data-name="Path 8687" d="M350.241,302.2c0,7.247,13.386,13.845,13.386,27.615,0,7.051-10.445,20.782-26.467,20.782s-21.37-13.711-21.37-20.782c0-13.711,11.537-19.861,11.537-27.109,0-6.307-7.933-12.046-7.933-12.046H248.721v-79.9s7.188-8.039,13.5-8.039c7.247,0,13.339,11.537,27.109,11.537,7.051,0,20.782-5.347,20.782-21.37s-13.711-21.37-20.782-21.37c-13.711,0-19.861,11.537-27.109,11.537-6.307,0-12.046-7.835-12.046-7.835V96.93c106.124,0,188.958,85.557,188.958,177.656q0,7.952-.705,15.67H358.115S350.241,295.9,350.241,302.2Z" transform="translate(964.396 3518.931)" fill="#ffc727"/>
    <path id="Path_8688" data-name="Path 8688" d="M282.347,303.531c0,16.022,13.711,21.37,20.8,21.37,13.711,0,19.861-11.537,27.109-11.537,6.307,0,12.026,7.835,12.026,7.835v184.59H269.811s8.4-65.3-24.445-113.606c-19.1-28.127-83.931-83.775-91.3-167.216h85.968s7.835-5.719,7.835-12.027c0-7.247-11.537-13.339-11.537-27.109,0-7.051,5.347-20.8,21.37-20.8s21.37,13.711,21.37,20.8c0,13.711-11.537,19.861-11.537,27.109,0,6.307,7.835,12.027,7.835,12.027h66.792v60.916s-5.719,7.835-12.027,7.835c-7.247,0-13.339-11.537-27.109-11.537C296.1,282.162,282.347,287.509,282.347,303.531Z" transform="translate(872.262 3584.22)" fill="#ffc727"/>
    <path id="Path_8689" data-name="Path 8689" d="M402.585,192.9c0,16.022-13.711,21.37-20.782,21.37-13.711,0-19.861-11.537-27.109-11.537-6.307,0-12.046,7.835-12.046,7.835v79.6H275.856s-7.835-5.719-7.835-12.027c0-7.247,11.537-13.339,11.537-27.109,0-7.051-5.347-20.8-21.37-20.8s-21.37,13.711-21.37,20.8c0,13.711,11.537,19.861,11.537,27.109,0,6.307-7.835,12.027-7.835,12.027H154.4q-.705-7.619-.705-15.67c0-92.06,82.834-177.656,188.958-177.656v78.133s5.739,7.835,12.046,7.835c7.247,0,13.339-11.537,27.109-11.537C388.854,171.585,402.585,176.873,402.585,192.9Z" transform="translate(855.283 3505.516)" fill="#f7b132"/>
    <path id="Path_8720" data-name="Path 8720" d="M170.518,178.871c-25.307,52.729-7.525,116.973-7.525,116.973l-75.072,10.2L64.238,123.223s-6.856-6.993-13.084-6.052c-7.169,1.077-11.478,13.4-25.091,15.435-6.973,1.038-23.4-3.817-25.773-19.664S10.709,89.77,17.7,88.732c13.594-1.959,21.33,8.462,28.5,7.384C52.45,95.2,58.969,88.1,58.969,88.1L49.841,27.892,121.53,17.158s8.7,4.485,9.617,10.734c1.077,7.169-9.421,14.906-7.384,28.5,1.038,6.993,8.364,19.783,24.21,17.413s19.1-16.767,18.059-23.74c-1.959-13.613-14.357-17.922-15.435-25.091-.921-6.229,6.052-13.084,6.052-13.084L236.018,0C241.091,83.579,185.228,148.217,170.518,178.871Z" transform="translate(1167.992 3774.718) rotate(8)" fill="#f7b132"/>
  </g>
</svg>
