<svg xmlns="http://www.w3.org/2000/svg" width="116.245" height="62.853" viewBox="0 0 116.245 62.853">
  <g id="Group_1259" data-name="Group 1259" transform="translate(-0.005 0)">
    <path id="Path_8766" data-name="Path 8766" d="M83.42,25.73a1.16,1.16,0,0,1,.85.3,1.09,1.09,0,0,1,.28.81,2.06,2.06,0,0,1-.13.78l-4,12a1.36,1.36,0,0,1-1.27.89,1.43,1.43,0,0,1-.82-.26,1.14,1.14,0,0,1-.47-.63l-2.65-9.8-2.78,9.8a1.24,1.24,0,0,1-.5.63,1.36,1.36,0,0,1-1.6,0,1.3,1.3,0,0,1-.5-.63l-4-12a2.72,2.72,0,0,1-.11-.75,1,1,0,0,1,.85-1.14,1.4,1.4,0,0,1,.29,0,1.27,1.27,0,0,1,.85.3,2.17,2.17,0,0,1,.55.95l2.92,9.1,2.75-9.32A1.52,1.52,0,0,1,74.4,26a1.27,1.27,0,0,1,.88-.28,1.2,1.2,0,0,1,.85.28,1.39,1.39,0,0,1,.47.74L79,36.26,82,27C82.26,26.15,82.73,25.73,83.42,25.73Zm10.12-.11a7.4,7.4,0,0,1,3.77,1,7.14,7.14,0,0,1,2.67,2.7,7.41,7.41,0,0,1,1,3.82v6a1.38,1.38,0,1,1-2.76,0v-1A6.62,6.62,0,0,1,95.92,40a6.7,6.7,0,0,1-2.92.65,6.62,6.62,0,0,1-3.52-1A6.83,6.83,0,0,1,87,37a8,8,0,0,1-.9-3.82,7.59,7.59,0,0,1,1-3.82,7,7,0,0,1,2.69-2.7,7.49,7.49,0,0,1,3.75-1.04Zm0,12.56A4.67,4.67,0,0,0,96,37.52a4.74,4.74,0,0,0,1.72-1.81,5.7,5.7,0,0,0,0-5.17,4.77,4.77,0,0,0-6.61-1.83,4.9,4.9,0,0,0-1.73,1.83,5.62,5.62,0,0,0,0,5.17,4.92,4.92,0,0,0,1.73,1.81A4.66,4.66,0,0,0,93.54,38.18Zm22.82-12.31a1.11,1.11,0,0,1,.84,1.05,1.7,1.7,0,0,1-.17.65l-8.26,18.57a1.1,1.1,0,0,1-1,.84,1.78,1.78,0,0,1-.65-.16,1.13,1.13,0,0,1-.81-1.06,1.44,1.44,0,0,1,.16-.64l2.7-6.08L103.1,27.51a1.22,1.22,0,0,1-.14-.56,1.06,1.06,0,0,1,.22-.65,1.36,1.36,0,0,1,.57-.46,1.41,1.41,0,0,1,.54-.11,1.23,1.23,0,0,1,1.13.76l4.94,9.83,4.35-9.81a1.14,1.14,0,0,1,1-.78,1.62,1.62,0,0,1,.65.14Z" transform="translate(-1.45 -0.92)" fill="#fff" stroke="#fff" stroke-width="1"/>
    <g id="Group_1288" data-name="Group 1288">
      <path id="Path_8578" data-name="Path 8578" d="M9.49,53.77,1.91,25.49A13.49,13.49,0,0,1,11.45,9h0L39.73,1.38a13.51,13.51,0,0,1,16.53,9.54h0l7.58,28.29A13.5,13.5,0,0,1,54.3,55.73h0L26,63.31A13.48,13.48,0,0,1,9.49,53.77Z" transform="translate(-1.45 -0.92)" fill="#7ba0ff"/>
      <path id="Path_8579" data-name="Path 8579" d="M34.83,2.71l4.9-1.33a13.51,13.51,0,0,1,16.53,9.54h0l7.58,28.29A13.5,13.5,0,0,1,54.3,55.73S-16.29,52.54,34.83,2.71Z" transform="translate(-1.45 -0.92)" fill="#892d92"/>
      <path id="Path_8576" data-name="Path 8576" d="M7,44.3,2,25.49A13.49,13.49,0,0,1,11.45,9h0L39.73,1.38a13.59,13.59,0,0,1,12.63,3.1S60.44,29.57,37.57,39,7,44.3,7,44.3Z" transform="translate(-1.45 -0.92)" fill="#e03852"/>
    </g>
    <path id="Path_8765" data-name="Path 8765" d="M15.36,40.5a1.34,1.34,0,0,1-1-.41,1.32,1.32,0,0,1-.4-1V20.82a1.35,1.35,0,0,1,1.4-1.41h5.4a7.17,7.17,0,0,1,3.57.89,6.27,6.27,0,0,1,2.46,2.49,7.33,7.33,0,0,1,.88,3.61,6.94,6.94,0,0,1-.88,3.51,6.17,6.17,0,0,1-2.46,2.4,7.31,7.31,0,0,1-3.57.87h-4V39.1a1.43,1.43,0,0,1-.39,1A1.38,1.38,0,0,1,15.36,40.5Zm5.4-9.91a4.11,4.11,0,0,0,3-1.17,4.05,4.05,0,0,0,1.19-3,4.4,4.4,0,0,0-1.19-3.16,4,4,0,0,0-3-1.25h-4V30.6Zm17-5A4.8,4.8,0,0,1,40,26a1.14,1.14,0,0,1,.78,1.35,1.05,1.05,0,0,1-1.08.87,2.76,2.76,0,0,1-.4-.06A11.55,11.55,0,0,0,37.52,28a5.13,5.13,0,0,0-3.13.89,2.87,2.87,0,0,0-1.19,2.4v7.89a1.37,1.37,0,0,1-.33,1,1.35,1.35,0,0,1-1,.35,1.39,1.39,0,0,1-1-.34,1.3,1.3,0,0,1-.35-1V27.08a1.31,1.31,0,0,1,.35-1,1.35,1.35,0,0,1,1-.35,1.2,1.2,0,0,1,1.35,1,1.93,1.93,0,0,1,0,.34v.51a5.74,5.74,0,0,1,2-1.48,6,6,0,0,1,2.53-.54Zm11.51,15a7.82,7.82,0,0,1-3.87-1A6.75,6.75,0,0,1,42.74,37a8.38,8.38,0,0,1,0-7.75,6.75,6.75,0,0,1,2.64-2.66,7.82,7.82,0,0,1,3.87-1,7.64,7.64,0,0,1,3.82,1,7,7,0,0,1,2.64,2.66,7.87,7.87,0,0,1,1,3.89,7.75,7.75,0,0,1-1,3.86,6.73,6.73,0,0,1-2.63,2.66,7.68,7.68,0,0,1-3.83.95Zm0-2.43a4.78,4.78,0,0,0,2.47-.65,4.53,4.53,0,0,0,1.7-1.8,6,6,0,0,0,0-5.22,4.56,4.56,0,0,0-1.7-1.81,5,5,0,0,0-4.95,0,4.51,4.51,0,0,0-1.71,1.81,5.82,5.82,0,0,0,0,5.23,4.62,4.62,0,0,0,1.71,1.8,4.88,4.88,0,0,0,2.46.66Z" transform="translate(-1.45 -0.92)" fill="#fff" stroke="#fff" stroke-width="1"/>
  </g>
</svg>
